<?xml version="1.0" standalone="no"?>
<!DOCTYPE svg PUBLIC "-//W3C//DTD SVG 1.1//EN" "http://www.w3.org/Graphics/SVG/1.1/DTD/svg11.dtd" >
<svg xmlns="http://www.w3.org/2000/svg" xmlns:xlink="http://www.w3.org/1999/xlink" version="1.1">
<metadata>
Created by FontForge 20170731 at Mon Aug 26 02:04:55 2019
 By Aleksey,,,
Copyright (c) 2019 by Cafe24. All rights reserved.
</metadata>
<defs>
<font id="Cafe24Syongsyong" horiz-adv-x="719" >
  <font-face 
    font-family="Cafe24 Syongsyong"
    font-weight="400"
    font-stretch="normal"
    units-per-em="1000"
    panose-1="0 0 0 0 0 0 0 0 0 0"
    ascent="800"
    descent="-200"
    x-height="413"
    cap-height="615"
    bbox="-7 -207.667 871.105 852.1"
    underline-thickness="50"
    underline-position="-250"
    unicode-range="U+000D-FFE6"
  />
<missing-glyph horiz-adv-x="234" 
 />
    <glyph glyph-name=".notdef" horiz-adv-x="234" 
 />
    <glyph glyph-name=".null" horiz-adv-x="0" 
 />
    <glyph glyph-name="nonmarkingreturn" unicode="&#xd;" horiz-adv-x="234" 
 />
    <glyph glyph-name="NULL" horiz-adv-x="0" 
 />
    <glyph glyph-name="NULL" horiz-adv-x="0" 
 />
    <glyph glyph-name="space" unicode=" " horiz-adv-x="234" 
 />
    <glyph glyph-name="exclam" unicode="!" horiz-adv-x="286" 
d="M203 307q-13 -14 -29 -12.5t-27 7.5q-18 11 -19 38.5t-1 72.5q0 60 -6 121t-19 131q-6 28 4.5 42t25.5 17q9 3 20.5 5.5t28.5 -1.5q13 -3 20 -13.5t10.5 -25t4.5 -32t3 -34.5q5 -52 7 -104t0.5 -95.5t-7.5 -74.5t-16 -42zM111 143q0 25 17.5 43t42.5 18q26 0 43.5 -18
t17.5 -43q0 -26 -17.5 -43.5t-43.5 -17.5q-25 0 -42.5 17.5t-17.5 43.5z" />
    <glyph glyph-name="quotedbl" unicode="&#x22;" horiz-adv-x="383" 
d="M161 562q-3 -19 -14.5 -27.5t-24 -8t-23 9.5t-10.5 27q0 34 -3 72t-11 79q-5 20 7 32t28 15q17 3 32 -3.5t19 -25.5q9 -57 6.5 -97.5t-6.5 -72.5zM307 560q-4 -18 -15 -26.5t-22.5 -7.5t-20.5 10.5t-9 27.5q0 69 -15 150q-4 15 3.5 26.5t18.5 16.5q18 8 39 3t25 -28
q9 -57 6 -98.5t-10 -73.5z" />
    <glyph glyph-name="numbersign" unicode="#" horiz-adv-x="626" 
d="M365 563q0 23 13 33.5t28.5 10t29 -11t14.5 -28.5v-86q31 -1 56 -1.5t41 -2.5q17 -2 24 -13.5t5 -25.5q-2 -15 -11.5 -27t-25.5 -11q-12 1 -36 1h-53v-129q18 -1 32.5 -2t25.5 -2q18 -2 25.5 -13.5t5.5 -25.5q-2 -15 -12 -27t-26 -11q-8 0 -21 0.5t-30 0.5v-86
q-1 -22 -14.5 -34.5t-29 -13.5t-28.5 9.5t-13 34.5v90q-31 0 -62.5 -0.5t-62.5 -1.5q-1 -14 -0.5 -28.5t0.5 -28.5q-1 -22 -14 -34t-29 -12q-14 0 -27.5 10.5t-15.5 31.5v61h-43q-22 -2 -33.5 11t-11.5 29q0 14 10 25.5t30 13.5q11 0 24 0.5t27 1.5q3 63 3 128h-41
q-23 -2 -34.5 11t-11.5 29q0 14 10 25.5t29 13.5q9 0 21 0.5t26 1.5l-5 59q-2 25 12 38.5t31 13.5q13 0 24.5 -8t16.5 -28q2 -19 3.5 -37t2.5 -37q29 1 59.5 1h61.5v81zM245 399q0 -32 -0.5 -63t-1.5 -63h122v128z" />
    <glyph glyph-name="dollar" unicode="$" horiz-adv-x="562" 
d="M267 301q-77 12 -121 51t-46 94q-2 27 5 58.5t25 59t48.5 47t75.5 22.5q0 11 -0.5 20t-0.5 20q0 18 12 27.5t26.5 9.5t26.5 -8.5t13 -26.5q1 -12 1.5 -23t0.5 -23q31 -5 56 -16.5t50 -25.5q18 -12 20.5 -29.5t-5.5 -31t-23 -19.5t-31 3q-29 18 -64 29q1 -44 2 -86.5
t3 -86.5q2 0 4 -0.5t5 -0.5q39 -9 65 -24.5t41 -37t19.5 -47t0.5 -53.5q-7 -44 -34.5 -72t-69.5 -41q1 -5 1.5 -9.5t2.5 -9.5q4 -18 -7 -30t-26 -16t-29.5 2t-17.5 24q-2 8 -2.5 15t-1.5 15q-20 0 -39 3q-53 8 -85 34.5t-40 66.5q-3 16 7 28.5t24.5 18t29 2t21.5 -21.5
q8 -16 21 -31.5t35 -17.5l16 -2q-3 33 -6 68t-5 71q-3 0 -4 1zM266 386q-3 40 -4.5 79.5t-3.5 79.5q-15 -2 -28.5 -9.5t-23.5 -18.5t-15 -26t-3 -33q1 -12 4 -22t10.5 -18.5t22.5 -16t41 -15.5zM348 276q2 -26 4.5 -52t5.5 -52q26 14 30 40q2 16 -5.5 33t-34.5 31z" />
    <glyph glyph-name="percent" unicode="%" horiz-adv-x="747" 
d="M545 508q-30 -47 -68.5 -101t-80 -108t-82.5 -103.5t-74 -86.5q-14 -17 -30.5 -16.5t-29 10t-16.5 26t9 31.5q37 42 77 91.5t80 102t78 106t71 104.5q9 14 25.5 15t30 -8t18.5 -25.5t-8 -37.5zM199 637q26 0 49.5 -8t41.5 -24.5t28 -41t10 -57.5q-1 -32 -12.5 -57.5
t-30 -43t-42.5 -26.5t-51 -9t-50.5 10.5t-41 28t-29 41t-14.5 50.5q-3 19 3 42.5t22.5 44.5t45 35.5t71.5 14.5zM143 505q0 -21 14.5 -37.5t34.5 -16.5q25 0 39 16t14 36q0 24 -12.5 38t-33.5 14q-17 0 -28 -4.5t-17 -12t-8.5 -16t-2.5 -17.5zM418 181q-4 28 4 48t23 33
t34.5 19t40.5 6q26 0 45 -9t31.5 -23t18.5 -32.5t6 -36.5q-2 -39 -26 -69t-65 -32q-49 -3 -78 25.5t-34 70.5zM520 151q15 0 25 9t9 29q-1 11 -8 22t-28 11q-14 0 -23 -7t-9 -26q0 -16 9 -26.5t25 -11.5z" />
    <glyph glyph-name="ampersand" unicode="&#x26;" horiz-adv-x="675" 
d="M537 217q18 -8 20.5 -25t-5 -32t-23.5 -23t-36 1q-12 8 -23.5 12t-19.5 12q-19 -32 -39.5 -55.5t-54.5 -39.5q-38 -17 -77 -11t-69 28t-44.5 55.5t-2.5 71.5q7 23 14.5 39t15 29t15.5 24.5t17 26.5q-43 29 -72.5 59t-43.5 63t-11 70t26 79q18 33 50.5 50.5t69.5 21
t74 -6.5t65.5 -33t44 -58.5t8.5 -82.5q-4 -29 -13.5 -48t-21.5 -34t-25 -28.5t-24 -30.5q20 -16 35 -29t30 -23q6 13 10 20t7 12t6.5 12t9.5 20q9 20 25.5 23.5t30 -4.5t20.5 -25.5t-2 -38.5q-4 -8 -8 -14t-7.5 -13t-8 -16.5t-9.5 -24.5q14 -11 23.5 -16.5t22.5 -16.5z
M350 510q3 19 -3 34.5t-18 27t-28.5 17.5t-34.5 5q-22 -2 -38.5 -12t-26.5 -25t-12.5 -33t3.5 -36q6 -17 15 -29t20.5 -21.5t25 -18.5t29.5 -19q15 18 26 29.5t19 22.5t13.5 24t9.5 34zM352 170q7 9 11.5 16t7.5 12.5t5 11t6 12.5q-18 14 -39.5 30t-44.5 35
q-15 -19 -25 -37.5t-20 -48.5q-5 -21 2.5 -36.5t23 -21.5t35 -0.5t38.5 27.5z" />
    <glyph glyph-name="quotesingle" unicode="'" horiz-adv-x="277" 
d="M181 562q-3 -19 -14.5 -27.5t-24 -8t-23 9.5t-10.5 27q0 34 -3.5 72t-11.5 79q-4 20 8 32t28 15q17 3 32 -3.5t19 -25.5q9 -57 6.5 -97.5t-6.5 -72.5z" />
    <glyph glyph-name="parenleft" unicode="(" horiz-adv-x="441" 
d="M312 551q-43 0 -68 -21.5t-38 -54t-16.5 -72t-3.5 -75.5q0 -37 5.5 -72t20 -62.5t40.5 -44t67 -16.5q17 0 26 -14t8 -31t-9.5 -30t-26.5 -13q-62 0 -104 24t-68 63.5t-37.5 91t-11.5 106.5q0 50 10 104.5t34.5 100t65 75t102.5 29.5q17 0 26 -12.5t11 -27.5q2 -18 -7 -33
t-26 -15z" />
    <glyph glyph-name="parenright" unicode=")" horiz-adv-x="441" 
d="M364 375q0 -54 -10.5 -106t-33.5 -94.5t-59 -74t-88 -44.5q-13 -3 -24 0t-19.5 10t-12.5 17t-4 20q0 12 8.5 22.5t25.5 14.5q38 8 62.5 33.5t38.5 59t19 71.5t5 71q0 34 -4.5 65.5t-19.5 55.5t-43.5 38.5t-76.5 14.5q-17 0 -24.5 14.5t-6.5 31.5q1 16 9.5 29t25.5 13
q66 0 110.5 -21.5t71.5 -57.5t38.5 -83.5t11.5 -99.5z" />
    <glyph glyph-name="asterisk" unicode="*" horiz-adv-x="558" 
d="M460 328q-8 1 -24 1h-35.5t-38.5 -0.5t-31 -0.5q16 -26 27.5 -45.5t28.5 -43.5q10 -17 3.5 -33t-20.5 -25t-31.5 -8.5t-29.5 17.5q-17 23 -27 40.5t-23 40.5q-5 -9 -13.5 -25.5t-18 -35t-19 -36t-17.5 -28.5q-10 -15 -25.5 -15.5t-28.5 8t-19.5 23t1.5 29.5
q7 12 15.5 29.5t18 35.5t18.5 34.5t17 25.5q-7 -1 -20 -3t-27.5 -5t-29.5 -6.5t-26 -6.5q-20 -3 -32.5 9.5t-16 29.5t3.5 33t26 20q12 3 28.5 6t33.5 5.5t31.5 4t22.5 1.5q-5 8 -9 15.5t-9 16t-11 20t-15 28.5q-9 19 0 36t25 26t33.5 7t25.5 -21q14 -31 23.5 -51t20.5 -38
q8 20 23 44.5t33 48.5q12 15 28.5 15.5t29 -8t18 -24t-4.5 -31.5q-17 -23 -25.5 -39t-19.5 -34q13 1 29.5 2t33.5 1.5t33 0t28 -2.5q20 -3 28 -18t6 -31.5t-14 -28.5t-32 -10z" />
    <glyph glyph-name="plus" unicode="+" horiz-adv-x="547" 
d="M229 400q0 24 0.5 60t3.5 67q2 23 16 32t29 7q16 -2 28 -12.5t11 -30.5q-2 -37 -2 -66.5v-57.5h35.5h37t35.5 -0.5t30 -2.5q21 -2 31.5 -14t11.5 -26q2 -17 -11 -30t-37 -14h-133l2 -159q1 -19 -10.5 -29t-27.5 -12q-15 -2 -29 6.5t-17 27.5q-2 11 -3 22t-1.5 28.5
t-1 44.5t-0.5 71h-47t-32.5 -0.5t-27 -0.5h-29.5q-20 0 -29.5 17t-7.5 34q2 11 9 21t22 12q13 1 25.5 2t28.5 2t37.5 1h52.5z" />
    <glyph glyph-name="comma" unicode="," horiz-adv-x="379" 
d="M307 125q0 -50 -35 -85v-1q-11 -34 -20 -63.5t-24 -62.5q-7 -14 -22 -16.5t-29 3t-22.5 19t-2.5 31.5q8 17 13 32l10 30q-40 7 -67 36.5t-27 72.5q0 13 5 32.5t17.5 38t34.5 31.5t56 15q23 1 43.5 -6.5t36 -22t24.5 -36t9 -48.5zM232 129q0 9 -9.5 20.5t-26.5 11.5
q-7 0 -14 -3t-12.5 -8.5t-8.5 -12.5t-1 -14q0 -20 13 -27t24 -7q16 0 25.5 12t9.5 28z" />
    <glyph glyph-name="hyphen" unicode="-" horiz-adv-x="519" 
d="M406 293q-21 1 -55 1t-72 -0.5t-75 -1t-64 -0.5q-23 -2 -34 12.5t-11 32.5q0 15 9 28t29 15q34 1 71.5 2.5t75 2t72 -1t61.5 -4.5q18 -2 25 -15.5t5 -28.5q-2 -17 -11 -30t-26 -12z" />
    <glyph glyph-name="period" unicode="." horiz-adv-x="361" 
d="M307 125q0 -21 -7.5 -41.5t-21 -37t-33 -26.5t-43.5 -10q-25 -1 -47 7t-38.5 23t-26 36t-9.5 45q0 13 5 32t17.5 36.5t34.5 30t56 14.5q46 1 79.5 -26.5t33.5 -82.5zM232 129q0 9 -9.5 20.5t-26.5 11.5q-7 0 -14 -3t-12.5 -8.5t-8.5 -12.5t-1 -14q0 -20 13 -27t24 -7
q16 0 25.5 12t9.5 28z" />
    <glyph glyph-name="slash" unicode="/" horiz-adv-x="447" 
d="M304 550q10 17 26.5 21t31 -1.5t21.5 -19t0 -32.5q-62 -105 -127 -211.5t-146 -199.5q-14 -12 -29 -8.5t-26 14t-14.5 25t5.5 23.5q78 92 138 190.5t120 198.5z" />
    <glyph glyph-name="zero" unicode="0" horiz-adv-x="447" 
d="M311 292q0 17 -8 31.5t-20.5 25t-28.5 16.5t-32 5q-35 -3 -55 -28t-22 -57q-2 -15 3.5 -30t15 -26t22 -18t26.5 -7q55 0 77 26.5t22 61.5zM58 272q-2 33 7.5 64.5t29.5 57t51.5 42.5t75.5 20q37 2 69 -11t55.5 -35.5t37 -53t13.5 -62.5q0 -78 -49.5 -126t-143.5 -48
q-30 0 -56 13t-45.5 34.5t-31.5 49t-13 55.5z" />
    <glyph glyph-name="one" unicode="1" horiz-adv-x="353" 
d="M294 119q-27 1 -46 1.5t-38.5 0.5t-42.5 -1t-58 -3q-21 -2 -33 9.5t-13 26.5t9 28t32 15q21 2 36.5 3.5t20.5 1.5q0 41 0.5 78.5t0.5 72t-2 68t-8 67.5q-2 0 -11.5 -4t-22.5 -10t-27 -12.5t-26 -11.5q-11 -4 -21 -2t-17.5 8t-12.5 15.5t-5 19.5q-1 12 4.5 23t19.5 18
l26 13t39 18t40.5 15t30.5 6q20 -1 39.5 -11.5t22.5 -36.5t5.5 -65.5t3.5 -85t1 -92.5t-1 -89h30t30 -2q17 -2 24.5 -15.5t6.5 -28.5t-10.5 -27t-26.5 -11z" />
    <glyph glyph-name="two" unicode="2" horiz-adv-x="408" 
d="M221 188q23 0 49.5 1t62.5 -4q13 -2 20 -14.5t6.5 -26.5t-9.5 -25.5t-27 -11.5q-48 0 -103.5 -1t-106.5 1q-14 1 -23.5 10t-12.5 22t2.5 26.5t22.5 22.5t41.5 29.5t48.5 47.5t42.5 59t23.5 65q2 19 0.5 37.5t-8.5 32.5t-20.5 22.5t-35.5 8.5q-30 0 -49 -14.5t-24 -40.5
q-1 -16 -14 -23t-28 -4.5t-26 13t-8 28.5q1 19 11 40.5t30 38.5t50.5 28.5t71.5 11.5q38 0 66.5 -18t45.5 -47t21 -65.5t-6 -74.5q-15 -54 -47 -99t-67 -76z" />
    <glyph glyph-name="three" unicode="3" horiz-adv-x="459" 
d="M140 524q-5 -16 -19 -18t-27 2q-14 4 -22 16.5t-3 30.5q8 24 23 40.5t33.5 27t40 14.5t41.5 3q66 -5 101.5 -39t35.5 -94q0 -32 -16 -64t-38 -56q50 -21 78.5 -60.5t22.5 -109.5q-6 -62 -49 -99t-113 -39q-65 -2 -104.5 25.5t-55.5 64.5q-8 20 0.5 36t23.5 23.5t31.5 5
t24.5 -20.5q10 -23 29.5 -38t40.5 -13q46 -1 64.5 21.5t19.5 54.5q4 31 -12 53t-48 33q-17 5 -33.5 7.5t-34.5 -2.5q-17 -5 -29.5 1.5t-17.5 18t-1.5 25.5t19.5 25q8 5 19 6.5t23 2.5q15 3 29 13t24 24t15 30.5t2 32.5q-3 25 -14 35t-30 15q-9 2 -20.5 1.5t-22 -4t-19 -11
t-12.5 -20.5z" />
    <glyph glyph-name="four" unicode="4" horiz-adv-x="527" 
d="M459 274q22 0 31 -13.5t7.5 -30t-12.5 -30.5t-29 -14h-27q-12 0 -27 -0.5t-31 -1.5q-1 -14 -1 -25.5t-0.5 -23.5t-1.5 -25t-2 -31q-2 -21 -16 -31t-30 -9.5t-29 11.5t-14 32q1 29 2 56t3 51q-39 -5 -67 -5h-60t-52.5 9.5t-31.5 26t-14 38.5t0 48q4 31 6.5 55t4.5 45.5
t4.5 43.5t5.5 51q2 22 14 32.5t26 11.5q17 2 32 -9t15 -29q-7 -53 -10 -93.5t-5 -86.5q-2 -31 2 -42t28 -11q18 0 45 0.5t60 2.5q2 31 2.5 58.5t0.5 59.5t0.5 71t2.5 93q1 21 15.5 31t31.5 9.5t30.5 -12t13.5 -32.5q-2 -51 -2.5 -85t-1 -63t-1 -59t-1.5 -74h83z" />
    <glyph glyph-name="five" unicode="5" horiz-adv-x="484" 
d="M167 595q14 1 35 1.5t44 1t45.5 0t39.5 -2.5q18 -3 26 -15.5t6.5 -26.5t-12 -24.5t-27.5 -9.5q-40 2 -70.5 2.5t-56.5 -2.5q-20 -2 -26.5 -9t-7.5 -22l-3 -79q3 4 34 9.5t72 3.5q74 -5 116.5 -44t45.5 -120q2 -45 -9.5 -77t-31.5 -53t-45.5 -33t-51.5 -16q-41 -7 -72 -1
t-54 19q-15 9 -19 24.5t1.5 29t18.5 20.5t32 -1q10 -4 18.5 -6.5t18.5 -4t22.5 -0.5t29.5 4q31 6 42.5 30t11.5 67q-1 35 -24 55.5t-52 25.5q-21 2 -46 -0.5t-65 -17.5q-18 -8 -33 -6t-25.5 10.5t-15.5 20.5t-4 24q5 45 6 83t6 85q2 32 23.5 41.5t56.5 13.5z" />
    <glyph glyph-name="six" unicode="6" horiz-adv-x="418" 
d="M377 256q0 -33 -9.5 -62.5t-30 -51t-51 -34t-72.5 -12.5q-25 1 -51 10.5t-48.5 27t-38.5 41.5t-20 53q-7 38 -8 77.5t10 85.5q5 25 17 61t34.5 70t57 60t85.5 31q17 2 28 -8.5t13 -23.5q2 -15 -5 -27t-24 -17q-42 -12 -65.5 -35.5t-34.5 -48.5t-13.5 -46t-2.5 -30
q2 3 12 6.5t23.5 7.5t26.5 6.5t21 2.5q29 0 55.5 -11t46 -30t31.5 -45.5t13 -57.5zM145 245q0 -20 8.5 -34t22 -22t29 -10.5t28.5 1.5q29 8 42.5 24.5t14.5 46.5q0 17 -5.5 29.5t-14.5 20t-21 11.5t-25 4q-12 0 -25.5 -3.5t-25.5 -11.5t-20 -21.5t-8 -34.5z" />
    <glyph glyph-name="seven" unicode="7" horiz-adv-x="418" 
d="M294 533h-45.5t-47.5 -1t-58 -3t-77 -6q-23 -2 -34.5 10.5t-13.5 29.5q-2 15 4 28t22 16q26 5 61.5 7.5t73.5 3.5t76 1h70q28 0 43.5 -10.5t20.5 -26.5t2 -34.5t-11 -33.5q-23 -50 -38.5 -100t-24.5 -99t-13.5 -96.5t-5.5 -91.5q-2 -21 -15.5 -31.5t-30 -10t-29.5 11.5
t-13 34q-1 35 3.5 82.5t14.5 101t26 110t40 108.5z" />
    <glyph glyph-name="eight" unicode="8" horiz-adv-x="486" 
d="M243 443q32 3 50 23t20 44q0 11 -4.5 23.5t-14 23t-23.5 17t-32 5.5q-32 -2 -51.5 -19t-20.5 -50q0 -13 5 -25.5t15 -22.5t24 -15.5t32 -3.5zM348 258q-3 36 -29 63t-79 27q-21 0 -39.5 -7.5t-32.5 -20.5t-22.5 -29.5t-9.5 -34.5q-1 -15 5 -30.5t19 -28.5t33.5 -21.5
t49.5 -9.5q23 -1 42.5 7t33.5 21.5t22 30t7 33.5zM335 398q13 -6 29.5 -17.5t31.5 -29t25.5 -40.5t12.5 -53q1 -33 -11 -63.5t-37 -54t-63 -37.5t-88 -13q-39 1 -72 14t-56.5 35t-36.5 51.5t-13 63.5q0 24 7.5 46t20.5 40t30 32.5t36 23.5q-9 4 -21 14.5t-22.5 26.5
t-17 37.5t-5.5 48.5q1 28 15 51.5t36 40t50 26t57 9.5q33 0 61 -10t48 -28.5t31.5 -44.5t11.5 -57q0 -29 -7.5 -48.5t-17 -32.5t-19.5 -20t-16 -11z" />
    <glyph glyph-name="nine" unicode="9" horiz-adv-x="467" 
d="M416 447q-2 -42 -10 -90t-25 -95.5t-43.5 -90.5t-64.5 -75q-11 -10 -24 -11.5t-24.5 3.5t-19.5 14.5t-9 21.5q0 8 4 17t14 16q48 39 71 85.5t28 82.5q-21 -14 -45.5 -21.5t-70.5 -2.5q-32 4 -56.5 17.5t-42.5 33t-28.5 44.5t-12.5 53q-4 42 8 78t36.5 62t60 40.5
t77.5 14.5q45 0 78 -16.5t55.5 -44.5t33 -63.5t10.5 -72.5zM329 461q3 47 -23.5 73t-65.5 26q-26 1 -46 -7t-33.5 -22.5t-20 -33.5t-4.5 -41q4 -31 24.5 -52.5t49.5 -24.5q16 -2 36 2t37.5 14t30.5 26t15 40z" />
    <glyph glyph-name="colon" unicode=":" horiz-adv-x="383" 
d="M97 484q-4 28 3.5 48.5t22.5 33t34.5 18.5t39.5 6q26 0 45.5 -9t32 -23t18 -32t5.5 -37q-1 -38 -25.5 -68t-64.5 -33q-48 -3 -77 25.5t-34 70.5zM197 455q15 0 26 8.5t10 28.5q-1 11 -8.5 22t-28.5 11q-14 0 -23 -6.5t-9 -26.5q0 -16 8.5 -26t24.5 -11zM97 193
q-4 28 3.5 48.5t22.5 33t34.5 18.5t39.5 6q26 0 45.5 -9t32 -23.5t18 -32.5t5.5 -37t-7 -36.5t-18.5 -31t-28 -22t-36.5 -9.5q-24 -2 -43.5 5t-33.5 20t-22.5 31t-11.5 39zM197 163q15 0 26 9t10 29q-1 11 -8.5 22t-28.5 11q-14 0 -23 -6.5t-9 -26.5q0 -15 8.5 -26t24.5 -12
z" />
    <glyph glyph-name="semicolon" unicode=";" horiz-adv-x="383" 
d="M307 193q0 -23 -9 -46t-26 -40q-11 -34 -20 -64t-24 -63q-7 -14 -22 -16.5t-29 3.5t-22.5 19.5t-2.5 31.5q8 16 13 31l10 30q-40 7 -67 36.5t-27 73.5q0 14 5 33t17.5 37t34.5 31.5t56 15.5q23 1 43.5 -6.5t36 -21.5t24.5 -35.5t9 -49.5zM97 484q-4 28 3.5 48.5t22.5 33
t34.5 18.5t39.5 6q26 0 45.5 -9t32 -23t18 -32t5.5 -37q-1 -38 -25.5 -68t-64.5 -33q-48 -3 -77 25.5t-34 70.5zM232 196q0 9 -9.5 21t-26.5 12q-7 0 -14 -3.5t-12.5 -8.5t-8.5 -12t-1 -14q0 -20 13 -27.5t24 -7.5q16 0 25.5 12t9.5 28zM197 455q15 0 26 8.5t10 28.5
q-1 11 -8.5 22t-28.5 11q-14 0 -23 -6.5t-9 -26.5q0 -16 8.5 -26t24.5 -11z" />
    <glyph glyph-name="less" unicode="&#x3c;" horiz-adv-x="503" 
d="M204 334q41 -44 94 -79.5t108 -65.5q18 -10 21.5 -27t-3 -31.5t-20.5 -22t-32 1.5q-36 18 -65 37t-56 39t-53 41.5t-55 45.5q-16 12 -25.5 27.5t-8.5 35.5q2 16 14 32t26 30q16 16 33.5 32t40 36.5t53.5 46.5t75 62q15 12 31.5 9.5t27 -14t11.5 -27.5t-14 -31
q-31 -28 -59.5 -51t-54 -43.5t-48 -41t-41.5 -42.5z" />
    <glyph glyph-name="equal" unicode="=" horiz-adv-x="482" 
d="M378 408q-59 0 -125 1t-121 -1q-23 -1 -34 10.5t-13 27.5q-2 15 6 27.5t27 14.5q27 3 61.5 4.5t70 1.5t69 -2t57.5 -5q20 -1 30 -11.5t11 -24.5q2 -18 -7 -31t-32 -12zM362 209h-93h-61.5t-40 -0.5t-28.5 -1.5q-26 -2 -39 10.5t-14 28.5t8 28.5t26 14.5q27 3 58.5 4
t64 1.5t65 0t61.5 -1.5q20 -1 28 -15.5t6 -31.5q-2 -14 -12.5 -25.5t-28.5 -11.5z" />
    <glyph glyph-name="greater" unicode="&#x3e;" horiz-adv-x="503" 
d="M325 359q-39 37 -90.5 74t-99.5 75q-16 13 -16.5 30t8.5 30.5t24 18.5t32 -7q32 -24 57 -43t47.5 -37t46 -37t52.5 -43q16 -12 25.5 -27.5t7.5 -35.5q-2 -16 -13.5 -32t-25.5 -30q-17 -16 -34.5 -32t-40.5 -36t-54.5 -46t-75.5 -62q-15 -12 -31 -9.5t-26 13.5t-10.5 27
t14.5 31q31 28 59.5 51t54 43.5t48 40.5t41.5 43z" />
    <glyph glyph-name="question" unicode="?" horiz-adv-x="581" 
d="M280 78q19 3 33.5 -1.5t24.5 -13.5t15.5 -21t6.5 -24q5 -27 -14 -45t-49 -24q-29 -5 -52.5 4t-30.5 41q-2 13 2.5 27t13.5 26.5t22 21t28 9.5zM181 575q-12 -21 -32 -24.5t-32 4.5q-11 8 -17.5 20t-1.5 30q4 21 18 41.5t36.5 37t53 27t68.5 10.5q34 0 70.5 -7.5t66.5 -28
t48.5 -57.5t17.5 -95q-1 -35 -12.5 -62t-30 -48.5t-40.5 -38.5t-44 -32q-19 -14 -23 -30.5t-2 -36.5q2 -18 2.5 -35.5t0.5 -34.5q0 -15 -13 -25.5t-30 -12.5t-32.5 5t-20.5 27q-5 17 -6.5 46t-1.5 55q0 37 13.5 57t38.5 36q29 19 48.5 36t31.5 33.5t17 33t5 34.5
q0 14 -3.5 30t-14 30t-29.5 23t-50 9q-16 0 -31.5 -6t-29 -15t-23.5 -19t-16 -17z" />
    <glyph glyph-name="at" unicode="@" horiz-adv-x="720" 
d="M523 409q5 -21 -2 -36l-3 -18q0 -23 -1 -47.5t14 -46.5q43 22 58.5 68.5t5.5 103.5q-5 27 -19 53.5t-37 47t-56 33t-76 12.5q-63 0 -119 -15.5t-96.5 -50.5t-63 -91.5t-17.5 -138.5q2 -33 14 -65.5t32.5 -59t49.5 -45t65 -22.5q45 -5 78.5 2.5t62.5 32.5q10 10 22.5 11.5
t23 -4t17 -17.5t6.5 -29q-5 -21 -25.5 -36t-49 -24.5t-62 -14t-65.5 -4.5q-60 0 -105.5 25t-77 65t-49 89.5t-20.5 99.5q-5 84 21.5 152.5t76 116.5t118 73.5t146.5 25.5q59 0 110.5 -17t90.5 -49t63 -78.5t27 -104.5q6 -74 -20 -122.5t-74 -87.5q-17 -14 -32 -19.5
t-29 -4.5q-31 2 -52 23t-32 56l-2 -2q-29 -26 -63.5 -40t-72.5 -13q-21 0 -41.5 8t-36.5 23.5t-25 38.5t-7 54q1 39 16.5 72t39.5 56t55 36t65 13q24 0 47 -4.5t43.5 -14.5t37 -27t25.5 -42zM321 277q54 1 79 30t36 86q-11 14 -26.5 18t-33.5 4q-16 0 -33 -4.5t-31 -15
t-23.5 -27t-10.5 -40.5q0 -51 43 -51z" />
    <glyph glyph-name="A" unicode="A" horiz-adv-x="558" 
d="M253 626q54 0 91 -17t63 -48t43 -73.5t29 -93.5q11 -42 15 -99.5t2 -123.5q-1 -15 -13.5 -22t-28.5 -8q-17 -1 -31 6.5t-14 23.5q-1 25 -1.5 43t-0.5 31.5v25.5t-1 26q-22 -9 -57.5 -12.5t-72 -4t-68 1t-45.5 3.5q1 -15 2 -28t2.5 -26.5t4 -29t7.5 -36.5q5 -20 -7.5 -32
t-29.5 -14t-31.5 5t-18.5 24q-5 28 -8.5 51t-6 46.5t-4.5 48.5t-5 57q-3 43 3.5 91t27.5 89t58 68t96 27zM153 361q22 -3 52.5 -4.5t62.5 0t64.5 6t59.5 12.5q-5 27 -13 57.5t-22 56.5t-36.5 43t-55.5 17q-38 0 -60.5 -19t-34 -47.5t-14.5 -61t-3 -60.5z" />
    <glyph glyph-name="B" unicode="B" horiz-adv-x="574" 
d="M252 569q-14 0 -27.5 -2t-24.5 -8t-18.5 -17t-8.5 -29q-2 -23 -2.5 -56.5t-0.5 -61.5h65.5t46 0.5t33 2t26.5 3.5q29 5 43.5 24t13.5 45q-2 55 -42.5 77t-103.5 22zM170 311q1 -8 1 -22.5t0.5 -30l1 -31t2.5 -24.5q2 -19 11.5 -25.5t23.5 -9.5t35.5 -5.5t46.5 -1.5
q22 0 44.5 3.5t40.5 11.5t29 21.5t11 34.5q0 29 -20 53t-64 26h-163zM91 545q2 33 16 54.5t36 34t51.5 17.5t63.5 5q42 0 84 -10t75 -32t53.5 -56.5t20.5 -83.5q0 -42 -18.5 -72.5t-51.5 -45.5q11 -2 26 -10t29 -23t24 -37.5t11 -51.5q0 -45 -18.5 -75t-49 -48t-69.5 -25.5
t-80 -8.5q-38 -1 -74.5 3t-65.5 10q-32 7 -44 29t-17 47q-4 26 -7.5 65t-5 87.5t0.5 106t10 120.5z" />
    <glyph glyph-name="C" unicode="C" horiz-adv-x="467" 
d="M308 111q-56 -3 -102 13t-79 47.5t-51 77.5t-18 105q1 47 17 87t45 69.5t70 46t92 16.5q44 0 68 -8.5t39 -18.5q11 -7 15.5 -15.5t6.5 -16.5q2 -13 -3 -25t-14 -20.5t-20.5 -10.5t-22.5 5q-16 11 -29.5 15.5t-34.5 4.5q-37 0 -62 -11.5t-41 -31t-23 -44.5t-8 -52
q0 -69 36 -105t114 -36q21 0 41.5 5.5t52.5 19.5q15 10 28 3.5t20.5 -20.5t5.5 -31t-17 -27q-24 -20 -59.5 -30.5t-66.5 -11.5z" />
    <glyph glyph-name="D" unicode="D" horiz-adv-x="596" 
d="M96 196q-3 20 -4 59t-1 85t2.5 94t7.5 86q5 39 24.5 60.5t52.5 28.5q10 1 28 2q14 1 37.5 2t55.5 1q49 -1 93 -17t77 -48t52.5 -79t19.5 -109q0 -90 -34.5 -145t-86.5 -83.5t-112 -37t-112 -5.5q-24 1 -41.5 5.5t-29.5 16t-19 32t-10 52.5zM182 210q2 -13 7.5 -20.5
t19.5 -9.5q36 -6 78 -1t78 25t60.5 58t24.5 99q0 87 -44 125t-120 39h-20h-12.5t-12 -1t-18.5 -3q-15 -2 -26 -10t-13 -28q-3 -32 -5 -67.5t-2.5 -71.5t1 -70.5t4.5 -63.5z" />
    <glyph glyph-name="E" unicode="E" horiz-adv-x="461" 
d="M397 118q-34 -7 -68 -11q-30 -4 -65.5 -7t-69.5 -1q-43 1 -73 22t-41 75q-6 34 -8.5 77.5t-2 86.5t5 82t11.5 65q6 24 14.5 40.5t21.5 27t32 16.5t47 9q25 2 42 3t31.5 1t28 -1t31.5 -2q23 -3 34 -17t9 -28t-12.5 -23.5t-30.5 -8.5q-23 1 -38.5 1.5t-28 0t-24 -1.5
t-24.5 -2q-20 -2 -34.5 -11.5t-21.5 -40.5q-5 -17 -5.5 -43t-0.5 -49q15 1 38 2.5t50 1.5t56.5 -1t56.5 -4q17 -2 23.5 -13t4.5 -25q-2 -15 -10.5 -27t-22.5 -11q-33 0 -58 0.5t-47.5 0.5t-44.5 -1t-49 -4q0 -20 1.5 -46.5t8.5 -46.5q5 -13 18 -17t42 -6q20 -1 49 1.5
t56 4.5q32 3 66 7q18 3 29 -8t13 -27q0 -12 -9.5 -25t-30.5 -16z" />
    <glyph glyph-name="F" unicode="F" horiz-adv-x="482" 
d="M191 605q36 7 63 9t49 2t39.5 -1t33.5 -2q19 -1 29 -11.5t11 -22.5q2 -17 -8 -32t-32 -14q-26 1 -44 1t-32.5 -0.5t-28 -2t-30.5 -3.5q-39 -5 -54.5 -25.5t-15.5 -70.5q-1 -11 -2 -32t1 -46q13 1 45 5t68 7.5t70.5 5t54.5 -0.5t29 -14t9 -26q0 -17 -10 -30.5t-30 -13.5
q-36 0 -70.5 -2t-65 -5t-55.5 -7t-41 -7q0 -18 0.5 -30t1 -25.5t2 -33t3.5 -52.5q2 -24 -14.5 -35t-33.5 -10q-14 1 -24.5 9t-12.5 23q-3 31 -5.5 61t-4.5 61.5t-3.5 66t-2.5 75.5q-2 45 1 84t14 69t34 50t62 26z" />
    <glyph glyph-name="G" unicode="G" horiz-adv-x="648" 
d="M371 196q20 8 34 -0.5t19 -22.5q7 -17 -1 -37t-33 -28q-21 -6 -48.5 -11t-52.5 -5q-50 0 -92.5 19t-73 52.5t-47.5 79t-17 97.5q0 57 17 111t51 96t86 67.5t121 25.5q16 0 35 -2t37 -6t33.5 -10t24.5 -15q14 -13 16.5 -29.5t-5.5 -28.5q-11 -15 -30.5 -19t-39.5 10
q-4 3 -13.5 5.5t-21 4t-23.5 2.5t-20 0q-42 -3 -75 -20.5t-55.5 -46t-34 -66.5t-9.5 -81q1 -29 7.5 -55t21 -46.5t36 -34t52.5 -17.5q29 -4 56.5 1t44.5 10zM481 96q-8 18 -12.5 44t-6.5 53.5t-3 55t-2 48.5q-21 0 -42 -1t-43 1q-22 1 -33 16t-11 32t10 30t33 12
q62 -3 117 -0.5t118 13.5q20 3 30.5 -8t13.5 -25q3 -17 -4 -31.5t-25 -17.5q-12 -2 -19 -3.5l-14 -3t-16.5 -2t-24.5 -1.5q0 -38 3.5 -88t14.5 -98q5 -17 -6 -31.5t-28 -18.5q-15 -4 -29.5 3t-20.5 21z" />
    <glyph glyph-name="H" unicode="H" horiz-adv-x="630" 
d="M547 131q-5 -20 -19.5 -29.5t-30.5 -7.5q-15 2 -27 12t-12 38v25.5t0.5 35.5t0.5 38.5v34.5q-23 1 -61.5 1.5t-80 0t-80 -3t-60.5 -6.5q2 -50 0.5 -80.5t2.5 -58.5q2 -21 -14 -33t-32 -14q-37 -3 -43 45q-2 31 -3.5 86.5t-1 120t2.5 128.5t7 112q2 21 16.5 31.5t31.5 9.5
t30 -13t10 -36q-2 -14 -3 -42t-2 -59t-1.5 -60t-0.5 -44q27 3 69 5.5t84 3.5t78 0t51 -5q0 16 -1.5 45.5t-3.5 62t-3.5 63.5t-2.5 51q-2 23 12.5 35.5t31.5 12.5q16 0 29.5 -10.5t17.5 -32.5q2 -14 4.5 -46.5t4 -75t2.5 -91.5t1.5 -95.5t-1 -87.5t-3.5 -67z" />
    <glyph glyph-name="I" unicode="I" horiz-adv-x="392" 
d="M149 174q2 16 3 43t2 59.5t1 68.5v70t-0.5 63.5t-1.5 49.5h-30t-32 -2q-20 -2 -30 11.5t-11 29.5q-1 14 7.5 26.5t25.5 16.5q16 3 47 4t66.5 1t68.5 -1.5t54 -5.5q17 -3 24.5 -15t7.5 -27q0 -17 -11 -30.5t-31 -11.5q-25 3 -38.5 3.5t-35.5 0.5q3 -29 4 -77.5t0.5 -101
t-2.5 -100t-4 -73.5q9 0 25.5 -0.5t33.5 -1t32.5 -1t23.5 -1.5q17 -2 25.5 -15.5t8.5 -28.5q0 -17 -10 -30.5t-29 -11.5q-23 2 -54 3t-63 1t-62 -1t-51 -3q-23 -2 -34.5 10t-13.5 27q-2 17 7.5 31t29.5 16q8 2 23.5 3t23.5 1z" />
    <glyph glyph-name="J" unicode="J" horiz-adv-x="504" 
d="M201 548q-23 -2 -34.5 11t-13.5 30t7.5 32.5t27.5 19.5q32 4 71 5.5t76.5 1t68.5 -2.5t46 -3q20 -3 27 -17.5t5 -31.5t-12 -28.5t-27 -9.5q-16 1 -23 2t-12.5 1.5t-13 1t-24.5 1.5q5 -36 10 -80t7.5 -89t2 -87.5t-5.5 -75.5q-14 -100 -62 -142.5t-142 -32.5
q-65 6 -100 39t-43 76q-2 19 -1.5 41.5t8.5 39.5q8 19 23 25t30 3q11 -3 19.5 -12t6.5 -22q-1 -8 -1 -22.5t2 -26.5q1 -9 5.5 -17.5t13 -16t23 -12t36.5 -5.5q27 -1 43.5 6.5t26 21.5t14 33t7.5 42q5 25 5 66.5t-3 86t-7.5 86.5t-9.5 69q-23 1 -44.5 -2.5t-32.5 -4.5z" />
    <glyph glyph-name="K" unicode="K" horiz-adv-x="540" 
d="M480 502q-46 -38 -93.5 -76.5t-96.5 -76.5q16 -25 40 -51t51.5 -53t57 -54.5t58.5 -55.5q13 -14 12 -30.5t-11.5 -28.5t-28 -15t-35.5 11q-19 14 -46 39.5t-56 56t-58.5 64.5t-54.5 66q-11 -10 -26.5 -18.5t-20.5 -10.5q1 -24 1.5 -41t1 -34.5t2 -39t3.5 -55.5
q1 -20 -11.5 -31.5t-28.5 -13.5t-30 7t-17 31q-6 68 -8.5 135.5t-2.5 131t2 120.5t4 104q1 22 16.5 32t33.5 9.5t32.5 -12t12.5 -31.5q-6 -58 -5 -107t-2 -91q20 13 51 35t65.5 48t70 53t64.5 51q18 10 33.5 6.5t24 -15t8.5 -28t-13 -31.5z" />
    <glyph glyph-name="L" unicode="L" horiz-adv-x="454" 
d="M424 96q-32 -6 -58.5 -10t-53.5 -5.5t-57.5 -1t-70.5 1.5q-37 1 -56 9.5t-27.5 21t-10.5 27t-3 27.5q-2 15 -3 45t-1.5 67.5t0 78.5t1 78.5t2 67.5t3.5 45q3 24 19 33t33.5 7t30.5 -13.5t11 -30.5q-2 -18 -3.5 -47t-3 -63t-2 -70t0 -69t1.5 -59t4 -39q3 -15 9 -22.5
t34 -7.5t50.5 0.5t43 2t41.5 4t46 6.5q21 4 33.5 -7.5t16 -27.5t-3.5 -31t-26 -18z" />
    <glyph glyph-name="M" unicode="M" horiz-adv-x="723" 
d="M170 144q-1 -20 -13 -28.5t-26 -10.5q-16 -2 -30 7t-16 33q-2 25 -3 62t-1 78.5t0.5 83.5t1 77.5t0.5 60t-1 31.5q5 23 25.5 32.5t43.5 2.5q13 -6 36 -31.5t51 -59t57.5 -69t54.5 -62.5q34 22 65 57.5t54 68.5q14 20 24.5 41t27.5 38q16 14 35 15.5t28 -12.5
q9 -11 16.5 -43t13 -74.5t9 -90.5t6 -90t3.5 -73.5t1 -41.5q-1 -21 -14.5 -31.5t-27.5 -12.5t-28 7.5t-16 32.5q0 28 -1.5 63t-4 71.5t-6 73t-7.5 68.5q-25 -35 -59.5 -74t-71.5 -69q-10 -8 -20 -15t-21 -10t-22 0t-23 14q-18 18 -34.5 39.5t-33.5 43.5t-34.5 42.5
t-37.5 37.5q0 -32 -1.5 -68.5t-2 -73.5t-0.5 -73t3 -68z" />
    <glyph glyph-name="N" unicode="N" horiz-adv-x="652" 
d="M65 516q2 28 16 37.5t46 10.5q11 -2 19.5 -6.5t16.5 -11.5q1 -2 16 -20.5t39 -47.5t54.5 -66t64 -75.5t66.5 -75t62 -65.5q7 43 10 87t3.5 89t0 89.5t0.5 87.5q-2 20 12 30t31 10q16 0 28.5 -9.5t13.5 -26.5q1 -102 1 -171t-2 -117t-8 -81.5t-17 -64.5q-5 -12 -17 -20
t-25 -9q-14 -1 -29.5 6.5t-32.5 18.5q-58 54 -100.5 99.5t-75.5 83.5t-58.5 69.5t-49.5 57.5q-1 -69 -0.5 -144t3.5 -150q0 -22 -12.5 -33.5t-27.5 -12.5t-28.5 9.5t-16.5 32.5v1q-5 95 -4 196t1 192z" />
    <glyph glyph-name="O" unicode="O" horiz-adv-x="535" 
d="M66 301q-2 40 9.5 81.5t34.5 77.5t59 62t84 34q45 6 85.5 -7.5t71.5 -41t50.5 -66t22.5 -81.5q3 -48 -15 -89t-49.5 -70.5t-74 -46t-88.5 -16.5q-40 3 -73.5 15.5t-58.5 34t-40 50t-18 63.5zM396 358q-2 44 -32 75.5t-90 31.5q-21 0 -41 -12.5t-36 -32t-25.5 -42
t-10.5 -41.5q-2 -50 24 -78.5t81 -25.5q34 2 68 19t52 52q7 13 8.5 26t1.5 28z" />
    <glyph glyph-name="P" unicode="P" horiz-adv-x="529" 
d="M81 534q4 24 23.5 39t45.5 23t54 11t50 2q21 -1 44.5 -5t43.5 -14q30 -14 57 -36t46.5 -50t31 -60t11.5 -67q0 -77 -45.5 -127t-126.5 -57q-35 -2 -75.5 0.5t-72.5 19.5l-3 -188q-1 -22 -13.5 -33.5t-27.5 -12t-28 10t-16 32.5q0 103 1 177.5t2 127.5t1.5 87t0.5 57
t-1 37t-3 26zM168 311q6 -7 20.5 -14t33 -12t39.5 -8.5t39 -3.5q8 0 25 3.5t33.5 14.5t29.5 31.5t14 55.5q0 26 -10.5 51.5t-30 46t-45.5 34t-57 15.5q-20 1 -43.5 -4t-45.5 -16q1 -29 -0.5 -58.5t-1.5 -59.5v-76z" />
    <glyph glyph-name="Q" unicode="Q" horiz-adv-x="601" 
d="M60 343q-1 54 14.5 101.5t46 82t75 54t102.5 17.5q54 -2 99 -21t76.5 -52t48 -77.5t12.5 -96.5q-4 -60 -29 -114t-73 -87q5 -14 10.5 -27t13.5 -26q5 -21 -3 -36t-21.5 -20.5t-29.5 -0.5t-26 25q-14 27 -24 52q-11 -3 -22.5 -4t-22.5 -1q-61 0 -107 17.5t-76.5 48
t-46.5 73t-17 92.5zM288 304q-2 22 8.5 35.5t25.5 17t29.5 -5t20.5 -29.5l28 -89q20 20 31.5 48.5t16.5 63.5q6 39 -5.5 70t-32.5 52.5t-48.5 33t-54.5 11.5q-41 0 -70.5 -13.5t-49 -35t-29 -49t-9.5 -55.5q0 -43 11 -72.5t30.5 -48.5t46.5 -28.5t60 -11.5q11 -2 22 0
q-8 26 -16.5 53t-14.5 53z" />
    <glyph glyph-name="R" unicode="R" horiz-adv-x="535" 
d="M468 440q-3 -67 -38.5 -109t-92.5 -60q38 -34 76 -70.5t62 -78.5q9 -17 4 -31t-17.5 -21.5t-29 -6t-30.5 15.5q-14 25 -35 48.5t-44.5 45.5t-48 43t-45.5 41q-24 0 -46 3q0 -29 -0.5 -72.5t1.5 -84.5q1 -20 -12 -30.5t-29.5 -11.5t-30.5 7.5t-15 27.5q-4 56 -6 116.5
t-2.5 119t0.5 112t4 94.5q0 7 3 20t11 25.5t22 22t37 9.5q38 1 70 3t60 0t54 -9.5t52 -26.5q37 -26 52.5 -63t13.5 -79zM379 443q-1 22 -10 46.5t-30 34.5q-15 7 -33 10.5t-35 4.5t-32.5 0t-24.5 -2q-16 -3 -24 -8.5t-11 -13.5t-3 -18t-1 -22q-3 -29 -3.5 -62t3.5 -68
q31 -1 65.5 -2.5t64.5 6t50.5 28.5t23.5 66z" />
    <glyph glyph-name="S" unicode="S" horiz-adv-x="547" 
d="M256 301q-77 12 -121 51t-46 94q-2 28 6 60.5t27.5 60t52 46.5t80.5 21q58 2 97.5 -12t75.5 -35q19 -12 21 -29.5t-5.5 -31t-22.5 -19.5t-31 3q-28 18 -64.5 28t-72.5 8q-15 -2 -29.5 -9t-25.5 -18.5t-17 -27t-4 -33.5q2 -15 7 -27t21 -22.5t47 -21t87 -22.5
q39 -9 65.5 -24.5t41 -37t19 -47t0.5 -53.5q-4 -35 -24 -60.5t-50 -40.5t-68.5 -19.5t-79.5 1.5q-54 8 -85.5 34.5t-39.5 66.5q-3 16 6.5 28.5t24 18t29.5 2t21 -21.5q8 -16 21.5 -31.5t34.5 -17.5q50 -6 84 5t39 44q1 12 -2.5 25t-16.5 25t-37.5 22t-65.5 17z" />
    <glyph glyph-name="T" unicode="T" horiz-adv-x="495" 
d="M457 596q19 -2 28 -16t7 -29.5t-14.5 -28t-35.5 -10.5q-21 2 -36.5 3t-30 1.5t-30.5 0.5h-39q2 -39 4 -92.5t3 -109.5t-0.5 -108t-6.5 -88q-6 -20 -22.5 -28t-33.5 -5.5t-29 14.5t-8 33q7 40 7.5 89.5t-1.5 101.5t-5.5 102t-4.5 91q-21 0 -39.5 -1t-36 -2.5t-36 -2.5
t-40.5 -1q-17 0 -26.5 12.5t-11 28t5 28.5t21.5 15q43 3 96 6t108 4t108.5 -0.5t98.5 -7.5z" />
    <glyph glyph-name="U" unicode="U" horiz-adv-x="572" 
d="M303 86q-71 -2 -111.5 18.5t-62.5 52t-30 66.5t-13 62q-8 46 -6.5 109t12.5 128q3 16 12.5 24t22.5 10q10 2 20 0.5t17.5 -7.5t11.5 -16t2 -24q-9 -68 -8 -120t3 -91q1 -21 9 -43t22.5 -40t36.5 -29t51 -11q39 2 63 14.5t38.5 32t20 42.5t7.5 46q1 22 0 51.5t-3.5 60.5
t-6.5 61t-9 54q-4 18 5 28.5t22 14.5q16 4 32.5 -3.5t21.5 -24.5q8 -26 14 -62.5t8.5 -76t1.5 -80t-6 -74.5q-8 -48 -25 -80t-42.5 -52.5t-58.5 -30t-72 -10.5z" />
    <glyph glyph-name="V" unicode="V" horiz-adv-x="544" 
d="M41 519q-9 21 0.5 36t26 20.5t34 0t25.5 -24.5q20 -53 36 -95t31 -78t30.5 -68.5t35.5 -65.5q9 -14 15.5 -17.5t11.5 -2t8.5 6.5t5.5 9q21 34 37 65t29.5 65t27 74.5t28.5 93.5q6 19 22.5 27.5t33.5 6t28.5 -16.5t5.5 -41q-21 -103 -59.5 -186t-80.5 -150
q-24 -38 -45.5 -58t-43.5 -20t-46 23t-53 72q-25 42 -42.5 79t-33 74.5t-31.5 79t-37 91.5z" />
    <glyph glyph-name="W" unicode="W" horiz-adv-x="611" 
d="M41 497q1 20 13.5 30.5t27.5 12.5q17 2 31 -7.5t13 -27.5q1 -37 2.5 -79.5t5 -84.5t10 -81t16.5 -69q11 13 22.5 30.5t22.5 35.5t21.5 35.5t19.5 31.5q6 9 10 20.5t8.5 21t13 16t23.5 6.5q34 0 44 -37q5 -16 6.5 -30t4.5 -31q11 -30 25.5 -63t29.5 -60q25 54 43.5 142
t32.5 190q2 20 15 29.5t28 8.5q17 -1 30 -13.5t11 -35.5q-12 -101 -32.5 -199.5t-67.5 -191.5q-21 -39 -58 -41q-19 -2 -34.5 11t-27.5 31.5t-21.5 38t-15.5 31.5q-8 16 -15 30.5t-12 31.5q-11 -17 -24 -37t-27 -39.5t-29 -37t-29 -29.5q-21 -11 -36 -8q-12 2 -23 10t-16 22
q-18 42 -30 89t-19 97t-10 100.5t-3 99.5z" />
    <glyph glyph-name="X" unicode="X" horiz-adv-x="551" 
d="M437 568q15 12 30.5 12.5t26 -7t14.5 -22t-3 -32.5q-38 -55 -81.5 -114.5t-90.5 -119.5q41 -45 78.5 -82.5t63.5 -62.5q11 -15 10 -30.5t-9.5 -26t-23.5 -14t-32 5.5q-27 26 -63.5 63t-77.5 79q-34 -42 -67.5 -80.5t-66.5 -73.5q-17 -10 -32 -8t-24.5 11.5t-11.5 24.5
t7 32q33 35 68 75t70 83q-58 67 -98 126t-64 109q-6 18 -1.5 32.5t15.5 21.5q12 8 30 6t29 -19q29 -50 61.5 -102t81.5 -106q44 56 84 112t77 107z" />
    <glyph glyph-name="Y" unicode="Y" horiz-adv-x="568" 
d="M455 598q15 12 30.5 13t26 -7t14.5 -22.5t-3 -32.5q-23 -38 -48.5 -81t-53.5 -85.5t-57.5 -82.5t-59.5 -73q0 -42 -0.5 -89.5t-0.5 -89.5q-1 -22 -13 -34t-27 -12.5t-28.5 10t-16.5 32.5q0 45 0.5 94.5t0.5 94.5q-24 18 -54 53.5t-58 78t-50 85.5t-29 75q-2 22 8.5 35.5
t25.5 17t29.5 -5t19.5 -29.5q5 -29 22 -60t39.5 -61.5t47 -59t44.5 -52.5q25 31 51 67.5t51 74.5t47.5 75.5t41.5 70.5z" />
    <glyph glyph-name="Z" unicode="Z" horiz-adv-x="574" 
d="M91 491q-20 -3 -32 9.5t-13.5 28.5t7 30t28.5 16t38 3.5t44.5 3t66 2.5t102.5 1q33 0 57.5 -8t38 -24t14 -40.5t-16.5 -57.5q-15 -29 -42.5 -68.5t-60 -80.5t-67 -78t-62.5 -62q63 -4 133 -3.5t139 4.5q23 1 35.5 -9.5t14.5 -24.5t-7.5 -28t-31.5 -19q-67 -8 -141.5 -6.5
t-136.5 2.5q-48 0 -79.5 7.5t-42.5 24t0.5 42.5t50.5 64q15 15 45.5 46.5t64 71t65.5 82t50 80.5h-57.5t-70 -0.5t-72 -2.5t-61.5 -6z" />
    <glyph glyph-name="bracketleft" unicode="[" horiz-adv-x="451" 
d="M360 54q-21 -6 -44.5 -9.5t-46 -5.5t-42.5 -2.5t-33 0.5q-28 1 -46.5 7.5t-30 19t-17.5 33.5t-9 51q-2 27 -4 78.5t-3.5 111.5t-1 120t2.5 102q1 25 9.5 41.5t20 26.5t25.5 14.5t27 5.5q26 2 46.5 2.5t39.5 0t40 -2.5t48 -4q22 -2 31 -16t7.5 -30t-13 -28t-31.5 -10
q-22 1 -38 2.5t-29 2t-25 0.5t-27 -1q-12 -1 -20.5 -2.5t-13.5 -6t-7.5 -14.5t-3.5 -27q-2 -28 -1 -77t2.5 -102.5t3.5 -103t4 -78.5q2 -18 9 -26t27 -8q31 0 58.5 3t68.5 9q19 3 31.5 -6.5t16 -23.5t-3.5 -28t-27 -19z" />
    <glyph glyph-name="backslash" unicode="\" horiz-adv-x="699" 
d="M103 502q4 18 15.5 28t25.5 11t26.5 -8t17.5 -28q0 -27 -0.5 -55.5t-1.5 -57.5q38 2 73.5 4t57.5 3q2 10 5 18.5t7 18.5q13 11 24 13t27 -3q2 0 3 -1q11 -7 16 -14t8 -18l4 -13l129 -2q3 24 5 49.5t3 51.5q1 21 15 30t29.5 7.5t28.5 -14t12 -34.5q-2 -25 -3.5 -48
t-3.5 -45l38 -3q18 -3 25 -16t4.5 -28t-13 -27t-25.5 -11q-8 1 -19.5 1t-25.5 1q-5 -23 -12.5 -46t-15.5 -48q-7 -19 -15.5 -46t-21 -52.5t-30 -44t-41.5 -19.5q-32 -2 -53.5 24.5t-35.5 63.5t-22 74.5t-12 57.5q-12 -42 -25.5 -72t-28 -52.5t-29 -37.5t-28.5 -27
q-21 -11 -37 -8q-15 3 -26.5 16t-20 30.5t-14.5 34.5t-10 28q-18 58 -24 110q-15 -2 -26 -2.5t-14 -0.5q-20 -5 -32 7t-15.5 28t3.5 31t26 18q8 1 22 2.5t31 3.5q-1 27 -0.5 56t0.5 61zM424 312q6 -35 15 -71t32 -74q18 28 31 64.5t23 80.5h-101zM189 303q3 -31 11 -59
t22 -53q23 26 38.5 56t27.5 62z" />
    <glyph glyph-name="bracketright" unicode="]" horiz-adv-x="451" 
d="M107 60q-21 3 -29 16.5t-6 28t14 25t31 9.5q41 -4 68.5 -5t58.5 2q20 2 31.5 11t13.5 27q1 28 2.5 74.5t2 96t0 95.5t-1.5 74q-1 17 -3.5 27t-7.5 14.5t-13.5 6t-20.5 2.5q-29 2 -61.5 1.5t-77.5 -3.5q-20 -2 -31.5 10.5t-13 28.5t7.5 29.5t31 15.5q27 2 51 3.5t47.5 2
t46.5 -0.5t49 -3q13 -1 27 -5.5t25.5 -14.5t19.5 -26.5t10 -41.5q2 -42 3 -98.5t1 -113t-1.5 -105t-3.5 -75.5q-2 -30 -8 -50t-18 -32.5t-31 -19t-46 -9.5q-13 -2 -33 -3.5t-42.5 -1.5t-46.5 2t-45 6z" />
    <glyph glyph-name="asciicircum" unicode="^" horiz-adv-x="533" 
d="M435 590q9 -20 2.5 -36t-21 -23t-31 -3t-26.5 25q-6 12 -18 30.5t-25.5 35.5t-25.5 29.5t-19 12.5q-9 0 -22.5 -12t-26 -29t-23.5 -35.5t-16 -30.5q-8 -19 -24.5 -23t-32 2t-25 20.5t-2.5 32.5q8 23 25.5 52.5t41 55.5t50.5 44t54 18t53 -20t48 -47t39 -55t25 -44z" />
    <glyph glyph-name="underscore" unicode="_" horiz-adv-x="497" 
d="M109 -75q21 -2 56 -3t74 -1t76.5 1.5t64.5 5.5q20 4 33 -7.5t17 -28t-3.5 -32t-27.5 -19.5q-27 -5 -68.5 -7t-85 -2t-82.5 2t-61 5q-19 3 -26 17t-4.5 30t12.5 28t25 11z" />
    <glyph glyph-name="grave" unicode="`" horiz-adv-x="328" 
d="M255 613q6 -12 3.5 -23t-11 -19t-20 -12t-22.5 -2q-8 2 -14 5.5t-11 11.5q-14 29 -41 61.5t-58 61.5q-10 10 -10.5 22t5.5 22t17 17t23 9q9 2 18.5 -1t16.5 -11q29 -29 57.5 -66.5t46.5 -75.5z" />
    <glyph glyph-name="a" unicode="a" horiz-adv-x="503" 
d="M307 306q-9 32 -21.5 44t-38.5 14q-17 2 -33.5 -4t-30 -18t-22 -30t-8.5 -40q0 -15 3 -30t11 -26t21.5 -17.5t33.5 -6.5q27 0 45 12.5t28.5 30t13 37t-1.5 34.5zM390 327q3 -13 8 -30.5t12.5 -35.5t18.5 -34t26 -25q13 -12 12 -27.5t-11 -26.5t-25.5 -14.5t-30.5 8.5
q-17 9 -26 20t-20 26q-2 -5 -8 -17t-19.5 -25.5t-37 -25t-60.5 -14.5q-29 -3 -57.5 7.5t-51.5 31t-37 50t-13 64.5q1 51 16 86.5t39 57.5t55 32.5t63 11.5q49 3 89.5 -24.5t57.5 -95.5z" />
    <glyph glyph-name="b" unicode="b" horiz-adv-x="527" 
d="M186 189q19 -11 44.5 -15.5t51.5 0.5q51 10 80 40t31 79q2 38 -25.5 58t-69.5 16q-25 -2 -47.5 -17.5t-38 -40t-23 -55.5t-3.5 -65zM107 125q-7 39 -9.5 94t-3 118t-1 128t-3.5 124q-2 22 11 33.5t29 11.5q17 1 31.5 -9t16.5 -33q3 -29 4 -55t1.5 -50t0 -48t-1.5 -49
q12 21 42.5 41.5t75.5 22.5q91 4 135.5 -40.5t43.5 -118.5q-2 -41 -14.5 -77t-36 -63.5t-59 -45t-81.5 -21.5q-27 -2 -54.5 1t-51.5 9t-43.5 13.5t-31.5 13.5z" />
    <glyph glyph-name="c" unicode="c" horiz-adv-x="426" 
d="M388 178q-16 -26 -40.5 -43t-53 -26t-59 -10.5t-59.5 5.5q-63 13 -98.5 58t-26.5 127q4 39 22 71.5t45 56t60.5 36t68.5 12.5q29 0 54.5 -5t51.5 -22q17 -12 19 -32t-9 -34q-9 -13 -24.5 -17.5t-32.5 7.5q-13 9 -29 12t-32 3q-20 0 -38 -7t-32.5 -20.5t-24 -32
t-11.5 -41.5q-5 -40 9 -59t46 -27q15 -3 32.5 -3t34.5 4.5t32.5 12.5t27.5 22q13 15 28.5 14.5t27.5 -10t16.5 -24t-5.5 -28.5z" />
    <glyph glyph-name="d" unicode="d" horiz-adv-x="540" 
d="M247 375q-20 0 -37 -8t-29 -21t-19 -30.5t-6 -36.5q3 -51 34 -76t76 -27q10 0 24 1.5t28.5 4t28 6t22.5 8.5q3 26 -2.5 57t-20 58t-39 45t-60.5 19zM455 123q-12 -5 -35 -11t-51 -11t-58 -7.5t-54 -1.5q-39 2 -73 16t-59 38t-39.5 58.5t-15.5 76.5q-1 36 9 69t32 57.5
t55.5 39t80.5 14.5q33 0 56.5 -9t38.5 -20.5t23 -22t11 -14.5q3 62 2.5 114t7.5 104q3 16 17.5 23t30 4.5t28 -13t10.5 -29.5z" />
    <glyph glyph-name="e" unicode="e" horiz-adv-x="415" 
d="M369 357q1 -37 -15.5 -61.5t-42 -39t-56.5 -20.5t-59 -4q-25 2 -46 8q0 -5 4 -13.5t11.5 -17t18 -16t22.5 -10.5q36 -9 61.5 -3.5t48.5 21.5q15 12 28 7t20.5 -17.5t7 -27.5t-11.5 -24q-37 -31 -84.5 -39.5t-100.5 8.5q-35 10 -57.5 32t-35 49t-17.5 55.5t-5 51.5
q0 78 40 124.5t112 54.5q30 3 58 -2.5t50 -20t35 -38.5t14 -57zM140 319q12 -4 30 -6.5t35 -2.5q16 0 31.5 2.5t27 8.5t17.5 16t5 25q-3 27 -20.5 34.5t-40.5 6.5q-23 0 -38.5 -8.5t-25 -21t-14.5 -27t-7 -27.5z" />
    <glyph glyph-name="f" unicode="f" horiz-adv-x="467" 
d="M369 584q-44 20 -72 12q-25 -5 -40 -28.5t-17 -48.5q-1 -18 -1 -39v-42.5t0.5 -41.5t0.5 -36q24 1 43 1h36.5t36.5 -1.5t43 -3.5q19 -2 28.5 -14t10.5 -26q1 -17 -11.5 -31t-35.5 -13q-34 1 -52 1.5t-31 0.5t-26.5 -0.5t-38.5 -1.5q1 -21 3 -48t4.5 -53.5t5 -50.5
t5.5 -40q4 -23 -11 -36.5t-33 -14.5q-16 -1 -29 7.5t-18 25.5q-5 18 -8 43.5t-5.5 53.5t-3.5 56.5t-2 51.5q-5 0 -15 -0.5t-22 -1.5t-23.5 -2t-19.5 -2q-19 -2 -29 9t-12 28q-2 20 7 33.5t24 15.5q31 5 49.5 6t40.5 2q0 16 -0.5 36t-0.5 41v41.5t1 38.5q1 35 10 66.5
t26.5 56t43.5 39.5t59 18q25 2 55 -0.5t60 -19.5q30 -19 33 -44q1 -13 -3.5 -24.5t-14.5 -18.5t-23 -8t-28 7z" />
    <glyph glyph-name="g" unicode="g" horiz-adv-x="499" 
d="M351 97q23 -3 46.5 -8t46.5 -14q14 -7 18.5 -22t0.5 -30q-3 -13 -14 -22t-30 -7q-15 4 -31.5 7t-33.5 6q0 -32 -3 -61.5t-15 -61.5q-9 -26 -27 -44t-40.5 -29.5t-48.5 -15.5t-51 -2q-32 3 -56 16.5t-40 33.5t-25 44t-10 49q-3 46 17 77t54 50t76 27t82 9q0 10 -2 23.5
t-6 25.5q-43 -6 -80 6.5t-65.5 36.5t-45.5 56t-19 66q-2 28 3.5 55.5t20 52.5t40 46.5t63.5 36.5q-2 14 -4.5 28.5t-2.5 35.5q-2 22 12.5 33.5t31.5 12.5t31 -8.5t15 -29.5q2 -11 2.5 -25.5t4.5 -33.5q88 -5 131 -53t43 -129q0 -38 -8 -64t-21.5 -44t-31.5 -30.5t-38 -22.5z
M358 340q-1 23 -10.5 41.5t-25 30.5t-36 17.5t-42.5 3.5q-44 -5 -74.5 -35.5t-28.5 -78.5q1 -20 9.5 -36.5t22.5 -28t32.5 -18t38.5 -6.5q106 0 114 110zM270 -24q1 8 1 17.5v20.5h-4q-24 0 -50.5 -2.5t-47.5 -10.5t-33.5 -23.5t-9.5 -41.5q4 -29 20 -44t40 -15
q46 0 64 28.5t20 70.5z" />
    <glyph glyph-name="h" unicode="h" horiz-adv-x="542" 
d="M395 306q-2 13 -8 28.5t-18 28t-30.5 20.5t-45.5 6q-56 -4 -86.5 -47.5t-25.5 -121.5l3 -83q1 -19 -11.5 -28.5t-28.5 -11.5q-17 -2 -30.5 6t-15.5 26q-3 31 -4.5 77t-2.5 97t-1 104t0.5 99.5t1 82t1.5 51.5q2 20 15.5 31t31.5 9q14 -1 27 -10.5t13 -32.5q-1 -35 -1 -63
v-53.5v-50.5v-53q26 33 63.5 46t74.5 13q34 0 63 -12t51 -32.5t35.5 -47.5t16.5 -56q2 -29 3 -52t1 -44.5t-0.5 -42.5t-0.5 -44q0 -22 -13 -32t-30 -11t-30.5 9t-15.5 32q0 52 1 92t-3 71z" />
    <glyph glyph-name="i" unicode="i" horiz-adv-x="338" 
d="M240 101q-1 -20 -15.5 -29.5t-31.5 -9.5t-30.5 9.5t-13.5 29.5v38.5v27.5t0.5 27.5t0.5 37.5q0 15 -0.5 38t-2 49t-3 51t-3.5 44q-2 14 8 24t26 13t32.5 -5t21.5 -31q3 -12 5 -38t4 -54.5t2.5 -53.5t0.5 -35v-37.5v-27.5v-28.5t-1 -39.5zM276 660q0 -15 -11 -36.5
t-27 -41.5t-34 -36t-32 -20q-8 2 -28.5 15.5t-41.5 33t-37.5 42t-16.5 43.5q0 11 8.5 23t27.5 17q14 4 26.5 -1t23 -15t19.5 -23.5t16 -26.5q6 13 13 27t15.5 25.5t18.5 18.5t24 7q16 -1 26 -15t10 -37z" />
    <glyph glyph-name="j" unicode="j" horiz-adv-x="415" 
d="M324 86q-5 -87 -42 -132.5t-117 -45.5q-68 0 -104.5 37.5t-36.5 109.5q0 18 11 33t31 16q19 2 35 -10t14 -30q1 -15 2.5 -27t7 -20.5t16 -12.5t28.5 -4q34 0 49.5 28.5t17.5 78.5q2 57 -0.5 124.5t-9.5 156.5q-2 23 9.5 36.5t28.5 16.5q16 3 31 -5.5t19 -31.5
q6 -35 9 -76t3.5 -83t-0.5 -82.5t-2 -76.5zM348 660q0 -15 -11 -36.5t-27 -41.5t-34 -36t-32 -20q-8 2 -28.5 15.5t-41.5 33t-37.5 42t-16.5 43.5q0 11 8 23t27 17q14 4 26.5 -1t23.5 -15t19.5 -23.5t15.5 -26.5q6 13 13 27t16 25.5t19.5 18.5t24.5 7q15 -1 25 -15t10 -37z
" />
    <glyph glyph-name="k" unicode="k" horiz-adv-x="476" 
d="M434 129q7 -11 7.5 -21.5t-3 -20t-10.5 -16t-16 -9.5q-11 -4 -19.5 -1.5t-19.5 13.5q-12 12 -26 30.5t-29.5 41t-31 47t-29.5 49.5q-8 -6 -19.5 -11.5t-23 -10.5t-21.5 -9t-14 -6q2 -23 7 -56t10 -67q2 -19 -8.5 -30.5t-27.5 -13.5q-16 -2 -32 6.5t-20 28.5
q-10 43 -18.5 103.5t-14 126.5t-8 130.5t0.5 115.5q1 22 14.5 32.5t30 10.5t29.5 -10.5t12 -32.5q-1 -55 0 -92.5t3 -65t4 -48.5t4 -43q57 20 100 55.5t87 79.5q15 16 32 16t28.5 -10t13 -27t-13.5 -35q-23 -26 -43.5 -45.5t-43.5 -42.5q33 -60 63 -99.5t46 -62.5z" />
    <glyph glyph-name="l" unicode="l" horiz-adv-x="258" 
d="M104 127q-4 38 -7 93t-5.5 116.5t-3 124t0.5 116.5q1 19 13 28t28 10q17 1 30 -8.5t13 -29.5q0 -63 0.5 -115t2 -101.5t5 -101.5t10.5 -116q1 -12 -3.5 -21t-13 -15t-19.5 -8.5t-21 -0.5q-11 2 -19.5 8.5t-10.5 20.5z" />
    <glyph glyph-name="m" unicode="m" horiz-adv-x="680" 
d="M615 127q-1 -19 -14.5 -29t-29 -10.5t-28.5 8.5t-13 28v92.5t-2 78.5q-1 16 -6 32t-14.5 28t-23 18.5t-31.5 5.5q-28 -2 -45.5 -22t-19.5 -43q3 -27 4 -50t1 -45t-2 -44t-5 -48q-2 -18 -15 -26.5t-28 -8.5t-27.5 9.5t-11.5 27.5q2 32 3 52.5t1 36.5v31t-1 36q-2 16 -5 34
t-11 33.5t-21.5 25.5t-35.5 10q-21 0 -34.5 -6.5t-21.5 -16t-12 -21t-5 -20.5q-5 -38 -2.5 -84.5t6.5 -97.5q1 -21 -12 -32t-29.5 -11.5t-31.5 9t-17 28.5q-2 21 -4 40t-3 41t-1 49t1 62q1 30 11.5 57t30.5 47t49.5 32.5t70.5 13.5q31 0 53 -6.5t37 -17t24 -23t14 -23.5
q12 21 40.5 37.5t56.5 18.5q29 3 55.5 -5.5t48 -26t36 -43.5t19.5 -59q7 -48 5.5 -101t-4.5 -102z" />
    <glyph glyph-name="n" unicode="n" horiz-adv-x="551" 
d="M282 502q88 0 140 -51t59 -145q3 -56 4.5 -97.5t-0.5 -79.5q-1 -17 -14 -26t-28 -10q-17 -1 -32 10.5t-15 34.5v46.5t-0.5 36t-1.5 31.5t-3 35q-7 59 -32 93.5t-74 34.5q-56 0 -86 -37t-28 -93q0 -25 0.5 -42t2 -33t3 -34t3.5 -43q2 -20 -14.5 -31.5t-33.5 -11.5
q-16 0 -27.5 8.5t-13.5 26.5l-3.5 42l-3 36t-2 38t-1.5 48q-2 48 12.5 87t41.5 67t65 43.5t82 15.5z" />
    <glyph glyph-name="o" unicode="o" horiz-adv-x="380" 
d="M259 259q1 12 -0.5 24.5t-7 22t-17 16t-29.5 6.5q-16 0 -29 -6.5t-22 -16.5t-13.5 -22t-4.5 -24q0 -10 1.5 -20t6.5 -18.5t14.5 -14t24.5 -5.5q30 0 52 16.5t24 41.5zM50 255q-1 37 12 66.5t35.5 49.5t51.5 31t61 11q35 0 61 -11.5t43 -30.5t25 -43t7 -49
q0 -36 -12.5 -65.5t-35 -51t-54 -33t-70.5 -11.5q-37 0 -60.5 12.5t-37 32.5t-19.5 44.5t-7 47.5z" />
    <glyph glyph-name="p" unicode="p" horiz-adv-x="459" 
d="M230 218q51 -4 84.5 21.5t32.5 80.5q-3 47 -26.5 68.5t-61.5 23.5q-33 1 -49 -3t-32 -9q-2 -18 -3 -40.5t-2 -44.5t-0.5 -42.5t2.5 -35.5q7 -10 23.5 -14t31.5 -5zM178 143q3 -38 6 -88.5t11 -113.5q3 -23 -9.5 -35t-29 -13.5t-31.5 8t-18 30.5q-8 58 -15 124t-9 135.5
t2 139t18 135.5q36 17 77.5 25t81.5 8q74 -1 121.5 -46.5t49.5 -135.5q1 -42 -11 -76.5t-34 -59.5t-51.5 -39.5t-64.5 -14.5q-22 0 -46 1.5t-48 15.5z" />
    <glyph glyph-name="q" unicode="q" horiz-adv-x="514" 
d="M447 464q4 -78 2.5 -147.5t-6.5 -132.5t-12.5 -122t-16.5 -116q-2 -19 -18 -28t-33 -7q-16 2 -27.5 13.5t-7.5 32.5q2 18 4.5 41t5.5 47t6 46.5t5 40.5q-20 -13 -45.5 -20t-48.5 -7q-88 -3 -137.5 40.5t-54.5 127.5q-5 54 9 96t42 71t67.5 44t86.5 15q27 0 55 -3.5t53 -9
t44 -11.5t27 -11zM353 239q1 9 2.5 27.5t2 40t1 44.5t-0.5 41q-5 1 -15.5 4t-23.5 5.5t-27 4.5t-26 2q-19 0 -39 -5t-36.5 -19t-26.5 -38t-8 -61q2 -19 7 -35t15.5 -27.5t27 -19t41.5 -8.5q14 -1 30.5 3t31.5 10.5t27 14.5t17 16z" />
    <glyph glyph-name="r" unicode="r" horiz-adv-x="471" 
d="M185 141q-1 -28 -14.5 -40.5t-29.5 -12.5q-14 0 -25.5 9t-15.5 24q-5 17 -10.5 96.5t-7.5 207.5q0 22 10 33.5t23 16.5q19 5 35 -5.5t18 -35.5q2 -27 3 -42t1 -34q10 17 25 33.5t35 30.5t45.5 23.5t57.5 12.5q20 1 41.5 -0.5t45.5 -7.5q19 -4 27.5 -18t6.5 -29
q-2 -17 -14 -28.5t-34 -8.5q-32 7 -64 4q-70 -8 -114.5 -66.5t-44.5 -162.5z" />
    <glyph glyph-name="s" unicode="s" horiz-adv-x="413" 
d="M346 500q10 -13 9 -28t-9.5 -26t-23 -15.5t-32.5 4.5q-9 7 -26 15t-50 6q-24 -1 -40 -16t-17 -37q0 -17 7 -29.5t19 -22t27.5 -16.5t31.5 -11q33 -10 58.5 -23t42.5 -30.5t24.5 -41t4.5 -55.5q-5 -52 -39.5 -78t-91.5 -27q-29 -1 -58 6t-45 24q-8 7 -13.5 16.5t-5.5 22.5
q0 18 9.5 27t23.5 10q9 1 20 -3t22 -12q2 -2 12 -5.5t36 -2.5q15 1 30 9t14 28q-1 29 -39 43q-18 7 -38.5 14t-41 16t-38.5 20.5t-30 28.5q-29 35 -29 82q0 70 40 109t123 39q34 0 60.5 -9t52.5 -32z" />
    <glyph glyph-name="t" unicode="t" horiz-adv-x="456" 
d="M318 365q-26 3 -58.5 2t-57.5 -1q-1 -16 -1.5 -36t0 -40t1.5 -39.5t4 -34.5q6 -34 19 -55.5t51 -21.5q14 0 34.5 7.5t28.5 24.5q9 17 23 20.5t28 -1.5q14 -6 21.5 -21t0.5 -34q-36 -77 -127 -80q-43 -2 -71.5 7.5t-47.5 27t-29 41.5t-15 53q-8 37 -9.5 85t-1.5 92
q-5 0 -17 -0.5t-26 -0.5q-22 0 -34.5 12.5t-14.5 29.5q-2 14 5.5 27.5t26.5 19.5q6 3 15 4t18.5 2t18 1h12.5v42.5v34.5t0.5 31t1.5 32q0 21 16 32.5t33 11.5q16 0 27.5 -9.5t11.5 -32.5q1 -20 1 -37t-0.5 -33.5t-1 -33.5t-0.5 -37h19.5h32.5t37.5 -1t35.5 -2q18 -2 27 -20
t6 -35q-2 -15 -14 -25.5t-30 -8.5z" />
    <glyph glyph-name="u" unicode="u" horiz-adv-x="526" 
d="M462 251q-3 -53 -21.5 -87.5t-48 -54t-68 -26.5t-81.5 -6q-54 3 -87 23.5t-52 51t-25.5 68.5t-7.5 76q0 12 -0.5 29t0 35.5t1.5 35.5t4 29q1 23 17 32.5t33 7.5q15 -2 26 -10.5t11 -24.5q0 -20 -0.5 -36t-1 -31t-0.5 -31t1 -35t3.5 -40.5t11 -41t25.5 -34t48 -17.5
q53 -6 89.5 21t36.5 88q1 19 1 33v29.5t-1 36.5t-2 54q-1 21 13 31t30 10q15 0 28 -9.5t14 -32.5q1 -24 2.5 -41t2 -35t0.5 -40.5t-2 -57.5z" />
    <glyph glyph-name="v" unicode="v" horiz-adv-x="471" 
d="M29 414q-2 23 10 36t27 15q14 2 29.5 -5.5t21.5 -29.5q1 -11 12.5 -40.5t27 -65t32 -72t29.5 -62.5q54 57 90 121.5t71 133.5q8 13 17.5 18.5t20.5 6.5q10 0 20.5 -4.5t17 -12.5t8.5 -19.5t-4 -25.5l-23.5 -47t-33.5 -62.5t-40.5 -68.5t-44 -64.5t-46 -51t-44.5 -27.5
q-17 -3 -29.5 0t-25.5 16q-8 8 -21 31t-28 53.5t-31 65t-29.5 66.5t-22.5 57.5t-11 37.5z" />
    <glyph glyph-name="w" unicode="w" horiz-adv-x="652" 
d="M56 418q-2 20 10.5 30.5t29.5 11.5q17 2 31.5 -7.5t16.5 -30.5q0 -35 3.5 -69.5t9.5 -66t13.5 -58t15.5 -44.5q28 35 48 70.5t40 82.5q6 13 16 20t20.5 8.5t19 -2t13.5 -10.5q16 -26 26.5 -47.5t22 -42t26 -41.5t38.5 -47q13 22 24 51t20.5 62t17 68t12.5 69q4 23 19 32
t30 7q14 -2 25 -14t10 -34q-3 -45 -13.5 -90.5t-26 -88t-34 -81t-37.5 -68.5q-15 -19 -30 -22t-30 3q-10 6 -26.5 23t-35 40.5t-37 51t-32.5 53.5q-11 -20 -26 -46t-32 -51t-35.5 -45t-35.5 -29q-21 -11 -34 -1.5t-23 28.5q-15 42 -27.5 81.5t-22 79t-15 80t-5.5 84.5z" />
    <glyph glyph-name="x" unicode="x" horiz-adv-x="461" 
d="M423 449q-15 -21 -32 -44t-34 -45t-33.5 -42.5t-31.5 -38.5q27 -32 60.5 -65.5t63.5 -56.5q17 -13 17 -30.5t-10.5 -31t-28.5 -18t-36 10.5q-31 26 -63.5 60.5t-61.5 69.5q-9 -10 -21 -26.5t-25 -34.5t-25 -35.5t-20 -30.5q-9 -18 -25.5 -20t-31 6t-21 23.5t4.5 33.5
q11 16 25 37l28 42l27 40.5t24 32.5q-9 13 -23 31t-29.5 38t-32 39.5t-31.5 35.5q-14 15 -10.5 32t15.5 28.5t29 12.5t31 -15q13 -15 28.5 -33.5t31.5 -36.5t30 -35t23 -29q13 15 28 33t30 37t28 37.5t24 33.5q15 21 34 23t33 -7t19 -26.5t-8 -35.5z" />
    <glyph glyph-name="y" unicode="y" horiz-adv-x="540" 
d="M459 416q2 -37 3.5 -73t2 -68.5t0.5 -60v-45.5q0 -48 -6 -97.5t-25 -89.5t-55 -65t-96 -24q-22 0 -43 4t-39 14t-31 26t-19 40q-5 20 7 37t30 22q21 5 37 -19q8 -13 21 -23.5t34 -10.5q24 0 44 8.5t34 29.5t21.5 57t7.5 92q-17 -23 -53 -40t-72 -18q-47 -1 -80.5 13.5
t-56.5 40t-36 60.5t-17 76q-2 15 -1 35.5t2 38.5q1 21 3 44q1 22 15.5 32.5t30.5 9.5t27.5 -11t9.5 -30q-3 -31 -3.5 -54t1.5 -56q1 -17 7.5 -35.5t18.5 -34.5t30 -26.5t42 -10.5q29 0 52.5 10t39.5 33t23.5 60.5t4.5 92.5q-2 24 10.5 35.5t28.5 13.5t30 -7t15 -26z" />
    <glyph glyph-name="z" unicode="z" horiz-adv-x="445" 
d="M97 427q-20 -4 -32.5 8.5t-14.5 26.5t6.5 27t25.5 19q16 5 40.5 9.5t52 6.5t56 2t52.5 -3q45 -5 64 -22.5t20 -42.5q2 -18 -5 -39.5t-21 -42.5q-42 -68 -86.5 -113t-90.5 -85q20 -3 45.5 -4t52.5 1t53.5 7t48.5 14q21 9 36.5 2.5t22 -20t2 -30t-23.5 -27.5
q-30 -14 -66 -20t-73 -8t-71.5 0t-62.5 5q-16 1 -33.5 8t-29 18.5t-13.5 27.5t12 36q22 28 54 57t63.5 59.5t58.5 63.5t38 71q-23 5 -50.5 4.5t-53 -3.5t-46.5 -7t-31 -6z" />
    <glyph glyph-name="braceleft" unicode="{" horiz-adv-x="439" 
d="M321 608q3 -18 -2.5 -30t-16 -16t-23 -1t-22.5 15q-4 7 -11.5 9t-11.5 1q-20 -4 -28 -16t-7.5 -29.5t6 -38.5t11.5 -43.5t9.5 -45t0.5 -41.5q-2 -14 -7.5 -23.5t-12.5 -16.5q14 -12 19.5 -34.5t7 -49t0.5 -53.5t0 -47q2 -16 9.5 -24.5t21.5 -6.5q11 2 17.5 9t12 14.5
t11.5 13.5t16 7t20 -3t17 -11.5t10.5 -18.5t0.5 -23q-5 -19 -19.5 -34t-34 -25.5t-42 -16t-44.5 -5.5q-14 0 -31.5 9t-26.5 24q-13 23 -17 43t-4 40.5t1 44t-2 55.5q-3 30 -12 40.5t-32 6.5q-21 -3 -34.5 6.5t-17.5 23.5t3.5 29.5t27.5 23.5q6 2 14.5 3t16.5 3t15.5 4.5
t11.5 7.5q5 6 -0.5 29t-13 52.5t-12 60.5t1.5 54q8 27 26.5 47.5t41.5 30.5t48.5 9t47.5 -16q13 -8 25 -19t14 -28z" />
    <glyph glyph-name="bar" unicode="|" horiz-adv-x="287" 
d="M112 109q-8 58 -11.5 120t-3.5 125t1.5 125t2.5 121q1 18 14 27t28.5 8.5t27.5 -10t12 -28.5q0 -73 -1.5 -130.5t-1.5 -111t3.5 -109t13.5 -122.5q3 -18 -9 -29.5t-27.5 -14.5t-30.5 4t-18 25z" />
    <glyph glyph-name="braceright" unicode="}" horiz-adv-x="439" 
d="M78 91q-2 22 6 33.5t22 13.5q9 1 19.5 -4t18.5 -16q3 -7 10.5 -9t11.5 -2q23 2 30.5 14.5t8.5 31.5q0 17 -3.5 38.5t-7 43.5t-5.5 44t3 41q3 12 9 21.5t13 15.5q-13 13 -16.5 36t-2.5 49.5t4.5 53.5t3.5 48q0 15 -7 24t-21 8q-12 -1 -19 -7t-13 -13t-13 -12.5t-17 -5.5
t-19 4.5t-15.5 12.5t-9 18.5t1.5 22.5q7 19 22.5 33t35.5 23t43 12.5t45 1.5q14 -2 30.5 -12t24.5 -25q11 -24 13 -44.5t0.5 -41t-4.5 -44.5t-2 -55q1 -30 9 -41t32 -9q21 1 33 -9.5t14.5 -24.5t-6 -28.5t-28.5 -21.5q-12 -3 -31 -4t-28 -11q-5 -5 -3 -22.5t6 -41t8 -50
t3 -50.5q-2 -22 -11.5 -41t-24.5 -34t-34 -24t-40 -10q-17 0 -33 4t-33 15q-12 10 -22.5 21.5t-11.5 28.5z" />
    <glyph glyph-name="asciitilde" unicode="~" horiz-adv-x="623" 
d="M559 417q0 -38 -8.5 -69.5t-27 -54.5t-49 -36t-75.5 -13q-35 0 -60 20.5t-45.5 45t-40 45t-41.5 20.5q-26 0 -37 -14t-14 -39q-3 -21 -18 -31t-31 -9t-29 13t-11 33q3 33 14 57.5t29 41.5t41.5 25.5t49.5 8.5q42 0 69 -19.5t47 -43t36.5 -44t38.5 -22.5q71 -6 71 87
q0 18 14 27.5t31.5 9t31.5 -10t14 -28.5z" />
    <glyph glyph-name="cid208" unicode="&#xa1;" 
 />
    <glyph glyph-name="cid143" unicode="&#xa2;" 
 />
    <glyph glyph-name="cid143" unicode="&#xffe0;" 
 />
    <glyph glyph-name="cid144" unicode="&#xa3;" 
 />
    <glyph glyph-name="cid144" unicode="&#xffe1;" 
 />
    <glyph glyph-name="cid214" unicode="&#xa4;" 
 />
    <glyph glyph-name="cid155" unicode="&#xa7;" 
 />
    <glyph glyph-name="cid107" unicode="&#xa8;" 
 />
    <glyph glyph-name="cid98" unicode="&#xa9;" 
 />
    <glyph glyph-name="cid668" unicode="&#xaa;" 
 />
    <glyph glyph-name="cid176" unicode="&#xab;" 
 />
    <glyph glyph-name="cid176" unicode="&#x226a;" 
 />
    <glyph glyph-name="cid194" unicode="&#xac;" 
 />
    <glyph glyph-name="cid194" unicode="&#xffe2;" 
 />
    <glyph glyph-name="cid109" unicode="&#xad;" 
 />
    <glyph glyph-name="cid109" unicode="&#x2013;" 
 />
    <glyph glyph-name="cid138" unicode="&#xb0;" 
 />
    <glyph glyph-name="cid130" unicode="&#xb1;" 
 />
    <glyph glyph-name="cid843" unicode="&#xb2;" 
 />
    <glyph glyph-name="cid844" unicode="&#xb3;" 
 />
    <glyph glyph-name="cid199" unicode="&#xb4;" 
 />
    <glyph glyph-name="cid244" unicode="&#xb6;" 
 />
    <glyph glyph-name="cid104" unicode="&#xb7;" 
 />
    <glyph glyph-name="cid104" unicode="&#x30fb;" 
 />
    <glyph glyph-name="cid206" unicode="&#xb8;" 
 />
    <glyph glyph-name="cid842" unicode="&#xb9;" 
 />
    <glyph glyph-name="cid675" unicode="&#xba;" 
 />
    <glyph glyph-name="cid177" unicode="&#xbb;" 
 />
    <glyph glyph-name="cid177" unicode="&#x226b;" 
 />
    <glyph glyph-name="cid751" unicode="&#xbc;" 
 />
    <glyph glyph-name="cid748" unicode="&#xbd;" 
 />
    <glyph glyph-name="cid752" unicode="&#xbe;" 
 />
    <glyph glyph-name="cid209" unicode="&#xbf;" 
 />
    <glyph glyph-name="cid666" unicode="&#xc6;" 
 />
    <glyph glyph-name="cid667" unicode="&#xd0;" 
 />
    <glyph glyph-name="cid131" unicode="&#xd7;" 
 />
    <glyph glyph-name="cid673" unicode="&#xd8;" 
 />
    <glyph glyph-name="cid676" unicode="&#xde;" 
 />
    <glyph glyph-name="cid768" unicode="&#xdf;" 
 />
    <glyph glyph-name="cid757" unicode="&#xe6;" 
 />
    <glyph glyph-name="cid759" unicode="&#xf0;" 
 />
    <glyph glyph-name="cid132" unicode="&#xf7;" 
 />
    <glyph glyph-name="cid766" unicode="&#xf8;" 
 />
    <glyph glyph-name="cid769" unicode="&#xfe;" 
 />
    <glyph glyph-name="cid758" unicode="&#x111;" 
 />
    <glyph glyph-name="cid669" unicode="&#x126;" 
 />
    <glyph glyph-name="cid760" unicode="&#x127;" 
 />
    <glyph glyph-name="cid761" unicode="&#x131;" 
 />
    <glyph glyph-name="cid670" unicode="&#x132;" 
 />
    <glyph glyph-name="cid762" unicode="&#x133;" 
 />
    <glyph glyph-name="cid763" unicode="&#x138;" 
 />
    <glyph glyph-name="cid671" unicode="&#x13f;" 
 />
    <glyph glyph-name="cid764" unicode="&#x140;" 
 />
    <glyph glyph-name="cid672" unicode="&#x141;" 
 />
    <glyph glyph-name="cid765" unicode="&#x142;" 
 />
    <glyph glyph-name="cid772" unicode="&#x149;" 
 />
    <glyph glyph-name="cid678" unicode="&#x14a;" 
 />
    <glyph glyph-name="cid771" unicode="&#x14b;" 
 />
    <glyph glyph-name="cid674" unicode="&#x152;" 
 />
    <glyph glyph-name="cid767" unicode="&#x153;" 
 />
    <glyph glyph-name="cid677" unicode="&#x166;" 
 />
    <glyph glyph-name="cid770" unicode="&#x167;" 
 />
    <glyph glyph-name="cid8275" unicode="&#x2bc;" 
 />
    <glyph glyph-name="cid201" unicode="&#x2c7;" 
 />
    <glyph glyph-name="cid210" unicode="&#x2d0;" 
 />
    <glyph glyph-name="cid210" unicode="&#x2236;" 
 />
    <glyph glyph-name="cid202" unicode="&#x2d8;" 
 />
    <glyph glyph-name="cid205" unicode="&#x2d9;" 
 />
    <glyph glyph-name="cid204" unicode="&#x2da;" 
 />
    <glyph glyph-name="cid207" unicode="&#x2db;" 
 />
    <glyph glyph-name="cid200" unicode="&#x2dc;" 
 />
    <glyph glyph-name="cid203" unicode="&#x2dd;" 
 />
    <glyph glyph-name="cid471" unicode="&#x391;" 
 />
    <glyph glyph-name="cid472" unicode="&#x392;" 
 />
    <glyph glyph-name="cid473" unicode="&#x393;" 
 />
    <glyph glyph-name="cid474" unicode="&#x394;" 
 />
    <glyph glyph-name="cid475" unicode="&#x395;" 
 />
    <glyph glyph-name="cid476" unicode="&#x396;" 
 />
    <glyph glyph-name="cid477" unicode="&#x397;" 
 />
    <glyph glyph-name="cid478" unicode="&#x398;" 
 />
    <glyph glyph-name="cid479" unicode="&#x399;" 
 />
    <glyph glyph-name="cid480" unicode="&#x39a;" 
 />
    <glyph glyph-name="cid481" unicode="&#x39b;" 
 />
    <glyph glyph-name="cid482" unicode="&#x39c;" 
 />
    <glyph glyph-name="cid483" unicode="&#x39d;" 
 />
    <glyph glyph-name="cid484" unicode="&#x39e;" 
 />
    <glyph glyph-name="cid485" unicode="&#x39f;" 
 />
    <glyph glyph-name="cid486" unicode="&#x3a0;" 
 />
    <glyph glyph-name="cid487" unicode="&#x3a1;" 
 />
    <glyph glyph-name="cid488" unicode="&#x3a3;" 
 />
    <glyph glyph-name="cid489" unicode="&#x3a4;" 
 />
    <glyph glyph-name="cid490" unicode="&#x3a5;" 
 />
    <glyph glyph-name="cid491" unicode="&#x3a6;" 
 />
    <glyph glyph-name="cid492" unicode="&#x3a7;" 
 />
    <glyph glyph-name="cid493" unicode="&#x3a8;" 
 />
    <glyph glyph-name="cid494" unicode="&#x3a9;" 
 />
    <glyph glyph-name="cid495" unicode="&#x3b1;" 
 />
    <glyph glyph-name="cid496" unicode="&#x3b2;" 
 />
    <glyph glyph-name="cid497" unicode="&#x3b3;" 
 />
    <glyph glyph-name="cid498" unicode="&#x3b4;" 
 />
    <glyph glyph-name="cid499" unicode="&#x3b5;" 
 />
    <glyph glyph-name="cid500" unicode="&#x3b6;" 
 />
    <glyph glyph-name="cid501" unicode="&#x3b7;" 
 />
    <glyph glyph-name="cid502" unicode="&#x3b8;" 
 />
    <glyph glyph-name="cid503" unicode="&#x3b9;" 
 />
    <glyph glyph-name="cid504" unicode="&#x3ba;" 
 />
    <glyph glyph-name="cid505" unicode="&#x3bb;" 
 />
    <glyph glyph-name="cid506" unicode="&#x3bc;" 
 />
    <glyph glyph-name="cid507" unicode="&#x3bd;" 
 />
    <glyph glyph-name="cid508" unicode="&#x3be;" 
 />
    <glyph glyph-name="cid509" unicode="&#x3bf;" 
 />
    <glyph glyph-name="cid510" unicode="&#x3c0;" 
 />
    <glyph glyph-name="cid511" unicode="&#x3c1;" 
 />
    <glyph glyph-name="cid512" unicode="&#x3c3;" 
 />
    <glyph glyph-name="cid513" unicode="&#x3c4;" 
 />
    <glyph glyph-name="cid514" unicode="&#x3c5;" 
 />
    <glyph glyph-name="cid515" unicode="&#x3c6;" 
 />
    <glyph glyph-name="cid516" unicode="&#x3c7;" 
 />
    <glyph glyph-name="cid517" unicode="&#x3c8;" 
 />
    <glyph glyph-name="cid518" unicode="&#x3c9;" 
 />
    <glyph glyph-name="cid1026" unicode="&#x401;" 
 />
    <glyph glyph-name="cid1020" unicode="&#x410;" 
 />
    <glyph glyph-name="cid1021" unicode="&#x411;" 
 />
    <glyph glyph-name="cid1022" unicode="&#x412;" 
 />
    <glyph glyph-name="cid1023" unicode="&#x413;" 
 />
    <glyph glyph-name="cid1024" unicode="&#x414;" 
 />
    <glyph glyph-name="cid1025" unicode="&#x415;" 
 />
    <glyph glyph-name="cid1027" unicode="&#x416;" 
 />
    <glyph glyph-name="cid1028" unicode="&#x417;" 
 />
    <glyph glyph-name="cid1029" unicode="&#x418;" 
 />
    <glyph glyph-name="cid1030" unicode="&#x419;" 
 />
    <glyph glyph-name="cid1031" unicode="&#x41a;" 
 />
    <glyph glyph-name="cid1032" unicode="&#x41b;" 
 />
    <glyph glyph-name="cid1033" unicode="&#x41c;" 
 />
    <glyph glyph-name="cid1034" unicode="&#x41d;" 
 />
    <glyph glyph-name="cid1035" unicode="&#x41e;" 
 />
    <glyph glyph-name="cid1036" unicode="&#x41f;" 
 />
    <glyph glyph-name="cid1037" unicode="&#x420;" 
 />
    <glyph glyph-name="cid1038" unicode="&#x421;" 
 />
    <glyph glyph-name="cid1039" unicode="&#x422;" 
 />
    <glyph glyph-name="cid1040" unicode="&#x423;" 
 />
    <glyph glyph-name="cid1041" unicode="&#x424;" 
 />
    <glyph glyph-name="cid1042" unicode="&#x425;" 
 />
    <glyph glyph-name="cid1043" unicode="&#x426;" 
 />
    <glyph glyph-name="cid1044" unicode="&#x427;" 
 />
    <glyph glyph-name="cid1045" unicode="&#x428;" 
 />
    <glyph glyph-name="cid1046" unicode="&#x429;" 
 />
    <glyph glyph-name="cid1047" unicode="&#x42a;" 
 />
    <glyph glyph-name="cid1048" unicode="&#x42b;" 
 />
    <glyph glyph-name="cid1049" unicode="&#x42c;" 
 />
    <glyph glyph-name="cid1050" unicode="&#x42d;" 
 />
    <glyph glyph-name="cid1051" unicode="&#x42e;" 
 />
    <glyph glyph-name="cid1052" unicode="&#x42f;" 
 />
    <glyph glyph-name="cid1053" unicode="&#x430;" 
 />
    <glyph glyph-name="cid1054" unicode="&#x431;" 
 />
    <glyph glyph-name="cid1055" unicode="&#x432;" 
 />
    <glyph glyph-name="cid1056" unicode="&#x433;" 
 />
    <glyph glyph-name="cid1057" unicode="&#x434;" 
 />
    <glyph glyph-name="cid1058" unicode="&#x435;" 
 />
    <glyph glyph-name="cid1060" unicode="&#x436;" 
 />
    <glyph glyph-name="cid1061" unicode="&#x437;" 
 />
    <glyph glyph-name="cid1062" unicode="&#x438;" 
 />
    <glyph glyph-name="cid1063" unicode="&#x439;" 
 />
    <glyph glyph-name="cid1064" unicode="&#x43a;" 
 />
    <glyph glyph-name="cid1065" unicode="&#x43b;" 
 />
    <glyph glyph-name="cid1066" unicode="&#x43c;" 
 />
    <glyph glyph-name="cid1067" unicode="&#x43d;" 
 />
    <glyph glyph-name="cid1068" unicode="&#x43e;" 
 />
    <glyph glyph-name="cid1069" unicode="&#x43f;" 
 />
    <glyph glyph-name="cid1070" unicode="&#x440;" 
 />
    <glyph glyph-name="cid1071" unicode="&#x441;" 
 />
    <glyph glyph-name="cid1072" unicode="&#x442;" 
 />
    <glyph glyph-name="cid1073" unicode="&#x443;" 
 />
    <glyph glyph-name="cid1074" unicode="&#x444;" 
 />
    <glyph glyph-name="cid1075" unicode="&#x445;" 
 />
    <glyph glyph-name="cid1076" unicode="&#x446;" 
 />
    <glyph glyph-name="cid1077" unicode="&#x447;" 
 />
    <glyph glyph-name="cid1078" unicode="&#x448;" 
 />
    <glyph glyph-name="cid1079" unicode="&#x449;" 
 />
    <glyph glyph-name="cid1080" unicode="&#x44a;" 
 />
    <glyph glyph-name="cid1081" unicode="&#x44b;" 
 />
    <glyph glyph-name="cid1082" unicode="&#x44c;" 
 />
    <glyph glyph-name="cid1083" unicode="&#x44d;" 
 />
    <glyph glyph-name="cid1084" unicode="&#x44e;" 
 />
    <glyph glyph-name="cid1085" unicode="&#x44f;" 
 />
    <glyph glyph-name="cid1059" unicode="&#x451;" 
 />
    <glyph glyph-name="cid97" unicode="&#x2010;" 
 />
    <glyph glyph-name="cid110" unicode="&#x2014;" 
 />
    <glyph glyph-name="cid110" unicode="&#x2015;" 
 />
    <glyph glyph-name="cid111" unicode="&#x2016;" 
 />
    <glyph glyph-name="quoteleft" unicode="&#x2018;" horiz-adv-x="330" 
d="M52 547q0 12 3 25.5t13 36.5t27 58.5t46 91.5q7 13 21.5 16.5t27.5 -1.5t20.5 -18t1.5 -31q-8 -17 -20.5 -38.5t-17.5 -36.5q19 0 37.5 -7.5t33.5 -20.5t24 -31.5t9 -39.5q0 -14 -5 -33t-18 -37.5t-34.5 -32t-55.5 -14.5q-23 -1 -43.5 6.5t-36 22t-24.5 36t-9 48.5z
M127 543q0 -9 9.5 -20.5t26.5 -11.5q7 0 14 3t12.5 8.5t8.5 12t1 14.5q0 20 -13 27t-24 7q-16 0 -25.5 -12t-9.5 -28z" />
    <glyph glyph-name="quoteright" unicode="&#x2019;" horiz-adv-x="330" 
d="M278 679q0 -12 -3 -25.5t-13 -36.5t-27.5 -58.5t-45.5 -91.5q-7 -14 -21.5 -17t-27.5 2t-20.5 18t-1.5 31q8 17 20.5 38.5t17.5 36.5q-19 0 -37.5 7.5t-33.5 20.5t-24 31.5t-9 39.5q0 13 5 32.5t17.5 38t34.5 31.5t56 15q23 1 43.5 -6.5t36 -22t24.5 -36t9 -48.5z
M203 683q0 9 -9.5 20.5t-26.5 11.5q-7 0 -14 -3t-12.5 -8.5t-8.5 -12.5t-1 -14q0 -20 13 -27t24 -7q16 0 25.5 12t9.5 28z" />
    <glyph glyph-name="cid8238" unicode="&#x201b;" 
 />
    <glyph glyph-name="quotedblleft" unicode="&#x201c;" horiz-adv-x="580" 
d="M47 547q0 12 3 25.5t13 36.5t27 58.5t46 91.5q7 13 21.5 16.5t27.5 -1.5t20.5 -18t1.5 -31q-8 -17 -20.5 -38.5t-17.5 -36.5q19 0 37.5 -7.5t33.5 -20.5t24 -31.5t9 -39.5q0 -14 -5 -33t-18 -37.5t-34.5 -32t-55.5 -14.5q-23 -1 -43.5 6.5t-36 22t-24.5 36t-9 48.5z
M122 543q0 -9 9.5 -20.5t26.5 -11.5q7 0 14 3t12.5 8.5t8.5 12t1 14.5q0 20 -13 27t-24 7q-16 0 -25.5 -12t-9.5 -28zM307 547q0 12 3 25.5t13 36.5t27 58.5t46 91.5q7 13 21.5 16.5t27.5 -1.5t20.5 -18t1.5 -31q-8 -17 -20.5 -38.5t-17.5 -36.5q19 0 37.5 -7.5t33.5 -20.5
t24 -31.5t9 -39.5q0 -14 -5 -33t-18 -37.5t-34.5 -32t-55.5 -14.5q-23 -1 -43.5 6.5t-36 22t-24.5 36t-9 48.5zM382 543q0 -9 9.5 -20.5t26.5 -11.5q7 0 14 3t12.5 8.5t8.5 12t1 14.5q0 20 -13 27t-24 7q-16 0 -25.5 -12t-9.5 -28z" />
    <glyph glyph-name="quotedblright" unicode="&#x201d;" horiz-adv-x="580" 
d="M263 679q0 -12 -3 -25.5t-13 -36.5t-27.5 -58.5t-45.5 -91.5q-7 -14 -21.5 -17t-27.5 2t-20.5 18t-1.5 31q8 17 20.5 38.5t17.5 36.5q-19 0 -37.5 7.5t-33.5 20.5t-24 31.5t-9 39.5q0 13 5 32.5t17.5 38t34.5 31.5t56 15q23 1 43.5 -6.5t36 -22t24.5 -36t9 -48.5z
M188 683q0 9 -9.5 20.5t-26.5 11.5q-7 0 -14 -3t-12.5 -8.5t-8.5 -12.5t-1 -14q0 -20 13 -27t24 -7q16 0 25.5 12t9.5 28zM543 679q0 -12 -3 -25.5t-13 -36.5t-27.5 -58.5t-45.5 -91.5q-7 -14 -21.5 -17t-27.5 2t-20.5 18t-1.5 31q8 17 20.5 38.5t17.5 36.5q-19 0 -37.5 7.5
t-33.5 20.5t-24 31.5t-9 39.5q0 13 5 32.5t17.5 38t34.5 31.5t56 15q23 1 43.5 -6.5t36 -22t24.5 -36t9 -48.5zM468 683q0 9 -9.5 20.5t-26.5 11.5q-7 0 -14 -3t-12.5 -8.5t-8.5 -12.5t-1 -14q0 -20 13 -27t24 -7q16 0 25.5 12t9.5 28z" />
    <glyph glyph-name="cid8237" unicode="&#x201f;" 
 />
    <glyph glyph-name="cid245" unicode="&#x2020;" 
 />
    <glyph glyph-name="cid246" unicode="&#x2021;" 
 />
    <glyph glyph-name="cid8607" unicode="&#x2022;" 
 />
    <glyph glyph-name="twodotenleader" unicode="&#x2025;" horiz-adv-x="805" 
d="M186 390q-9 0 -18.5 3.5t-16.5 11.5t-10.5 21t-1.5 31q3 23 20 35t40 12q21 0 35.5 -16t16.5 -40q2 -32 -14 -45t-51 -13zM604 390q-9 0 -18.5 3.5t-16.5 11.5t-10.5 21t-1.5 31q3 23 20 35t40 12q21 0 35.5 -16t16.5 -40q2 -32 -14 -45t-51 -13z" />
    <glyph glyph-name="ellipsis" unicode="&#x2026;" horiz-adv-x="805" 
d="M124 390q-9 0 -18.5 3.5t-16.5 11.5t-10.5 21t-1.5 31q3 23 20 35t40 12q21 0 35.5 -16t16.5 -40q2 -32 -14 -45t-51 -13zM405 390q-9 0 -18.5 3.5t-16.5 11.5t-10.5 21t-1.5 31q3 23 20 35t40 12q21 0 35.5 -16t16.5 -40q2 -32 -14 -45t-51 -13zM668 390q-9 0 -18.5 3.5
t-16.5 11.5t-10.5 21t-1.5 31q3 23 20 35t40 12q21 0 35.5 -16t16.5 -40q2 -32 -14 -45t-51 -13z" />
    <glyph glyph-name="cid216" unicode="&#x2030;" 
 />
    <glyph glyph-name="cid139" unicode="&#x2032;" 
 />
    <glyph glyph-name="cid140" unicode="&#x2033;" 
 />
    <glyph glyph-name="cid8582" unicode="&#x2034;" 
 />
    <glyph glyph-name="cid9326" unicode="&#x2035;" 
 />
    <glyph glyph-name="cid9324" unicode="&#x2036;" 
 />
    <glyph glyph-name="cid8612" unicode="&#x2039;" 
 />
    <glyph glyph-name="cid8613" unicode="&#x203a;" 
 />
    <glyph glyph-name="cid156" unicode="&#x203b;" 
 />
    <glyph glyph-name="cid8763" unicode="&#x203c;" 
 />
    <glyph glyph-name="cid8599" unicode="&#x2042;" 
 />
    <glyph glyph-name="cid845" unicode="&#x2074;" 
 />
    <glyph glyph-name="cid8239" unicode="&#x207a;" 
 />
    <glyph glyph-name="cid8240" unicode="&#x207b;" 
 />
    <glyph glyph-name="cid8248" unicode="&#x207c;" 
 />
    <glyph glyph-name="cid8250" unicode="&#x207d;" 
 />
    <glyph glyph-name="cid8251" unicode="&#x207e;" 
 />
    <glyph glyph-name="cid846" unicode="&#x207f;" 
 />
    <glyph glyph-name="cid847" unicode="&#x2081;" 
 />
    <glyph glyph-name="cid848" unicode="&#x2082;" 
 />
    <glyph glyph-name="cid849" unicode="&#x2083;" 
 />
    <glyph glyph-name="cid850" unicode="&#x2084;" 
 />
    <glyph glyph-name="dong" unicode="&#x20ab;" horiz-adv-x="546" 
d="M496 490q-6 0 -13.5 0.5t-15.5 0.5l-12 -348q-12 -5 -35 -11t-51 -11t-58 -7.5t-54 -1.5q-39 2 -71.5 11.5t-56 28.5t-36.5 47.5t-13 68.5q0 36 8.5 64.5t28 48.5t51.5 30t79 10q33 0 56.5 -9t38.5 -20.5t23 -22t11 -14.5q2 29 2 64.5v71.5q-40 -1 -79.5 -2t-68.5 0
q-23 -2 -34 12.5t-11 32.5q0 15 9 28t29 15q36 2 77 3t81 1q1 14 2 27.5t3 24.5q3 16 17.5 23t30 4.5t28 -13t10.5 -29.5l-2 -39l33 -3q18 -2 25 -15.5t5 -28.5q-2 -17 -11 -30t-26 -12zM460 -23q-14 1 -40.5 1h-59.5t-69.5 -0.5t-71 -1.5t-63.5 -1h-47q-23 -2 -34 12.5
t-11 32.5q0 15 9 28t29 15l85 2.5t104 2t101 -0.5t75 -4q18 -2 25 -15.5t5 -28.5q-2 -17 -11 -30t-26 -12zM247 343q-77 0 -77 -77q0 -31 25.5 -49.5t70.5 -20.5q10 0 24 1.5t28.5 4t28 6t22.5 8.5q5 53 -22.5 89t-99.5 38z" />
    <glyph glyph-name="cid141" unicode="&#x2103;" 
 />
    <glyph glyph-name="cid215" unicode="&#x2109;" 
 />
    <glyph glyph-name="cid590" unicode="&#x2113;" 
 />
    <glyph glyph-name="cid258" unicode="&#x2116;" 
 />
    <glyph glyph-name="cid263" unicode="&#x2121;" 
 />
    <glyph glyph-name="cid260" unicode="&#x2122;" 
 />
    <glyph glyph-name="cid643" unicode="&#x2126;" 
 />
    <glyph glyph-name="cid142" unicode="&#x212b;" 
 />
    <glyph glyph-name="cid749" unicode="&#x2153;" 
 />
    <glyph glyph-name="cid750" unicode="&#x2154;" 
 />
    <glyph glyph-name="cid753" unicode="&#x215b;" 
 />
    <glyph glyph-name="cid754" unicode="&#x215c;" 
 />
    <glyph glyph-name="cid755" unicode="&#x215d;" 
 />
    <glyph glyph-name="cid756" unicode="&#x215e;" 
 />
    <glyph glyph-name="cid461" unicode="&#x2160;" 
 />
    <glyph glyph-name="cid462" unicode="&#x2161;" 
 />
    <glyph glyph-name="cid463" unicode="&#x2162;" 
 />
    <glyph glyph-name="cid464" unicode="&#x2163;" 
 />
    <glyph glyph-name="cid465" unicode="&#x2164;" 
 />
    <glyph glyph-name="cid466" unicode="&#x2165;" 
 />
    <glyph glyph-name="cid467" unicode="&#x2166;" 
 />
    <glyph glyph-name="cid468" unicode="&#x2167;" 
 />
    <glyph glyph-name="cid469" unicode="&#x2168;" 
 />
    <glyph glyph-name="cid470" unicode="&#x2169;" 
 />
    <glyph glyph-name="cid451" unicode="&#x2170;" 
 />
    <glyph glyph-name="cid452" unicode="&#x2171;" 
 />
    <glyph glyph-name="cid453" unicode="&#x2172;" 
 />
    <glyph glyph-name="cid454" unicode="&#x2173;" 
 />
    <glyph glyph-name="cid455" unicode="&#x2174;" 
 />
    <glyph glyph-name="cid456" unicode="&#x2175;" 
 />
    <glyph glyph-name="cid457" unicode="&#x2176;" 
 />
    <glyph glyph-name="cid458" unicode="&#x2177;" 
 />
    <glyph glyph-name="cid459" unicode="&#x2178;" 
 />
    <glyph glyph-name="cid460" unicode="&#x2179;" 
 />
    <glyph glyph-name="cid171" unicode="&#x2190;" 
 />
    <glyph glyph-name="cid172" unicode="&#x2191;" 
 />
    <glyph glyph-name="cid170" unicode="&#x2192;" 
 />
    <glyph glyph-name="cid173" unicode="&#x2193;" 
 />
    <glyph glyph-name="cid174" unicode="&#x2194;" 
 />
    <glyph glyph-name="cid247" unicode="&#x2195;" 
 />
    <glyph glyph-name="cid250" unicode="&#x2196;" 
 />
    <glyph glyph-name="cid248" unicode="&#x2197;" 
 />
    <glyph glyph-name="cid251" unicode="&#x2198;" 
 />
    <glyph glyph-name="cid249" unicode="&#x2199;" 
 />
    <glyph glyph-name="cid8868" unicode="&#x21b0;" 
 />
    <glyph glyph-name="cid8865" unicode="&#x21b1;" 
 />
    <glyph glyph-name="cid8864" unicode="&#x21b2;" 
 />
    <glyph glyph-name="cid8869" unicode="&#x21b3;" 
 />
    <glyph glyph-name="cid8867" unicode="&#x21b4;" 
 />
    <glyph glyph-name="cid8884" unicode="&#x21bc;" 
 />
    <glyph glyph-name="cid8885" unicode="&#x21c0;" 
 />
    <glyph glyph-name="cid8896" unicode="&#x21c4;" 
 />
    <glyph glyph-name="cid8897" unicode="&#x21c5;" 
 />
    <glyph glyph-name="cid8816" unicode="&#x21cd;" 
 />
    <glyph glyph-name="cid8815" unicode="&#x21cf;" 
 />
    <glyph glyph-name="cid8814" unicode="&#x21d0;" 
 />
    <glyph glyph-name="cid8854" unicode="&#x21d1;" 
 />
    <glyph glyph-name="cid8854" unicode="&#x2963;" 
 />
    <glyph glyph-name="cid195" unicode="&#x21d2;" 
 />
    <glyph glyph-name="cid8855" unicode="&#x21d3;" 
 />
    <glyph glyph-name="cid8855" unicode="&#x2965;" 
 />
    <glyph glyph-name="cid196" unicode="&#x21d4;" 
 />
    <glyph glyph-name="cid9190" unicode="&#x21e0;" 
 />
    <glyph glyph-name="cid9192" unicode="&#x21e1;" 
 />
    <glyph glyph-name="cid9191" unicode="&#x21e2;" 
 />
    <glyph glyph-name="cid9193" unicode="&#x21e3;" 
 />
    <glyph glyph-name="cid9198" unicode="&#x21e6;" 
 />
    <glyph glyph-name="cid9200" unicode="&#x21e7;" 
 />
    <glyph glyph-name="cid9199" unicode="&#x21e8;" 
 />
    <glyph glyph-name="cid9201" unicode="&#x21e9;" 
 />
    <glyph glyph-name="cid197" unicode="&#x2200;" 
 />
    <glyph glyph-name="cid151" unicode="&#x2202;" 
 />
    <glyph glyph-name="cid198" unicode="&#x2203;" 
 />
    <glyph glyph-name="cid8715" unicode="&#x2206;" 
 />
    <glyph glyph-name="cid152" unicode="&#x2207;" 
 />
    <glyph glyph-name="cid184" unicode="&#x2208;" 
 />
    <glyph glyph-name="cid8749" unicode="&#x2209;" 
 />
    <glyph glyph-name="cid185" unicode="&#x220b;" 
 />
    <glyph glyph-name="cid8750" unicode="&#x220c;" 
 />
    <glyph glyph-name="cid213" unicode="&#x220f;" 
 />
    <glyph glyph-name="cid212" unicode="&#x2211;" 
 />
    <glyph glyph-name="cid8726" unicode="&#x2213;" 
 />
    <glyph glyph-name="cid178" unicode="&#x221a;" 
 />
    <glyph glyph-name="cid180" unicode="&#x221d;" 
 />
    <glyph glyph-name="cid136" unicode="&#x221e;" 
 />
    <glyph glyph-name="cid8717" unicode="&#x221f;" 
 />
    <glyph glyph-name="cid148" unicode="&#x2220;" 
 />
    <glyph glyph-name="cid8738" unicode="&#x2222;" 
 />
    <glyph glyph-name="cid8719" unicode="&#x2225;" 
 />
    <glyph glyph-name="cid8720" unicode="&#x2226;" 
 />
    <glyph glyph-name="cid192" unicode="&#x2227;" 
 />
    <glyph glyph-name="cid193" unicode="&#x2228;" 
 />
    <glyph glyph-name="cid191" unicode="&#x2229;" 
 />
    <glyph glyph-name="cid190" unicode="&#x222a;" 
 />
    <glyph glyph-name="cid182" unicode="&#x222b;" 
 />
    <glyph glyph-name="cid183" unicode="&#x222c;" 
 />
    <glyph glyph-name="cid211" unicode="&#x222e;" 
 />
    <glyph glyph-name="cid137" unicode="&#x2234;" 
 />
    <glyph glyph-name="cid181" unicode="&#x2235;" 
 />
    <glyph glyph-name="cid8321" unicode="&#x2237;" 
 />
    <glyph glyph-name="cid113" unicode="&#x223c;" 
 />
    <glyph glyph-name="cid113" unicode="&#xff5e;" 
 />
    <glyph glyph-name="cid113" unicode="&#x301c;" 
 />
    <glyph glyph-name="cid179" unicode="&#x223d;" 
 />
    <glyph glyph-name="cid8500" unicode="&#x2243;" 
 />
    <glyph glyph-name="cid8499" unicode="&#x2245;" 
 />
    <glyph glyph-name="cid8501" unicode="&#x2248;" 
 />
    <glyph glyph-name="cid8739" unicode="&#x2250;" 
 />
    <glyph glyph-name="cid8723" unicode="&#x2251;" 
 />
    <glyph glyph-name="cid154" unicode="&#x2252;" 
 />
    <glyph glyph-name="cid8722" unicode="&#x2253;" 
 />
    <glyph glyph-name="cid8753" unicode="&#x225a;" 
 />
    <glyph glyph-name="cid133" unicode="&#x2260;" 
 />
    <glyph glyph-name="cid153" unicode="&#x2261;" 
 />
    <glyph glyph-name="cid8734" unicode="&#x2262;" 
 />
    <glyph glyph-name="cid134" unicode="&#x2264;" 
 />
    <glyph glyph-name="cid135" unicode="&#x2265;" 
 />
    <glyph glyph-name="cid8724" unicode="&#x2266;" 
 />
    <glyph glyph-name="cid8725" unicode="&#x2267;" 
 />
    <glyph glyph-name="cid8745" unicode="&#x226e;" 
 />
    <glyph glyph-name="cid8746" unicode="&#x226f;" 
 />
    <glyph glyph-name="cid8481" unicode="&#x2270;" 
 />
    <glyph glyph-name="cid8482" unicode="&#x2271;" 
 />
    <glyph glyph-name="cid8483" unicode="&#x2272;" 
 />
    <glyph glyph-name="cid8484" unicode="&#x2273;" 
 />
    <glyph glyph-name="cid8489" unicode="&#x2276;" 
 />
    <glyph glyph-name="cid8490" unicode="&#x2277;" 
 />
    <glyph glyph-name="cid8491" unicode="&#x2279;" 
 />
    <glyph glyph-name="cid8475" unicode="&#x227a;" 
 />
    <glyph glyph-name="cid8476" unicode="&#x227b;" 
 />
    <glyph glyph-name="cid8479" unicode="&#x2280;" 
 />
    <glyph glyph-name="cid8480" unicode="&#x2281;" 
 />
    <glyph glyph-name="cid188" unicode="&#x2282;" 
 />
    <glyph glyph-name="cid189" unicode="&#x2283;" 
 />
    <glyph glyph-name="cid8748" unicode="&#x2284;" 
 />
    <glyph glyph-name="cid8747" unicode="&#x2285;" 
 />
    <glyph glyph-name="cid186" unicode="&#x2286;" 
 />
    <glyph glyph-name="cid187" unicode="&#x2287;" 
 />
    <glyph glyph-name="cid8486" unicode="&#x228a;" 
 />
    <glyph glyph-name="cid8486" unicode="&#x2acb;" 
 />
    <glyph glyph-name="cid8488" unicode="&#x228b;" 
 />
    <glyph glyph-name="cid8488" unicode="&#x2acc;" 
 />
    <glyph glyph-name="cid8727" unicode="&#x2295;" 
 />
    <glyph glyph-name="cid8728" unicode="&#x2296;" 
 />
    <glyph glyph-name="cid8729" unicode="&#x2297;" 
 />
    <glyph glyph-name="cid227" unicode="&#x2299;" 
 />
    <glyph glyph-name="cid227" unicode="&#x25c9;" 
 />
    <glyph glyph-name="cid8742" unicode="&#x22a3;" 
 />
    <glyph glyph-name="cid8503" unicode="&#x22a4;" 
 />
    <glyph glyph-name="cid149" unicode="&#x22a5;" 
 />
    <glyph glyph-name="cid8751" unicode="&#x22bb;" 
 />
    <glyph glyph-name="cid8752" unicode="&#x22bc;" 
 />
    <glyph glyph-name="cid8477" unicode="&#x22ce;" 
 />
    <glyph glyph-name="cid8478" unicode="&#x22cf;" 
 />
    <glyph glyph-name="cid8492" unicode="&#x22da;" 
 />
    <glyph glyph-name="cid8493" unicode="&#x22db;" 
 />
    <glyph glyph-name="cid8320" unicode="&#x22ee;" 
 />
    <glyph glyph-name="cid8754" unicode="&#x2306;" 
 />
    <glyph glyph-name="cid150" unicode="&#x2312;" 
 />
    <glyph glyph-name="cid8731" unicode="&#x2314;" 
 />
    <glyph glyph-name="cid733" unicode="&#x2460;" 
 />
    <glyph glyph-name="cid734" unicode="&#x2461;" 
 />
    <glyph glyph-name="cid735" unicode="&#x2462;" 
 />
    <glyph glyph-name="cid736" unicode="&#x2463;" 
 />
    <glyph glyph-name="cid737" unicode="&#x2464;" 
 />
    <glyph glyph-name="cid738" unicode="&#x2465;" 
 />
    <glyph glyph-name="cid739" unicode="&#x2466;" 
 />
    <glyph glyph-name="cid740" unicode="&#x2467;" 
 />
    <glyph glyph-name="cid741" unicode="&#x2468;" 
 />
    <glyph glyph-name="cid742" unicode="&#x2469;" 
 />
    <glyph glyph-name="cid743" unicode="&#x246a;" 
 />
    <glyph glyph-name="cid744" unicode="&#x246b;" 
 />
    <glyph glyph-name="cid745" unicode="&#x246c;" 
 />
    <glyph glyph-name="cid746" unicode="&#x246d;" 
 />
    <glyph glyph-name="cid747" unicode="&#x246e;" 
 />
    <glyph glyph-name="cid8791" unicode="&#x246f;" 
 />
    <glyph glyph-name="cid8792" unicode="&#x2470;" 
 />
    <glyph glyph-name="cid8793" unicode="&#x2471;" 
 />
    <glyph glyph-name="cid8794" unicode="&#x2472;" 
 />
    <glyph glyph-name="cid8795" unicode="&#x2473;" 
 />
    <glyph glyph-name="cid827" unicode="&#x2474;" 
 />
    <glyph glyph-name="cid828" unicode="&#x2475;" 
 />
    <glyph glyph-name="cid829" unicode="&#x2476;" 
 />
    <glyph glyph-name="cid830" unicode="&#x2477;" 
 />
    <glyph glyph-name="cid831" unicode="&#x2478;" 
 />
    <glyph glyph-name="cid832" unicode="&#x2479;" 
 />
    <glyph glyph-name="cid833" unicode="&#x247a;" 
 />
    <glyph glyph-name="cid834" unicode="&#x247b;" 
 />
    <glyph glyph-name="cid835" unicode="&#x247c;" 
 />
    <glyph glyph-name="cid836" unicode="&#x247d;" 
 />
    <glyph glyph-name="cid837" unicode="&#x247e;" 
 />
    <glyph glyph-name="cid838" unicode="&#x247f;" 
 />
    <glyph glyph-name="cid839" unicode="&#x2480;" 
 />
    <glyph glyph-name="cid840" unicode="&#x2481;" 
 />
    <glyph glyph-name="cid841" unicode="&#x2482;" 
 />
    <glyph glyph-name="cid9042" unicode="&#x2483;" 
 />
    <glyph glyph-name="cid9043" unicode="&#x2484;" 
 />
    <glyph glyph-name="cid9044" unicode="&#x2485;" 
 />
    <glyph glyph-name="cid9045" unicode="&#x2486;" 
 />
    <glyph glyph-name="cid9046" unicode="&#x2487;" 
 />
    <glyph glyph-name="cid801" unicode="&#x249c;" 
 />
    <glyph glyph-name="cid802" unicode="&#x249d;" 
 />
    <glyph glyph-name="cid803" unicode="&#x249e;" 
 />
    <glyph glyph-name="cid804" unicode="&#x249f;" 
 />
    <glyph glyph-name="cid805" unicode="&#x24a0;" 
 />
    <glyph glyph-name="cid806" unicode="&#x24a1;" 
 />
    <glyph glyph-name="cid807" unicode="&#x24a2;" 
 />
    <glyph glyph-name="cid808" unicode="&#x24a3;" 
 />
    <glyph glyph-name="cid809" unicode="&#x24a4;" 
 />
    <glyph glyph-name="cid810" unicode="&#x24a5;" 
 />
    <glyph glyph-name="cid811" unicode="&#x24a6;" 
 />
    <glyph glyph-name="cid812" unicode="&#x24a7;" 
 />
    <glyph glyph-name="cid813" unicode="&#x24a8;" 
 />
    <glyph glyph-name="cid814" unicode="&#x24a9;" 
 />
    <glyph glyph-name="cid815" unicode="&#x24aa;" 
 />
    <glyph glyph-name="cid816" unicode="&#x24ab;" 
 />
    <glyph glyph-name="cid817" unicode="&#x24ac;" 
 />
    <glyph glyph-name="cid818" unicode="&#x24ad;" 
 />
    <glyph glyph-name="cid819" unicode="&#x24ae;" 
 />
    <glyph glyph-name="cid820" unicode="&#x24af;" 
 />
    <glyph glyph-name="cid821" unicode="&#x24b0;" 
 />
    <glyph glyph-name="cid822" unicode="&#x24b1;" 
 />
    <glyph glyph-name="cid823" unicode="&#x24b2;" 
 />
    <glyph glyph-name="cid824" unicode="&#x24b3;" 
 />
    <glyph glyph-name="cid825" unicode="&#x24b4;" 
 />
    <glyph glyph-name="cid826" unicode="&#x24b5;" 
 />
    <glyph glyph-name="cid8388" unicode="&#x24b6;" 
 />
    <glyph glyph-name="cid8389" unicode="&#x24b7;" 
 />
    <glyph glyph-name="cid8390" unicode="&#x24b8;" 
 />
    <glyph glyph-name="cid8391" unicode="&#x24b9;" 
 />
    <glyph glyph-name="cid8392" unicode="&#x24ba;" 
 />
    <glyph glyph-name="cid8393" unicode="&#x24bb;" 
 />
    <glyph glyph-name="cid8394" unicode="&#x24bc;" 
 />
    <glyph glyph-name="cid8395" unicode="&#x24bd;" 
 />
    <glyph glyph-name="cid8396" unicode="&#x24be;" 
 />
    <glyph glyph-name="cid8397" unicode="&#x24bf;" 
 />
    <glyph glyph-name="cid8398" unicode="&#x24c0;" 
 />
    <glyph glyph-name="cid8399" unicode="&#x24c1;" 
 />
    <glyph glyph-name="cid8400" unicode="&#x24c2;" 
 />
    <glyph glyph-name="cid8401" unicode="&#x24c3;" 
 />
    <glyph glyph-name="cid8402" unicode="&#x24c4;" 
 />
    <glyph glyph-name="cid8403" unicode="&#x24c5;" 
 />
    <glyph glyph-name="cid8404" unicode="&#x24c6;" 
 />
    <glyph glyph-name="cid8405" unicode="&#x24c7;" 
 />
    <glyph glyph-name="cid8406" unicode="&#x24c8;" 
 />
    <glyph glyph-name="cid8407" unicode="&#x24c9;" 
 />
    <glyph glyph-name="cid8408" unicode="&#x24ca;" 
 />
    <glyph glyph-name="cid8409" unicode="&#x24cb;" 
 />
    <glyph glyph-name="cid8410" unicode="&#x24cc;" 
 />
    <glyph glyph-name="cid8411" unicode="&#x24cd;" 
 />
    <glyph glyph-name="cid8412" unicode="&#x24ce;" 
 />
    <glyph glyph-name="cid8413" unicode="&#x24cf;" 
 />
    <glyph glyph-name="cid707" unicode="&#x24d0;" 
 />
    <glyph glyph-name="cid708" unicode="&#x24d1;" 
 />
    <glyph glyph-name="cid709" unicode="&#x24d2;" 
 />
    <glyph glyph-name="cid710" unicode="&#x24d3;" 
 />
    <glyph glyph-name="cid711" unicode="&#x24d4;" 
 />
    <glyph glyph-name="cid712" unicode="&#x24d5;" 
 />
    <glyph glyph-name="cid713" unicode="&#x24d6;" 
 />
    <glyph glyph-name="cid714" unicode="&#x24d7;" 
 />
    <glyph glyph-name="cid715" unicode="&#x24d8;" 
 />
    <glyph glyph-name="cid716" unicode="&#x24d9;" 
 />
    <glyph glyph-name="cid717" unicode="&#x24da;" 
 />
    <glyph glyph-name="cid718" unicode="&#x24db;" 
 />
    <glyph glyph-name="cid719" unicode="&#x24dc;" 
 />
    <glyph glyph-name="cid720" unicode="&#x24dd;" 
 />
    <glyph glyph-name="cid721" unicode="&#x24de;" 
 />
    <glyph glyph-name="cid722" unicode="&#x24df;" 
 />
    <glyph glyph-name="cid723" unicode="&#x24e0;" 
 />
    <glyph glyph-name="cid724" unicode="&#x24e1;" 
 />
    <glyph glyph-name="cid725" unicode="&#x24e2;" 
 />
    <glyph glyph-name="cid726" unicode="&#x24e3;" 
 />
    <glyph glyph-name="cid727" unicode="&#x24e4;" 
 />
    <glyph glyph-name="cid728" unicode="&#x24e5;" 
 />
    <glyph glyph-name="cid729" unicode="&#x24e6;" 
 />
    <glyph glyph-name="cid730" unicode="&#x24e7;" 
 />
    <glyph glyph-name="cid731" unicode="&#x24e8;" 
 />
    <glyph glyph-name="cid732" unicode="&#x24e9;" 
 />
    <glyph glyph-name="cid8683" unicode="&#x24eb;" 
 />
    <glyph glyph-name="cid8684" unicode="&#x24ec;" 
 />
    <glyph glyph-name="cid8685" unicode="&#x24ed;" 
 />
    <glyph glyph-name="cid8686" unicode="&#x24ee;" 
 />
    <glyph glyph-name="cid8687" unicode="&#x24ef;" 
 />
    <glyph glyph-name="cid8688" unicode="&#x24f0;" 
 />
    <glyph glyph-name="cid8689" unicode="&#x24f1;" 
 />
    <glyph glyph-name="cid8690" unicode="&#x24f2;" 
 />
    <glyph glyph-name="cid8691" unicode="&#x24f3;" 
 />
    <glyph glyph-name="cid8692" unicode="&#x24f4;" 
 />
    <glyph glyph-name="cid519" unicode="&#x2500;" 
 />
    <glyph glyph-name="cid530" unicode="&#x2501;" 
 />
    <glyph glyph-name="cid520" unicode="&#x2502;" 
 />
    <glyph glyph-name="cid531" unicode="&#x2503;" 
 />
    <glyph glyph-name="cid521" unicode="&#x250c;" 
 />
    <glyph glyph-name="cid558" unicode="&#x250d;" 
 />
    <glyph glyph-name="cid557" unicode="&#x250e;" 
 />
    <glyph glyph-name="cid532" unicode="&#x250f;" 
 />
    <glyph glyph-name="cid522" unicode="&#x2510;" 
 />
    <glyph glyph-name="cid552" unicode="&#x2511;" 
 />
    <glyph glyph-name="cid551" unicode="&#x2512;" 
 />
    <glyph glyph-name="cid533" unicode="&#x2513;" 
 />
    <glyph glyph-name="cid524" unicode="&#x2514;" 
 />
    <glyph glyph-name="cid556" unicode="&#x2515;" 
 />
    <glyph glyph-name="cid555" unicode="&#x2516;" 
 />
    <glyph glyph-name="cid535" unicode="&#x2517;" 
 />
    <glyph glyph-name="cid523" unicode="&#x2518;" 
 />
    <glyph glyph-name="cid554" unicode="&#x2519;" 
 />
    <glyph glyph-name="cid553" unicode="&#x251a;" 
 />
    <glyph glyph-name="cid534" unicode="&#x251b;" 
 />
    <glyph glyph-name="cid525" unicode="&#x251c;" 
 />
    <glyph glyph-name="cid546" unicode="&#x251d;" 
 />
    <glyph glyph-name="cid559" unicode="&#x251e;" 
 />
    <glyph glyph-name="cid560" unicode="&#x251f;" 
 />
    <glyph glyph-name="cid541" unicode="&#x2520;" 
 />
    <glyph glyph-name="cid561" unicode="&#x2521;" 
 />
    <glyph glyph-name="cid562" unicode="&#x2522;" 
 />
    <glyph glyph-name="cid536" unicode="&#x2523;" 
 />
    <glyph glyph-name="cid527" unicode="&#x2524;" 
 />
    <glyph glyph-name="cid548" unicode="&#x2525;" 
 />
    <glyph glyph-name="cid563" unicode="&#x2526;" 
 />
    <glyph glyph-name="cid564" unicode="&#x2527;" 
 />
    <glyph glyph-name="cid543" unicode="&#x2528;" 
 />
    <glyph glyph-name="cid565" unicode="&#x2529;" 
 />
    <glyph glyph-name="cid566" unicode="&#x252a;" 
 />
    <glyph glyph-name="cid538" unicode="&#x252b;" 
 />
    <glyph glyph-name="cid526" unicode="&#x252c;" 
 />
    <glyph glyph-name="cid567" unicode="&#x252d;" 
 />
    <glyph glyph-name="cid568" unicode="&#x252e;" 
 />
    <glyph glyph-name="cid542" unicode="&#x252f;" 
 />
    <glyph glyph-name="cid547" unicode="&#x2530;" 
 />
    <glyph glyph-name="cid569" unicode="&#x2531;" 
 />
    <glyph glyph-name="cid570" unicode="&#x2532;" 
 />
    <glyph glyph-name="cid537" unicode="&#x2533;" 
 />
    <glyph glyph-name="cid528" unicode="&#x2534;" 
 />
    <glyph glyph-name="cid571" unicode="&#x2535;" 
 />
    <glyph glyph-name="cid572" unicode="&#x2536;" 
 />
    <glyph glyph-name="cid544" unicode="&#x2537;" 
 />
    <glyph glyph-name="cid549" unicode="&#x2538;" 
 />
    <glyph glyph-name="cid573" unicode="&#x2539;" 
 />
    <glyph glyph-name="cid574" unicode="&#x253a;" 
 />
    <glyph glyph-name="cid539" unicode="&#x253b;" 
 />
    <glyph glyph-name="cid529" unicode="&#x253c;" 
 />
    <glyph glyph-name="cid575" unicode="&#x253d;" 
 />
    <glyph glyph-name="cid576" unicode="&#x253e;" 
 />
    <glyph glyph-name="cid545" unicode="&#x253f;" 
 />
    <glyph glyph-name="cid577" unicode="&#x2540;" 
 />
    <glyph glyph-name="cid578" unicode="&#x2541;" 
 />
    <glyph glyph-name="cid550" unicode="&#x2542;" 
 />
    <glyph glyph-name="cid579" unicode="&#x2543;" 
 />
    <glyph glyph-name="cid580" unicode="&#x2544;" 
 />
    <glyph glyph-name="cid581" unicode="&#x2545;" 
 />
    <glyph glyph-name="cid582" unicode="&#x2546;" 
 />
    <glyph glyph-name="cid583" unicode="&#x2547;" 
 />
    <glyph glyph-name="cid584" unicode="&#x2548;" 
 />
    <glyph glyph-name="cid585" unicode="&#x2549;" 
 />
    <glyph glyph-name="cid586" unicode="&#x254a;" 
 />
    <glyph glyph-name="cid540" unicode="&#x254b;" 
 />
    <glyph glyph-name="cid232" unicode="&#x2592;" 
 />
    <glyph glyph-name="cid165" unicode="&#x25a0;" 
 />
    <glyph glyph-name="cid164" unicode="&#x25a1;" 
 />
    <glyph glyph-name="cid229" unicode="&#x25a3;" 
 />
    <glyph glyph-name="cid233" unicode="&#x25a4;" 
 />
    <glyph glyph-name="cid234" unicode="&#x25a5;" 
 />
    <glyph glyph-name="cid237" unicode="&#x25a6;" 
 />
    <glyph glyph-name="cid236" unicode="&#x25a7;" 
 />
    <glyph glyph-name="cid235" unicode="&#x25a8;" 
 />
    <glyph glyph-name="cid238" unicode="&#x25a9;" 
 />
    <glyph glyph-name="cid8736" unicode="&#x25b1;" 
 />
    <glyph glyph-name="cid167" unicode="&#x25b2;" 
 />
    <glyph glyph-name="cid166" unicode="&#x25b3;" 
 />
    <glyph glyph-name="cid8780" unicode="&#x25b5;" 
 />
    <glyph glyph-name="cid220" unicode="&#x25b6;" 
 />
    <glyph glyph-name="cid219" unicode="&#x25b7;" 
 />
    <glyph glyph-name="cid8781" unicode="&#x25b9;" 
 />
    <glyph glyph-name="cid169" unicode="&#x25bc;" 
 />
    <glyph glyph-name="cid168" unicode="&#x25bd;" 
 />
    <glyph glyph-name="cid8779" unicode="&#x25bf;" 
 />
    <glyph glyph-name="cid218" unicode="&#x25c0;" 
 />
    <glyph glyph-name="cid217" unicode="&#x25c1;" 
 />
    <glyph glyph-name="cid8782" unicode="&#x25c3;" 
 />
    <glyph glyph-name="cid163" unicode="&#x25c6;" 
 />
    <glyph glyph-name="cid162" unicode="&#x25c7;" 
 />
    <glyph glyph-name="cid228" unicode="&#x25c8;" 
 />
    <glyph glyph-name="cid8787" unicode="&#x25ca;" 
 />
    <glyph glyph-name="cid159" unicode="&#x25cb;" 
 />
    <glyph glyph-name="cid8639" unicode="&#x25cc;" 
 />
    <glyph glyph-name="cid161" unicode="&#x25ce;" 
 />
    <glyph glyph-name="cid160" unicode="&#x25cf;" 
 />
    <glyph glyph-name="cid230" unicode="&#x25d0;" 
 />
    <glyph glyph-name="cid231" unicode="&#x25d1;" 
 />
    <glyph glyph-name="cid8775" unicode="&#x25e6;" 
 />
    <glyph glyph-name="cid8633" unicode="&#x25ef;" 
 />
    <glyph glyph-name="uni2605" unicode="&#x2605;" horiz-adv-x="902" 
d="M295 285q-18 12 -42.5 27.5t-49 31.5t-46 31.5t-34.5 27.5q-7 3 -9.5 9.5t-1 13.5t7 12.5t15.5 6.5q15 0 38 0.5t50 0.5h56h57q14 62 28 120t34 113q3 7 11 12t17.5 5.5t19 -4.5t14.5 -18q23 -59 37.5 -115t31.5 -113h207q15 0 27.5 -0.5t20.5 -14.5q7 -14 -1 -22
q-50 -40 -102.5 -74.5t-103.5 -74.5l53 -198q2 -23 -13 -30t-29 -2q-29 14 -67.5 48.5t-82.5 73.5q-14 -11 -29.5 -25.5t-31.5 -29.5t-30.5 -29t-27.5 -24q-6 -5 -18 -11t-24 -5t-20 12.5t-4 40.5q3 22 8 48t11 52.5l12 53t11 50.5z" />
    <glyph glyph-name="uni2606" unicode="&#x2606;" horiz-adv-x="902" 
d="M259 96q5 44 12 92t15 93q-32 33 -71.5 60.5t-76.5 59.5q-6 5 -9 12.5t-1.5 14.5t8 12.5t17.5 5.5q31 2 71.5 2h96.5q14 59 31.5 118t36.5 111q4 9 13.5 14t21.5 5q10 0 20.5 -6t15.5 -17q23 -58 40.5 -114t33.5 -111h61.5t73.5 0.5t62 0.5h28q9 0 16.5 -4t11 -10.5
t2.5 -14t-8 -12.5l-198 -151l46 -193q1 -25 -14 -32.5t-30 -1.5q-29 14 -66.5 43t-82.5 69l-106 -85q-7 -5 -19 -10t-23 -5q-13 0 -22.5 12t-6.5 42zM522 277l-34 123q-32 0 -61 -0.5t-58 -0.5q-7 -26 -13 -53t-11 -54q20 -20 43.5 -42.5t44.5 -42.5zM476 448
q-12 41 -25.5 80t-28.5 79l-43 -159h97zM547 401q6 -22 12 -43.5t11 -44.5q34 26 63 47t63 44zM473 171q49 -45 94 -75q-9 31 -16.5 61l-15.5 62q-16 -12 -31 -23.5t-31 -24.5zM315 114q22 16 41.5 31t39.5 32q-16 15 -30.5 30t-31.5 30zM297 338l13 60q-20 0 -41 -0.5
t-53 -0.5z" />
    <glyph glyph-name="cid241" unicode="&#x260e;" 
 />
    <glyph glyph-name="cid240" unicode="&#x260f;" 
 />
    <glyph glyph-name="cid242" unicode="&#x261c;" 
 />
    <glyph glyph-name="cid9222" unicode="&#x261d;" 
 />
    <glyph glyph-name="cid243" unicode="&#x261e;" 
 />
    <glyph glyph-name="cid9223" unicode="&#x261f;" 
 />
    <glyph glyph-name="cid8664" unicode="&#x262f;" 
 />
    <glyph glyph-name="cid147" unicode="&#x2640;" 
 />
    <glyph glyph-name="cid146" unicode="&#x2642;" 
 />
    <glyph glyph-name="cid222" unicode="&#x2660;" 
 />
    <glyph glyph-name="uni2661" unicode="&#x2661;" horiz-adv-x="902" 
d="M255 653q35 0 63.5 -13t52 -33t42 -45t33.5 -50q9 21 26.5 45.5t41 46.5t51 36.5t56.5 14.5q53 0 89 -19t58 -47.5t32 -62t11 -61.5q1 -32 -7.5 -61.5t-23 -56.5t-33.5 -51t-40 -44q-35 -34 -69 -62.5t-67 -54t-66.5 -51t-67.5 -53.5q-6 -4 -13 -7t-13.5 -3t-12 3.5
t-7.5 13.5q-2 13 -6 26t-11 24q-22 47 -64.5 83t-87.5 72q-26 20 -50.5 41.5t-44 46.5t-32.5 53t-16 62q-4 35 6.5 71.5t33.5 66.5t57.5 49.5t78.5 19.5zM471 430q-8 -17 -22.5 -8.5t-23.5 26.5q-11 23 -28 50t-39 50t-48 37.5t-56 12.5q-29 -2 -51 -15t-37 -33.5t-22.5 -46
t-6.5 -53.5q0 -28 12 -52.5t30 -45.5t40 -40t42 -37q21 -18 44 -36.5t45 -38t41.5 -41t32.5 -46.5q2 -5 3 -9t3 -8q31 26 61 47.5l60 43t59.5 46.5t59.5 58q16 17 32 38t28.5 44t20 47t6.5 47q-2 21 -8.5 44t-22 42.5t-41.5 32t-65 12.5q-20 0 -40 -13t-38 -31.5t-31.5 -40
t-20.5 -38.5q-4 -9 -7.5 -18.5t-11.5 -26.5z" />
    <glyph glyph-name="cid226" unicode="&#x2663;" 
 />
    <glyph glyph-name="cid221" unicode="&#x2664;" 
 />
    <glyph glyph-name="heart" unicode="&#x2665;" horiz-adv-x="902" 
d="M255 653q35 0 63.5 -15t52 -38.5t42 -52.5t33.5 -57q9 24 26.5 53t41 54t51 41.5t56.5 16.5q53 0 89 -19t58 -47.5t32 -62t11 -61.5q1 -32 -7.5 -60.5t-23 -54.5t-33.5 -49t-40 -44q-35 -34 -69.5 -63t-68.5 -56t-68 -53t-68 -54q-6 -4 -12 -7t-12 -3t-11 3.5t-7 13.5
q-2 13 -6 26t-11 24q-22 47 -64.5 83t-87.5 72q-26 20 -50.5 41.5t-44 46.5t-32.5 53t-16 62q-4 35 5 71.5t31.5 66.5t57.5 49.5t82 19.5z" />
    <glyph glyph-name="cid225" unicode="&#x2667;" 
 />
    <glyph glyph-name="cid239" unicode="&#x2668;" 
 />
    <glyph glyph-name="cid253" unicode="&#x2669;" 
 />
    <glyph glyph-name="cid254" unicode="&#x266a;" 
 />
    <glyph glyph-name="cid255" unicode="&#x266c;" 
 />
    <glyph glyph-name="cid252" unicode="&#x266d;" 
 />
    <glyph glyph-name="cid8594" unicode="&#x266f;" 
 />
    <glyph glyph-name="cid8631" unicode="&#x2716;" 
 />
    <glyph glyph-name="cid8630" unicode="&#x271a;" 
 />
    <glyph glyph-name="cid8604" unicode="&#x273d;" 
 />
    <glyph glyph-name="cid8637" unicode="&#x2756;" 
 />
    <glyph glyph-name="cid8673" unicode="&#x2776;" 
 />
    <glyph glyph-name="cid8674" unicode="&#x2777;" 
 />
    <glyph glyph-name="cid8675" unicode="&#x2778;" 
 />
    <glyph glyph-name="cid8676" unicode="&#x2779;" 
 />
    <glyph glyph-name="cid8677" unicode="&#x277a;" 
 />
    <glyph glyph-name="cid8678" unicode="&#x277b;" 
 />
    <glyph glyph-name="cid8679" unicode="&#x277c;" 
 />
    <glyph glyph-name="cid8680" unicode="&#x277d;" 
 />
    <glyph glyph-name="cid8681" unicode="&#x277e;" 
 />
    <glyph glyph-name="cid8682" unicode="&#x277f;" 
 />
    <glyph glyph-name="cid8342" unicode="&#x278a;" 
 />
    <glyph glyph-name="cid8343" unicode="&#x278b;" 
 />
    <glyph glyph-name="cid8344" unicode="&#x278c;" 
 />
    <glyph glyph-name="cid8345" unicode="&#x278d;" 
 />
    <glyph glyph-name="cid8346" unicode="&#x278e;" 
 />
    <glyph glyph-name="cid8347" unicode="&#x278f;" 
 />
    <glyph glyph-name="cid8348" unicode="&#x2790;" 
 />
    <glyph glyph-name="cid8349" unicode="&#x2791;" 
 />
    <glyph glyph-name="cid8350" unicode="&#x2792;" 
 />
    <glyph glyph-name="cid8351" unicode="&#x2793;" 
 />
    <glyph glyph-name="cid8485" unicode="&#x2ac5;" 
 />
    <glyph glyph-name="cid8487" unicode="&#x2ac6;" 
 />
    <glyph glyph-name="cid6460" unicode="&#x2f00;" 
 />
    <glyph glyph-name="cid6460" unicode="&#x4e00;" 
 />
    <glyph glyph-name="cid6380" unicode="&#x2f04;" 
 />
    <glyph glyph-name="cid6380" unicode="&#x4e59;" 
 />
    <glyph glyph-name="cid6413" unicode="&#x2f06;" 
 />
    <glyph glyph-name="cid6413" unicode="&#x4e8c;" 
 />
    <glyph glyph-name="cid6443" unicode="&#x2f08;" 
 />
    <glyph glyph-name="cid6443" unicode="&#x4eba;" 
 />
    <glyph glyph-name="cid6477" unicode="&#x2f0a;" 
 />
    <glyph glyph-name="cid6477" unicode="&#x5165;" 
 />
    <glyph glyph-name="cid7499" unicode="&#x2f0b;" 
 />
    <glyph glyph-name="cid7499" unicode="&#x516b;" 
 />
    <glyph glyph-name="cid4270" unicode="&#x2f11;" 
 />
    <glyph glyph-name="cid4270" unicode="&#x5200;" 
 />
    <glyph glyph-name="cid4458" unicode="&#x2f12;" 
 />
    <glyph glyph-name="cid4458" unicode="&#xf98a;" 
 />
    <glyph glyph-name="cid4458" unicode="&#x529b;" 
 />
    <glyph glyph-name="cid5183" unicode="&#x2f14;" 
 />
    <glyph glyph-name="cid5183" unicode="&#x5315;" 
 />
    <glyph glyph-name="cid5772" unicode="&#x2f17;" 
 />
    <glyph glyph-name="cid5772" unicode="&#x5341;" 
 />
    <glyph glyph-name="cid5077" unicode="&#x2f18;" 
 />
    <glyph glyph-name="cid5077" unicode="&#x535c;" 
 />
    <glyph glyph-name="cid6201" unicode="&#x2f1c;" 
 />
    <glyph glyph-name="cid6201" unicode="&#x53c8;" 
 />
    <glyph glyph-name="cid3901" unicode="&#x2f1d;" 
 />
    <glyph glyph-name="cid3901" unicode="&#x53e3;" 
 />
    <glyph glyph-name="cid7451" unicode="&#x2f1f;" 
 />
    <glyph glyph-name="cid7451" unicode="&#x571f;" 
 />
    <glyph glyph-name="cid5255" unicode="&#x2f20;" 
 />
    <glyph glyph-name="cid5255" unicode="&#x58eb;" 
 />
    <glyph glyph-name="cid5403" unicode="&#x2f23;" 
 />
    <glyph glyph-name="cid5403" unicode="&#x5915;" 
 />
    <glyph glyph-name="cid4253" unicode="&#x2f24;" 
 />
    <glyph glyph-name="cid4253" unicode="&#x5927;" 
 />
    <glyph glyph-name="cid4159" unicode="&#x2f25;" 
 />
    <glyph glyph-name="cid4159" unicode="&#xf981;" 
 />
    <glyph glyph-name="cid4159" unicode="&#x5973;" 
 />
    <glyph glyph-name="cid6488" unicode="&#x2f26;" 
 />
    <glyph glyph-name="cid6488" unicode="&#x5b50;" 
 />
    <glyph glyph-name="cid7247" unicode="&#x2f28;" 
 />
    <glyph glyph-name="cid7247" unicode="&#x5bf8;" 
 />
    <glyph glyph-name="cid5504" unicode="&#x2f29;" 
 />
    <glyph glyph-name="cid5504" unicode="&#x5c0f;" 
 />
    <glyph glyph-name="cid5697" unicode="&#x2f2b;" 
 />
    <glyph glyph-name="cid5697" unicode="&#x5c38;" 
 />
    <glyph glyph-name="cid5305" unicode="&#x2f2d;" 
 />
    <glyph glyph-name="cid5305" unicode="&#x5c71;" 
 />
    <glyph glyph-name="cid3791" unicode="&#x2f2f;" 
 />
    <glyph glyph-name="cid3791" unicode="&#x5de5;" 
 />
    <glyph glyph-name="cid4077" unicode="&#x2f30;" 
 />
    <glyph glyph-name="cid4077" unicode="&#x5df1;" 
 />
    <glyph glyph-name="cid3604" unicode="&#x2f31;" 
 />
    <glyph glyph-name="cid3604" unicode="&#x5dfe;" 
 />
    <glyph glyph-name="cid3481" unicode="&#x2f32;" 
 />
    <glyph glyph-name="cid3481" unicode="&#x5e72;" 
 />
    <glyph glyph-name="cid3964" unicode="&#x2f38;" 
 />
    <glyph glyph-name="cid3964" unicode="&#x5f13;" 
 />
    <glyph glyph-name="cid5764" unicode="&#x2f3c;" 
 />
    <glyph glyph-name="cid5764" unicode="&#x5fc3;" 
 />
    <glyph glyph-name="cid3804" unicode="&#x2f3d;" 
 />
    <glyph glyph-name="cid3804" unicode="&#x6208;" 
 />
    <glyph glyph-name="cid7808" unicode="&#x2f3e;" 
 />
    <glyph glyph-name="cid7808" unicode="&#x6236;" 
 />
    <glyph glyph-name="cid5580" unicode="&#x2f3f;" 
 />
    <glyph glyph-name="cid5580" unicode="&#x624b;" 
 />
    <glyph glyph-name="cid6951" unicode="&#x2f40;" 
 />
    <glyph glyph-name="cid6951" unicode="&#x652f;" 
 />
    <glyph glyph-name="cid4840" unicode="&#x2f42;" 
 />
    <glyph glyph-name="cid4840" unicode="&#x6587;" 
 />
    <glyph glyph-name="cid4349" unicode="&#x2f43;" 
 />
    <glyph glyph-name="cid4349" unicode="&#x6597;" 
 />
    <glyph glyph-name="cid4027" unicode="&#x2f44;" 
 />
    <glyph glyph-name="cid4027" unicode="&#x65a4;" 
 />
    <glyph glyph-name="cid4950" unicode="&#x2f45;" 
 />
    <glyph glyph-name="cid4950" unicode="&#x65b9;" 
 />
    <glyph glyph-name="cid4819" unicode="&#x2f46;" 
 />
    <glyph glyph-name="cid4819" unicode="&#x65e0;" 
 />
    <glyph glyph-name="cid6464" unicode="&#x2f47;" 
 />
    <glyph glyph-name="cid6464" unicode="&#x65e5;" 
 />
    <glyph glyph-name="cid6125" unicode="&#x2f48;" 
 />
    <glyph glyph-name="cid6125" unicode="&#x66f0;" 
 />
    <glyph glyph-name="cid6281" unicode="&#x2f49;" 
 />
    <glyph glyph-name="cid6281" unicode="&#x6708;" 
 />
    <glyph glyph-name="cid4788" unicode="&#x2f4a;" 
 />
    <glyph glyph-name="cid4788" unicode="&#x6728;" 
 />
    <glyph glyph-name="cid8027" unicode="&#x2f4b;" 
 />
    <glyph glyph-name="cid8027" unicode="&#x6b20;" 
 />
    <glyph glyph-name="cid6956" unicode="&#x2f4c;" 
 />
    <glyph glyph-name="cid6956" unicode="&#x6b62;" 
 />
    <glyph glyph-name="cid4822" unicode="&#x2f4f;" 
 />
    <glyph glyph-name="cid4822" unicode="&#x6bcb;" 
 />
    <glyph glyph-name="cid5196" unicode="&#x2f50;" 
 />
    <glyph glyph-name="cid5196" unicode="&#x6bd4;" 
 />
    <glyph glyph-name="cid4776" unicode="&#x2f51;" 
 />
    <glyph glyph-name="cid4776" unicode="&#x6bdb;" 
 />
    <glyph glyph-name="cid5774" unicode="&#x2f52;" 
 />
    <glyph glyph-name="cid5774" unicode="&#x6c0f;" 
 />
    <glyph glyph-name="cid5587" unicode="&#x2f54;" 
 />
    <glyph glyph-name="cid5587" unicode="&#x6c34;" 
 />
    <glyph glyph-name="cid7867" unicode="&#x2f55;" 
 />
    <glyph glyph-name="cid7867" unicode="&#x706b;" 
 />
    <glyph glyph-name="cid6803" unicode="&#x2f56;" 
 />
    <glyph glyph-name="cid6803" unicode="&#x722a;" 
 />
    <glyph glyph-name="cid5129" unicode="&#x2f57;" 
 />
    <glyph glyph-name="cid5129" unicode="&#x7236;" 
 />
    <glyph glyph-name="cid7962" unicode="&#x2f58;" 
 />
    <glyph glyph-name="cid7962" unicode="&#x723b;" 
 />
    <glyph glyph-name="cid7521" unicode="&#x2f5a;" 
 />
    <glyph glyph-name="cid7521" unicode="&#x7247;" 
 />
    <glyph glyph-name="cid5782" unicode="&#x2f5b;" 
 />
    <glyph glyph-name="cid5782" unicode="&#x7259;" 
 />
    <glyph glyph-name="cid6210" unicode="&#x2f5c;" 
 />
    <glyph glyph-name="cid6210" unicode="&#x725b;" 
 />
    <glyph glyph-name="cid3639" unicode="&#x2f5d;" 
 />
    <glyph glyph-name="cid3639" unicode="&#x72ac;" 
 />
    <glyph glyph-name="cid7741" unicode="&#x2f5e;" 
 />
    <glyph glyph-name="cid7741" unicode="&#x7384;" 
 />
    <glyph glyph-name="cid6081" unicode="&#x2f5f;" 
 />
    <glyph glyph-name="cid6081" unicode="&#x7389;" 
 />
    <glyph glyph-name="cid3806" unicode="&#x2f60;" 
 />
    <glyph glyph-name="cid3806" unicode="&#x74dc;" 
 />
    <glyph glyph-name="cid6100" unicode="&#x2f61;" 
 />
    <glyph glyph-name="cid6100" unicode="&#x74e6;" 
 />
    <glyph glyph-name="cid3521" unicode="&#x2f62;" 
 />
    <glyph glyph-name="cid3521" unicode="&#x7518;" 
 />
    <glyph glyph-name="cid5370" unicode="&#x2f63;" 
 />
    <glyph glyph-name="cid5370" unicode="&#x751f;" 
 />
    <glyph glyph-name="cid6189" unicode="&#x2f64;" 
 />
    <glyph glyph-name="cid6189" unicode="&#x7528;" 
 />
    <glyph glyph-name="cid6664" unicode="&#x2f65;" 
 />
    <glyph glyph-name="cid6664" unicode="&#x7530;" 
 />
    <glyph glyph-name="cid7610" unicode="&#x2f66;" 
 />
    <glyph glyph-name="cid7610" unicode="&#x758b;" 
 />
    <glyph glyph-name="cid4993" unicode="&#x2f69;" 
 />
    <glyph glyph-name="cid4993" unicode="&#x767d;" 
 />
    <glyph glyph-name="cid7600" unicode="&#x2f6a;" 
 />
    <glyph glyph-name="cid7600" unicode="&#x76ae;" 
 />
    <glyph glyph-name="cid4755" unicode="&#x2f6b;" 
 />
    <glyph glyph-name="cid4755" unicode="&#x76bf;" 
 />
    <glyph glyph-name="cid4791" unicode="&#x2f6c;" 
 />
    <glyph glyph-name="cid4791" unicode="&#x76ee;" 
 />
    <glyph glyph-name="cid4781" unicode="&#x2f6d;" 
 />
    <glyph glyph-name="cid4781" unicode="&#x77db;" 
 />
    <glyph glyph-name="cid5709" unicode="&#x2f6e;" 
 />
    <glyph glyph-name="cid5709" unicode="&#x77e2;" 
 />
    <glyph glyph-name="cid5413" unicode="&#x2f6f;" 
 />
    <glyph glyph-name="cid5413" unicode="&#x77f3;" 
 />
    <glyph glyph-name="cid5710" unicode="&#x2f70;" 
 />
    <glyph glyph-name="cid5710" unicode="&#x793a;" 
 />
    <glyph glyph-name="cid7870" unicode="&#x2f72;" 
 />
    <glyph glyph-name="cid7870" unicode="&#x79be;" 
 />
    <glyph glyph-name="cid7755" unicode="&#x2f73;" 
 />
    <glyph glyph-name="cid7755" unicode="&#x7a74;" 
 />
    <glyph glyph-name="cid4653" unicode="&#x2f74;" 
 />
    <glyph glyph-name="cid4653" unicode="&#xf9f7;" 
 />
    <glyph glyph-name="cid4653" unicode="&#x7acb;" 
 />
    <glyph glyph-name="cid6900" unicode="&#x2f75;" 
 />
    <glyph glyph-name="cid6900" unicode="&#x7af9;" 
 />
    <glyph glyph-name="cid4863" unicode="&#x2f76;" 
 />
    <glyph glyph-name="cid4863" unicode="&#x7c73;" 
 />
    <glyph glyph-name="cid5132" unicode="&#x2f78;" 
 />
    <glyph glyph-name="cid5132" unicode="&#x7f36;" 
 />
    <glyph glyph-name="cid5896" unicode="&#x2f7a;" 
 />
    <glyph glyph-name="cid5896" unicode="&#x7f8a;" 
 />
    <glyph glyph-name="cid6218" unicode="&#x2f7b;" 
 />
    <glyph glyph-name="cid6218" unicode="&#x7fbd;" 
 />
    <glyph glyph-name="cid4519" unicode="&#x2f7c;" 
 />
    <glyph glyph-name="cid4519" unicode="&#xf934;" 
 />
    <glyph glyph-name="cid4519" unicode="&#x8001;" 
 />
    <glyph glyph-name="cid6427" unicode="&#x2f7d;" 
 />
    <glyph glyph-name="cid6427" unicode="&#x800c;" 
 />
    <glyph glyph-name="cid6428" unicode="&#x2f7f;" 
 />
    <glyph glyph-name="cid6428" unicode="&#x8033;" 
 />
    <glyph glyph-name="cid6368" unicode="&#x2f80;" 
 />
    <glyph glyph-name="cid6368" unicode="&#x807f;" 
 />
    <glyph glyph-name="cid6357" unicode="&#x2f81;" 
 />
    <glyph glyph-name="cid6357" unicode="&#x8089;" 
 />
    <glyph glyph-name="cid5749" unicode="&#x2f82;" 
 />
    <glyph glyph-name="cid5749" unicode="&#x81e3;" 
 />
    <glyph glyph-name="cid6502" unicode="&#x2f83;" 
 />
    <glyph glyph-name="cid6502" unicode="&#x81ea;" 
 />
    <glyph glyph-name="cid6967" unicode="&#x2f84;" 
 />
    <glyph glyph-name="cid6967" unicode="&#x81f3;" 
 />
    <glyph glyph-name="cid3930" unicode="&#x2f85;" 
 />
    <glyph glyph-name="cid3930" unicode="&#x81fc;" 
 />
    <glyph glyph-name="cid5456" unicode="&#x2f86;" 
 />
    <glyph glyph-name="cid5456" unicode="&#x820c;" 
 />
    <glyph glyph-name="cid7158" unicode="&#x2f87;" 
 />
    <glyph glyph-name="cid7158" unicode="&#x821b;" 
 />
    <glyph glyph-name="cid6888" unicode="&#x2f88;" 
 />
    <glyph glyph-name="cid6888" unicode="&#x821f;" 
 />
    <glyph glyph-name="cid3496" unicode="&#x2f89;" 
 />
    <glyph glyph-name="cid3496" unicode="&#x826e;" 
 />
    <glyph glyph-name="cid5368" unicode="&#x2f8a;" 
 />
    <glyph glyph-name="cid5368" unicode="&#x8272;" 
 />
    <glyph glyph-name="cid7232" unicode="&#x2f8b;" 
 />
    <glyph glyph-name="cid7232" unicode="&#x8278;" 
 />
    <glyph glyph-name="cid7756" unicode="&#x2f8e;" 
 />
    <glyph glyph-name="cid7756" unicode="&#x8840;" 
 />
    <glyph glyph-name="cid7709" unicode="&#x2f8f;" 
 />
    <glyph glyph-name="cid7709" unicode="&#xfa08;" 
 />
    <glyph glyph-name="cid7709" unicode="&#x884c;" 
 />
    <glyph glyph-name="cid6409" unicode="&#x2f90;" 
 />
    <glyph glyph-name="cid6409" unicode="&#x8863;" 
 />
    <glyph glyph-name="cid3644" unicode="&#x2f92;" 
 />
    <glyph glyph-name="cid3644" unicode="&#xfa0a;" 
 />
    <glyph glyph-name="cid3644" unicode="&#x898b;" 
 />
    <glyph glyph-name="cid3474" unicode="&#x2f93;" 
 />
    <glyph glyph-name="cid3474" unicode="&#x89d2;" 
 />
    <glyph glyph-name="cid5921" unicode="&#x2f94;" 
 />
    <glyph glyph-name="cid5921" unicode="&#x8a00;" 
 />
    <glyph glyph-name="cid3772" unicode="&#x2f95;" 
 />
    <glyph glyph-name="cid3772" unicode="&#x8c37;" 
 />
    <glyph glyph-name="cid4355" unicode="&#x2f96;" 
 />
    <glyph glyph-name="cid4355" unicode="&#x8c46;" 
 />
    <glyph glyph-name="cid5718" unicode="&#x2f97;" 
 />
    <glyph glyph-name="cid5718" unicode="&#x8c55;" 
 />
    <glyph glyph-name="cid7512" unicode="&#x2f99;" 
 />
    <glyph glyph-name="cid7512" unicode="&#x8c9d;" 
 />
    <glyph glyph-name="cid6636" unicode="&#x2f9a;" 
 />
    <glyph glyph-name="cid6636" unicode="&#x8d64;" 
 />
    <glyph glyph-name="cid6892" unicode="&#x2f9b;" 
 />
    <glyph glyph-name="cid6892" unicode="&#x8d70;" 
 />
    <glyph glyph-name="cid6830" unicode="&#x2f9c;" 
 />
    <glyph glyph-name="cid6830" unicode="&#x8db3;" 
 />
    <glyph glyph-name="cid5755" unicode="&#x2f9d;" 
 />
    <glyph glyph-name="cid5755" unicode="&#x8eab;" 
 />
    <glyph glyph-name="cid7053" unicode="&#x2f9e;" 
 />
    <glyph glyph-name="cid7053" unicode="&#xf902;" 
 />
    <glyph glyph-name="cid7053" unicode="&#x8eca;" 
 />
    <glyph glyph-name="cid5756" unicode="&#x2f9f;" 
 />
    <glyph glyph-name="cid5756" unicode="&#x8f9b;" 
 />
    <glyph glyph-name="cid7009" unicode="&#x2fa0;" 
 />
    <glyph glyph-name="cid7009" unicode="&#xf971;" 
 />
    <glyph glyph-name="cid7009" unicode="&#x8fb0;" 
 />
    <glyph glyph-name="cid6389" unicode="&#x2fa2;" 
 />
    <glyph glyph-name="cid6389" unicode="&#x9091;" 
 />
    <glyph glyph-name="cid6352" unicode="&#x2fa3;" 
 />
    <glyph glyph-name="cid6352" unicode="&#x9149;" 
 />
    <glyph glyph-name="cid4634" unicode="&#x2fa5;" 
 />
    <glyph glyph-name="cid4634" unicode="&#xf9e9;" 
 />
    <glyph glyph-name="cid4634" unicode="&#x91cc;" 
 />
    <glyph glyph-name="cid4131" unicode="&#x2fa6;" 
 />
    <glyph glyph-name="cid4131" unicode="&#xf90a;" 
 />
    <glyph glyph-name="cid4131" unicode="&#x91d1;" 
 />
    <glyph glyph-name="cid6568" unicode="&#x2fa7;" 
 />
    <glyph glyph-name="cid6568" unicode="&#x9577;" 
 />
    <glyph glyph-name="cid4846" unicode="&#x2fa8;" 
 />
    <glyph glyph-name="cid4846" unicode="&#x9580;" 
 />
    <glyph glyph-name="cid5147" unicode="&#x2fa9;" 
 />
    <glyph glyph-name="cid5147" unicode="&#x961c;" 
 />
    <glyph glyph-name="cid6227" unicode="&#x2fac;" 
 />
    <glyph glyph-name="cid6227" unicode="&#x96e8;" 
 />
    <glyph glyph-name="cid7203" unicode="&#x2fad;" 
 />
    <glyph glyph-name="cid7203" unicode="&#x9751;" 
 />
    <glyph glyph-name="cid5220" unicode="&#x2fae;" 
 />
    <glyph glyph-name="cid5220" unicode="&#x975e;" 
 />
    <glyph glyph-name="cid4744" unicode="&#x2faf;" 
 />
    <glyph glyph-name="cid4744" unicode="&#x9762;" 
 />
    <glyph glyph-name="cid7733" unicode="&#x2fb0;" 
 />
    <glyph glyph-name="cid7733" unicode="&#x9769;" 
 />
    <glyph glyph-name="cid6307" unicode="&#x2fb1;" 
 />
    <glyph glyph-name="cid6307" unicode="&#x97cb;" 
 />
    <glyph glyph-name="cid6385" unicode="&#x2fb3;" 
 />
    <glyph glyph-name="cid6385" unicode="&#x97f3;" 
 />
    <glyph glyph-name="cid7757" unicode="&#x2fb4;" 
 />
    <glyph glyph-name="cid7757" unicode="&#x9801;" 
 />
    <glyph glyph-name="cid7595" unicode="&#x2fb5;" 
 />
    <glyph glyph-name="cid7595" unicode="&#x98a8;" 
 />
    <glyph glyph-name="cid5221" unicode="&#x2fb6;" 
 />
    <glyph glyph-name="cid5221" unicode="&#x98db;" 
 />
    <glyph glyph-name="cid5733" unicode="&#x2fb7;" 
 />
    <glyph glyph-name="cid5733" unicode="&#x98df;" 
 />
    <glyph glyph-name="cid5625" unicode="&#x2fb8;" 
 />
    <glyph glyph-name="cid5625" unicode="&#x9996;" 
 />
    <glyph glyph-name="cid7718" unicode="&#x2fb9;" 
 />
    <glyph glyph-name="cid7718" unicode="&#x9999;" 
 />
    <glyph glyph-name="cid4661" unicode="&#x2fba;" 
 />
    <glyph glyph-name="cid4661" unicode="&#x99ac;" 
 />
    <glyph glyph-name="cid3785" unicode="&#x2fbb;" 
 />
    <glyph glyph-name="cid3785" unicode="&#x9aa8;" 
 />
    <glyph glyph-name="cid3765" unicode="&#x2fbc;" 
 />
    <glyph glyph-name="cid3765" unicode="&#x9ad8;" 
 />
    <glyph glyph-name="cid3993" unicode="&#x2fc1;" 
 />
    <glyph glyph-name="cid3993" unicode="&#x9b3c;" 
 />
    <glyph glyph-name="cid5910" unicode="&#x2fc2;" 
 />
    <glyph glyph-name="cid5910" unicode="&#x9b5a;" 
 />
    <glyph glyph-name="cid6827" unicode="&#x2fc3;" 
 />
    <glyph glyph-name="cid6827" unicode="&#x9ce5;" 
 />
    <glyph glyph-name="cid4527" unicode="&#x2fc4;" 
 />
    <glyph glyph-name="cid4527" unicode="&#x9e75;" 
 />
    <glyph glyph-name="cid4533" unicode="&#x2fc5;" 
 />
    <glyph glyph-name="cid4533" unicode="&#xf940;" 
 />
    <glyph glyph-name="cid4533" unicode="&#x9e7f;" 
 />
    <glyph glyph-name="cid4726" unicode="&#x2fc6;" 
 />
    <glyph glyph-name="cid4726" unicode="&#x9ea5;" 
 />
    <glyph glyph-name="cid4663" unicode="&#x2fc7;" 
 />
    <glyph glyph-name="cid4663" unicode="&#x9ebb;" 
 />
    <glyph glyph-name="cid7927" unicode="&#x2fc8;" 
 />
    <glyph glyph-name="cid7927" unicode="&#x9ec3;" 
 />
    <glyph glyph-name="cid5401" unicode="&#x2fc9;" 
 />
    <glyph glyph-name="cid5401" unicode="&#x9ecd;" 
 />
    <glyph glyph-name="cid8018" unicode="&#x2fca;" 
 />
    <glyph glyph-name="cid8018" unicode="&#x9ed1;" 
 />
    <glyph glyph-name="cid6758" unicode="&#x2fcd;" 
 />
    <glyph glyph-name="cid6758" unicode="&#x9f0e;" 
 />
    <glyph glyph-name="cid3766" unicode="&#x2fce;" 
 />
    <glyph glyph-name="cid3766" unicode="&#x9f13;" 
 />
    <glyph glyph-name="cid5402" unicode="&#x2fcf;" 
 />
    <glyph glyph-name="cid5402" unicode="&#x9f20;" 
 />
    <glyph glyph-name="cid5222" unicode="&#x2fd0;" 
 />
    <glyph glyph-name="cid5222" unicode="&#x9f3b;" 
 />
    <glyph glyph-name="cid6781" unicode="&#x2fd1;" 
 />
    <glyph glyph-name="cid6781" unicode="&#x9f4a;" 
 />
    <glyph glyph-name="cid7359" unicode="&#x2fd2;" 
 />
    <glyph glyph-name="cid7359" unicode="&#x9f52;" 
 />
    <glyph glyph-name="cid4563" unicode="&#x2fd3;" 
 />
    <glyph glyph-name="cid4563" unicode="&#xf9c4;" 
 />
    <glyph glyph-name="cid4563" unicode="&#x9f8d;" 
 />
    <glyph glyph-name="cid3946" unicode="&#x2fd4;" 
 />
    <glyph glyph-name="cid3946" unicode="&#xf908;" 
 />
    <glyph glyph-name="cid3946" unicode="&#xf907;" 
 />
    <glyph glyph-name="cid3946" unicode="&#x9f9c;" 
 />
    <glyph glyph-name="cid101" unicode="&#x3000;" 
 />
    <glyph glyph-name="cid101" unicode="&#x3164;" 
 />
    <glyph glyph-name="cid102" unicode="&#x3001;" 
 />
    <glyph glyph-name="cid103" unicode="&#x3002;" 
 />
    <glyph glyph-name="cid108" unicode="&#x3003;" 
 />
    <glyph glyph-name="cid120" unicode="&#x3008;" 
 />
    <glyph glyph-name="cid121" unicode="&#x3009;" 
 />
    <glyph glyph-name="cid122" unicode="&#x300a;" 
 />
    <glyph glyph-name="cid123" unicode="&#x300b;" 
 />
    <glyph glyph-name="cid124" unicode="&#x300c;" 
 />
    <glyph glyph-name="cid125" unicode="&#x300d;" 
 />
    <glyph glyph-name="cid126" unicode="&#x300e;" 
 />
    <glyph glyph-name="cid127" unicode="&#x300f;" 
 />
    <glyph glyph-name="cid128" unicode="&#x3010;" 
 />
    <glyph glyph-name="cid129" unicode="&#x3011;" 
 />
    <glyph glyph-name="cid8700" unicode="&#x3012;" 
 />
    <glyph glyph-name="cid175" unicode="&#x3013;" 
 />
    <glyph glyph-name="uni3014" unicode="&#x3014;" 
 />
    <glyph glyph-name="cid119" unicode="&#x3015;" 
 />
    <glyph glyph-name="cid8219" unicode="&#x3016;" 
 />
    <glyph glyph-name="cid8220" unicode="&#x3017;" 
 />
    <glyph glyph-name="cid8221" unicode="&#x3018;" 
 />
    <glyph glyph-name="cid8222" unicode="&#x3019;" 
 />
    <glyph glyph-name="cid9322" unicode="&#x301e;" 
 />
    <glyph glyph-name="cid9323" unicode="&#x301f;" 
 />
    <glyph glyph-name="cid8671" unicode="&#x3020;" 
 />
    <glyph glyph-name="cid8701" unicode="&#x3036;" 
 />
    <glyph glyph-name="cid851" unicode="&#x3041;" 
 />
    <glyph glyph-name="cid852" unicode="&#x3042;" 
 />
    <glyph glyph-name="cid853" unicode="&#x3043;" 
 />
    <glyph glyph-name="cid854" unicode="&#x3044;" 
 />
    <glyph glyph-name="cid855" unicode="&#x3045;" 
 />
    <glyph glyph-name="cid856" unicode="&#x3046;" 
 />
    <glyph glyph-name="cid857" unicode="&#x3047;" 
 />
    <glyph glyph-name="cid858" unicode="&#x3048;" 
 />
    <glyph glyph-name="cid859" unicode="&#x3049;" 
 />
    <glyph glyph-name="cid860" unicode="&#x304a;" 
 />
    <glyph glyph-name="cid861" unicode="&#x304b;" 
 />
    <glyph glyph-name="cid862" unicode="&#x304c;" 
 />
    <glyph glyph-name="cid863" unicode="&#x304d;" 
 />
    <glyph glyph-name="cid864" unicode="&#x304e;" 
 />
    <glyph glyph-name="cid865" unicode="&#x304f;" 
 />
    <glyph glyph-name="cid866" unicode="&#x3050;" 
 />
    <glyph glyph-name="cid867" unicode="&#x3051;" 
 />
    <glyph glyph-name="cid868" unicode="&#x3052;" 
 />
    <glyph glyph-name="cid869" unicode="&#x3053;" 
 />
    <glyph glyph-name="cid870" unicode="&#x3054;" 
 />
    <glyph glyph-name="cid871" unicode="&#x3055;" 
 />
    <glyph glyph-name="cid872" unicode="&#x3056;" 
 />
    <glyph glyph-name="cid873" unicode="&#x3057;" 
 />
    <glyph glyph-name="cid874" unicode="&#x3058;" 
 />
    <glyph glyph-name="cid875" unicode="&#x3059;" 
 />
    <glyph glyph-name="cid876" unicode="&#x305a;" 
 />
    <glyph glyph-name="cid877" unicode="&#x305b;" 
 />
    <glyph glyph-name="cid878" unicode="&#x305c;" 
 />
    <glyph glyph-name="cid879" unicode="&#x305d;" 
 />
    <glyph glyph-name="cid880" unicode="&#x305e;" 
 />
    <glyph glyph-name="cid881" unicode="&#x305f;" 
 />
    <glyph glyph-name="cid882" unicode="&#x3060;" 
 />
    <glyph glyph-name="cid883" unicode="&#x3061;" 
 />
    <glyph glyph-name="cid884" unicode="&#x3062;" 
 />
    <glyph glyph-name="cid885" unicode="&#x3063;" 
 />
    <glyph glyph-name="cid886" unicode="&#x3064;" 
 />
    <glyph glyph-name="cid887" unicode="&#x3065;" 
 />
    <glyph glyph-name="cid888" unicode="&#x3066;" 
 />
    <glyph glyph-name="cid889" unicode="&#x3067;" 
 />
    <glyph glyph-name="cid890" unicode="&#x3068;" 
 />
    <glyph glyph-name="cid891" unicode="&#x3069;" 
 />
    <glyph glyph-name="cid892" unicode="&#x306a;" 
 />
    <glyph glyph-name="cid893" unicode="&#x306b;" 
 />
    <glyph glyph-name="cid894" unicode="&#x306c;" 
 />
    <glyph glyph-name="cid895" unicode="&#x306d;" 
 />
    <glyph glyph-name="cid896" unicode="&#x306e;" 
 />
    <glyph glyph-name="cid897" unicode="&#x306f;" 
 />
    <glyph glyph-name="cid898" unicode="&#x3070;" 
 />
    <glyph glyph-name="cid899" unicode="&#x3071;" 
 />
    <glyph glyph-name="cid900" unicode="&#x3072;" 
 />
    <glyph glyph-name="cid901" unicode="&#x3073;" 
 />
    <glyph glyph-name="cid902" unicode="&#x3074;" 
 />
    <glyph glyph-name="cid903" unicode="&#x3075;" 
 />
    <glyph glyph-name="cid904" unicode="&#x3076;" 
 />
    <glyph glyph-name="cid905" unicode="&#x3077;" 
 />
    <glyph glyph-name="cid906" unicode="&#x3078;" 
 />
    <glyph glyph-name="cid907" unicode="&#x3079;" 
 />
    <glyph glyph-name="cid908" unicode="&#x307a;" 
 />
    <glyph glyph-name="cid909" unicode="&#x307b;" 
 />
    <glyph glyph-name="cid910" unicode="&#x307c;" 
 />
    <glyph glyph-name="cid911" unicode="&#x307d;" 
 />
    <glyph glyph-name="cid912" unicode="&#x307e;" 
 />
    <glyph glyph-name="cid913" unicode="&#x307f;" 
 />
    <glyph glyph-name="cid914" unicode="&#x3080;" 
 />
    <glyph glyph-name="cid915" unicode="&#x3081;" 
 />
    <glyph glyph-name="cid916" unicode="&#x3082;" 
 />
    <glyph glyph-name="cid917" unicode="&#x3083;" 
 />
    <glyph glyph-name="cid918" unicode="&#x3084;" 
 />
    <glyph glyph-name="cid919" unicode="&#x3085;" 
 />
    <glyph glyph-name="cid920" unicode="&#x3086;" 
 />
    <glyph glyph-name="cid921" unicode="&#x3087;" 
 />
    <glyph glyph-name="cid922" unicode="&#x3088;" 
 />
    <glyph glyph-name="cid923" unicode="&#x3089;" 
 />
    <glyph glyph-name="cid924" unicode="&#x308a;" 
 />
    <glyph glyph-name="cid925" unicode="&#x308b;" 
 />
    <glyph glyph-name="cid926" unicode="&#x308c;" 
 />
    <glyph glyph-name="cid927" unicode="&#x308d;" 
 />
    <glyph glyph-name="cid928" unicode="&#x308e;" 
 />
    <glyph glyph-name="cid929" unicode="&#x308f;" 
 />
    <glyph glyph-name="cid930" unicode="&#x3090;" 
 />
    <glyph glyph-name="cid931" unicode="&#x3091;" 
 />
    <glyph glyph-name="cid932" unicode="&#x3092;" 
 />
    <glyph glyph-name="cid933" unicode="&#x3093;" 
 />
    <glyph glyph-name="cid934" unicode="&#x30a1;" 
 />
    <glyph glyph-name="cid935" unicode="&#x30a2;" 
 />
    <glyph glyph-name="cid936" unicode="&#x30a3;" 
 />
    <glyph glyph-name="cid937" unicode="&#x30a4;" 
 />
    <glyph glyph-name="cid938" unicode="&#x30a5;" 
 />
    <glyph glyph-name="cid939" unicode="&#x30a6;" 
 />
    <glyph glyph-name="cid940" unicode="&#x30a7;" 
 />
    <glyph glyph-name="cid941" unicode="&#x30a8;" 
 />
    <glyph glyph-name="cid942" unicode="&#x30a9;" 
 />
    <glyph glyph-name="cid943" unicode="&#x30aa;" 
 />
    <glyph glyph-name="cid944" unicode="&#x30ab;" 
 />
    <glyph glyph-name="cid945" unicode="&#x30ac;" 
 />
    <glyph glyph-name="cid946" unicode="&#x30ad;" 
 />
    <glyph glyph-name="cid947" unicode="&#x30ae;" 
 />
    <glyph glyph-name="cid948" unicode="&#x30af;" 
 />
    <glyph glyph-name="cid949" unicode="&#x30b0;" 
 />
    <glyph glyph-name="cid950" unicode="&#x30b1;" 
 />
    <glyph glyph-name="cid951" unicode="&#x30b2;" 
 />
    <glyph glyph-name="cid952" unicode="&#x30b3;" 
 />
    <glyph glyph-name="cid953" unicode="&#x30b4;" 
 />
    <glyph glyph-name="cid954" unicode="&#x30b5;" 
 />
    <glyph glyph-name="cid955" unicode="&#x30b6;" 
 />
    <glyph glyph-name="cid956" unicode="&#x30b7;" 
 />
    <glyph glyph-name="cid957" unicode="&#x30b8;" 
 />
    <glyph glyph-name="cid958" unicode="&#x30b9;" 
 />
    <glyph glyph-name="cid959" unicode="&#x30ba;" 
 />
    <glyph glyph-name="cid960" unicode="&#x30bb;" 
 />
    <glyph glyph-name="cid961" unicode="&#x30bc;" 
 />
    <glyph glyph-name="cid962" unicode="&#x30bd;" 
 />
    <glyph glyph-name="cid963" unicode="&#x30be;" 
 />
    <glyph glyph-name="cid964" unicode="&#x30bf;" 
 />
    <glyph glyph-name="cid965" unicode="&#x30c0;" 
 />
    <glyph glyph-name="cid966" unicode="&#x30c1;" 
 />
    <glyph glyph-name="cid967" unicode="&#x30c2;" 
 />
    <glyph glyph-name="cid968" unicode="&#x30c3;" 
 />
    <glyph glyph-name="cid969" unicode="&#x30c4;" 
 />
    <glyph glyph-name="cid970" unicode="&#x30c5;" 
 />
    <glyph glyph-name="cid971" unicode="&#x30c6;" 
 />
    <glyph glyph-name="cid972" unicode="&#x30c7;" 
 />
    <glyph glyph-name="cid973" unicode="&#x30c8;" 
 />
    <glyph glyph-name="cid974" unicode="&#x30c9;" 
 />
    <glyph glyph-name="cid975" unicode="&#x30ca;" 
 />
    <glyph glyph-name="cid976" unicode="&#x30cb;" 
 />
    <glyph glyph-name="cid977" unicode="&#x30cc;" 
 />
    <glyph glyph-name="cid978" unicode="&#x30cd;" 
 />
    <glyph glyph-name="cid979" unicode="&#x30ce;" 
 />
    <glyph glyph-name="cid980" unicode="&#x30cf;" 
 />
    <glyph glyph-name="cid981" unicode="&#x30d0;" 
 />
    <glyph glyph-name="cid982" unicode="&#x30d1;" 
 />
    <glyph glyph-name="cid983" unicode="&#x30d2;" 
 />
    <glyph glyph-name="cid984" unicode="&#x30d3;" 
 />
    <glyph glyph-name="cid985" unicode="&#x30d4;" 
 />
    <glyph glyph-name="cid986" unicode="&#x30d5;" 
 />
    <glyph glyph-name="cid987" unicode="&#x30d6;" 
 />
    <glyph glyph-name="cid988" unicode="&#x30d7;" 
 />
    <glyph glyph-name="cid989" unicode="&#x30d8;" 
 />
    <glyph glyph-name="cid990" unicode="&#x30d9;" 
 />
    <glyph glyph-name="cid991" unicode="&#x30da;" 
 />
    <glyph glyph-name="cid992" unicode="&#x30db;" 
 />
    <glyph glyph-name="cid993" unicode="&#x30dc;" 
 />
    <glyph glyph-name="cid994" unicode="&#x30dd;" 
 />
    <glyph glyph-name="cid995" unicode="&#x30de;" 
 />
    <glyph glyph-name="cid996" unicode="&#x30df;" 
 />
    <glyph glyph-name="cid997" unicode="&#x30e0;" 
 />
    <glyph glyph-name="cid998" unicode="&#x30e1;" 
 />
    <glyph glyph-name="cid999" unicode="&#x30e2;" 
 />
    <glyph glyph-name="cid1000" unicode="&#x30e3;" 
 />
    <glyph glyph-name="cid1001" unicode="&#x30e4;" 
 />
    <glyph glyph-name="cid1002" unicode="&#x30e5;" 
 />
    <glyph glyph-name="cid1003" unicode="&#x30e6;" 
 />
    <glyph glyph-name="cid1004" unicode="&#x30e7;" 
 />
    <glyph glyph-name="cid1005" unicode="&#x30e8;" 
 />
    <glyph glyph-name="cid1006" unicode="&#x30e9;" 
 />
    <glyph glyph-name="cid1007" unicode="&#x30ea;" 
 />
    <glyph glyph-name="cid1008" unicode="&#x30eb;" 
 />
    <glyph glyph-name="cid1009" unicode="&#x30ec;" 
 />
    <glyph glyph-name="cid1010" unicode="&#x30ed;" 
 />
    <glyph glyph-name="cid1011" unicode="&#x30ee;" 
 />
    <glyph glyph-name="cid1012" unicode="&#x30ef;" 
 />
    <glyph glyph-name="cid1013" unicode="&#x30f0;" 
 />
    <glyph glyph-name="cid1014" unicode="&#x30f1;" 
 />
    <glyph glyph-name="cid1015" unicode="&#x30f2;" 
 />
    <glyph glyph-name="cid1016" unicode="&#x30f3;" 
 />
    <glyph glyph-name="cid1017" unicode="&#x30f4;" 
 />
    <glyph glyph-name="cid1018" unicode="&#x30f5;" 
 />
    <glyph glyph-name="cid1019" unicode="&#x30f6;" 
 />
    <glyph glyph-name="cid9330" unicode="&#x30fc;" 
 />
    <glyph glyph-name="uni3131" unicode="&#x3131;" horiz-adv-x="879" 
d="M610 364q0 -17 -1 -38.5t-2.5 -44.5t-4.5 -44.5t-7 -37.5q-3 -18 -16.5 -24.5t-27.5 -4.5t-25.5 12t-9.5 28q4 35 7 72t3 66q0 21 -9 29.5t-29 13.5q-15 1 -37.5 0t-46.5 -3.5t-47 -5.5t-38 -4q-17 -2 -28.5 10t-13.5 27q-3 17 5 31.5t30 19.5q19 2 50.5 5t65.5 5
t65.5 1.5t50.5 -5.5q22 -6 35 -15t19.5 -21.5t8.5 -30t3 -41.5z" />
    <glyph glyph-name="uni3132" unicode="&#x3132;" horiz-adv-x="879" 
d="M719 393q1 -38 -1.5 -76t-9.5 -70q-4 -17 -17.5 -25t-28.5 -6q-14 1 -25 11.5t-8 28.5q4 35 5 63t0 58q-2 19 -9.5 28t-27.5 13q-20 5 -43 4.5t-61 -2.5q-18 -2 -29.5 10t-14.5 27q-3 16 5.5 30t30.5 19q14 3 34.5 4.5t43 0.5t46 -3.5t44.5 -7.5q21 -4 33.5 -13.5
t19.5 -23t9.5 -31.5t3.5 -39zM422 379q-1 -9 -1.5 -19t-2 -24t-4 -33.5t-8.5 -48.5q-3 -18 -17 -26t-28 -6q-15 2 -26 12t-9 27q5 26 6.5 52t3.5 52q0 20 -5.5 30.5t-25.5 14.5q-24 5 -50.5 2.5t-48.5 -2.5q-17 -1 -26.5 10t-11.5 28q-1 16 7.5 29.5t31.5 16.5q42 3 79.5 4
t75.5 -10q22 -8 34 -17.5t18 -23t7 -30.5t1 -38z" />
    <glyph glyph-name="uni3133" unicode="&#x3133;" horiz-adv-x="879" 
d="M408 347q-1 -9 -1.5 -19t-2 -24t-4 -33.5t-7.5 -48.5q-4 -18 -18 -26t-28 -6q-15 2 -26 12t-9 27q5 26 6.5 52t3.5 52q0 20 -5.5 30.5t-25.5 14.5q-24 5 -50.5 2.5t-48.5 -2.5q-17 -1 -26.5 10t-11.5 28q-1 16 7.5 29.5t31.5 16.5q42 3 79.5 4t75.5 -10q22 -8 34 -17.5
t18 -23t7 -30.5t1 -38zM688 320q17 -3 23 -15t3 -25q-3 -17 -14.5 -25.5t-25.5 -5.5q-67 12 -99 45q-10 -15 -31 -34.5t-56 -32.5q-25 -8 -40 -0.5t-20 18.5q-6 14 -1 28.5t23 23.5q25 10 41.5 27.5t27 39.5t16.5 47.5t9 52.5q2 18 15 25t28 7q14 -2 26.5 -12.5t12.5 -27.5
q0 -21 -5.5 -43.5t-12.5 -45.5q5 -17 29 -29t51 -18z" />
    <glyph glyph-name="uni3134" unicode="&#x3134;" horiz-adv-x="879" 
d="M564 233q-41 -9 -83.5 -7.5t-79.5 4.5q-21 2 -42.5 6.5t-38.5 16.5q-18 14 -27 37t-9 62q1 32 2 60t8 56q2 20 16.5 30t31.5 8q15 -2 27 -12.5t9 -33.5q-4 -28 -5 -52.5t-2 -45.5q-2 -32 13 -41.5t40 -9.5q12 -1 28.5 -2t34.5 -1t36.5 1t33.5 3q20 2 29 -9.5t8 -26.5
q1 -14 -7 -27.5t-23 -15.5z" />
    <glyph glyph-name="uni3135" unicode="&#x3135;" horiz-adv-x="879" 
d="M138 427q7 24 25.5 31t32.5 2q16 -5 24 -21t3 -40q-5 -13 -9.5 -29.5t-5 -33.5t5 -32t21.5 -25q10 -6 25 -7.5t30.5 0t30.5 6.5t27 12q23 11 41 5t25 -22q6 -13 2 -29t-22 -30q-43 -24 -95 -28t-100 17q-31 13 -48 36.5t-23 53.5t-3 64t13 70zM715 335q14 6 26.5 -4.5
t15.5 -24.5q3 -15 -5 -29.5t-29 -21.5q-12 -4 -28.5 -7t-35.5 -3.5t-39.5 3t-39.5 12.5q-14 -26 -23 -42t-24 -31q-11 -15 -27.5 -16.5t-27.5 6.5q-12 7 -17 20.5t6 28.5q15 25 25 42t16 28.5t9.5 20t6.5 16.5q8 18 10 30t-0.5 19.5t-7 10.5t-10.5 4q-30 6 -61 3.5t-51 -1.5
q-34 1 -40 35q-2 14 5.5 26t27.5 16q19 2 42.5 2.5t47 -0.5t44.5 -3t35 -5q29 -6 44.5 -30t9.5 -57l-14 -49q26 -9 53 -9.5t56 10.5z" />
    <glyph glyph-name="uni3136" unicode="&#x3136;" horiz-adv-x="879" 
d="M143 451q7 24 25.5 31t32.5 2q16 -5 24 -21t3 -39q-6 -13 -10.5 -30t-4.5 -34t6 -32.5t21 -24.5q10 -6 25 -7.5t30.5 0.5t30.5 6.5t27 11.5q23 11 41 5t25 -21q6 -14 2 -30t-22 -30q-47 -21 -95 -27.5t-100 16.5q-32 14 -50 40t-24.5 57.5t-2.5 64.5t16 62zM589 332
q32 -1 59 -10.5t45.5 -26t29 -38.5t9.5 -48q-2 -67 -39.5 -101t-90.5 -36q-29 -1 -54 8t-44.5 26.5t-31.5 41t-13 51.5q-2 28 8.5 52t29 41.5t42.5 27.5t50 12zM598 254q-25 0 -40.5 -15t-13.5 -37q2 -25 18 -37t39 -10q15 1 29.5 12.5t13.5 35.5q0 21 -11 36t-35 15z
M735 364q-79 -12 -150 -7t-114 18q-21 6 -28 21t-5 29q3 15 16 24.5t34 3.5q40 -11 74 -14.5t63.5 -3.5t56 3t51.5 6q17 0 26.5 -11t11.5 -26q0 -14 -9 -27.5t-27 -15.5zM674 466q-38 7 -80.5 17.5t-80.5 32.5q-14 10 -17.5 23t2.5 27q6 13 19.5 19t33.5 -1q21 -9 37 -15
t31.5 -10.5t31.5 -8.5t37 -8q18 -4 25 -15.5t5 -28.5q-2 -15 -13.5 -26t-30.5 -6z" />
    <glyph glyph-name="uni3137" unicode="&#x3137;" horiz-adv-x="879" 
d="M566 210q-16 -3 -37 -5.5t-45 -3.5t-49.5 -0.5t-49.5 3.5q-45 7 -71.5 29.5t-30.5 70.5q-5 30 -4.5 58t4.5 55q4 41 25 62.5t77 29.5q34 3 56.5 5.5t38 4t26 2t21.5 0.5q17 0 27 -12t11 -28q1 -15 -7 -27.5t-29 -13.5q-30 -3 -60 -5t-58 -6q-17 -3 -30 -11.5t-16 -31.5
q-2 -17 -1 -36.5t4 -34.5q4 -20 13 -27t41 -10q38 -5 74 -0.5t70 8.5q15 1 24 -9t10 -24t-7 -27t-27 -16z" />
    <glyph glyph-name="uni3138" unicode="&#x3138;" horiz-adv-x="879" 
d="M707 214q-35 -8 -68 -8t-59 2q-45 6 -68.5 27t-32.5 69q-6 29 -7.5 60.5t-0.5 57.5q1 44 28.5 60.5t64.5 21.5q18 2 31 3t25 1.5t24 0t26 -0.5q14 -1 21.5 -14t8.5 -27q0 -15 -8.5 -27t-25.5 -12q-20 0 -42.5 -1t-36.5 -3q-23 -4 -27.5 -13t-4.5 -26q0 -19 2.5 -43
t8.5 -36q4 -11 15 -16.5t35 -6.5q24 -2 45 0t44 5q29 1 34 -32q4 -36 -32 -42zM392 216q-35 -8 -76.5 -9t-67.5 1q-45 6 -68.5 27t-33.5 69q-5 29 -6.5 59t-0.5 56q0 22 8 37t20.5 24t29.5 13.5t35 7.5q18 2 29.5 3t21.5 1.5t20.5 0t24.5 -0.5q14 -1 21.5 -14t8.5 -27
q0 -15 -8 -27t-26 -12q-20 0 -37.5 -1t-31.5 -3q-23 -4 -27.5 -13t-4.5 -26q0 -19 2.5 -41.5t8.5 -34.5q4 -11 15 -16.5t35 -6.5q24 -2 53.5 1t52.5 6q29 2 34 -32q4 -36 -32 -42z" />
    <glyph glyph-name="uni3139" unicode="&#x3139;" horiz-adv-x="879" 
d="M464 565q30 -3 51 -8.5t34.5 -14.5t21 -22.5t12.5 -32.5q7 -33 4.5 -64t-4.5 -61q-3 -43 -29 -66.5t-58 -33.5q-30 -8 -63.5 -16.5t-53.5 -19.5q-15 -7 -18 -24q-3 -16 -3 -31t2 -30q2 -14 11 -20t38 -4l137 6q17 0 25 -10.5t10 -24.5q2 -13 -7.5 -25t-30.5 -14
q-30 -4 -74.5 -6.5t-86.5 -2.5q-48 0 -75.5 21t-28.5 60q0 21 -0.5 35.5t0 26.5t1 23t2.5 25q2 21 7.5 35t16 23t25.5 14.5t36 10.5q24 5 38.5 8.5t23 6t13 4t9.5 2.5q19 6 31 16t15 31q3 19 3.5 32t-1.5 28q-2 22 -9.5 29t-36.5 10q-11 1 -28.5 0.5t-36 -0.5t-35.5 -0.5
t-26 0.5q-26 1 -39 12.5t-13 27.5q-1 14 9.5 26.5t31.5 15.5q14 1 34.5 2t41.5 1.5t40.5 0t32.5 -1.5z" />
    <glyph glyph-name="uni313A" unicode="&#x313a;" horiz-adv-x="879" 
d="M746 325q-2 -17 -15.5 -25.5t-29.5 -7.5q-14 1 -26.5 11t-10.5 31q1 23 2.5 47.5t0.5 45.5q0 12 -0.5 19t-3 11t-8 6t-14.5 4q-6 0 -11 0.5t-13.5 1t-23 0.5t-39.5 -1q-23 -2 -33.5 9.5t-11.5 27.5q0 14 11 27.5t35 15.5q35 3 65 2.5t64 -4.5q23 -3 36.5 -10.5t20 -20
t8.5 -29.5t3 -38v-30.5t-1 -23.5zM373 550q59 -2 79.5 -31.5t20.5 -81.5q0 -29 -3.5 -45.5t-10.5 -38.5q-12 -41 -39.5 -56.5t-59.5 -19.5q-23 -2 -37.5 -3t-26 -1.5t-22.5 -0.5t-26 -1q-17 -2 -26.5 -7.5t-12.5 -24.5v-37q0 -23 10 -34t33 -11q35 0 64.5 2.5t60.5 7.5
q25 2 33 -8t12 -24q3 -15 -3 -28.5t-26 -17.5q-27 -6 -71.5 -10t-98.5 -4q-47 0 -69 23.5t-23 52.5q-2 22 -3.5 45t-0.5 45.5t6 43.5t16 39q19 28 78 29q37 1 60.5 1t43.5 2q18 2 31 6t19 18q8 31 4 58q-2 13 -9 21.5t-22 8.5q-22 0 -38 -0.5t-29 -1.5t-25.5 -1.5
t-26.5 -0.5q-26 -2 -37.5 9.5t-11.5 27.5q0 15 8.5 28t28.5 15q32 3 68.5 5t81.5 1z" />
    <glyph glyph-name="uni313B" unicode="&#x313b;" horiz-adv-x="879" 
d="M787 337q-4 -37 -26 -49.5t-58 -15.5q-32 -2 -64 -2.5t-67 2.5q-16 1 -28.5 4.5t-21 12t-13.5 23.5t-7 40q-3 35 -4 66t1 60q1 18 4 31t9.5 21.5t19 13t32.5 6.5q38 3 72 3t81 -1q43 -2 56.5 -20t15.5 -58q2 -33 1 -66.5t-3 -70.5zM712 375q2 21 1 39.5t-2 29.5
q-2 22 -6 28t-22 7q-24 2 -39 1.5t-37 -1.5q-20 -2 -24.5 -12.5t-4.5 -31.5q0 -20 -0.5 -31.5t1.5 -25.5q2 -20 11 -25t29 -6h51q20 1 30 6t12 22zM326 579q59 -2 79.5 -31.5t20.5 -81.5q0 -28 -3.5 -50t-10.5 -44q-6 -21 -16 -34t-23 -21t-28.5 -11.5t-31.5 -5.5
q-25 -3 -48 -4t-54 -3q-18 -2 -27 -7.5t-12 -23.5v-40q0 -24 10 -34.5t33 -10.5q35 0 64.5 2.5t60.5 7.5q25 1 33 -9t12 -24q3 -14 -3 -28t-27 -18q-26 -5 -70.5 -9t-98.5 -4q-47 0 -67.5 23t-24.5 53q-3 22 -4.5 45t-0.5 45.5t6 43.5t16 39q9 12 29 19.5t49 8.5
q37 1 56 1.5t39 2.5q19 2 31.5 5.5t18.5 17.5q5 17 5.5 36t-1.5 33q-2 12 -9 20.5t-22 8.5q-22 0 -36.5 -0.5t-25.5 -1.5t-22 -1.5t-25 -0.5q-26 -2 -38 10t-12 27t9 28t29 15q32 3 64 5t76 1z" />
    <glyph glyph-name="uni313C" unicode="&#x313c;" horiz-adv-x="879" 
d="M702 529q-1 16 7.5 26t30.5 11q15 1 28 -7t16 -23q7 -54 6 -108.5t-3 -108.5q-4 -70 -38 -90q-14 -9 -35.5 -14t-45 -6.5t-48 0t-44.5 5.5q-23 4 -37.5 16t-23 28t-12 35.5t-3.5 39.5q0 10 -1 34t-2.5 52.5t-2.5 56.5t-1 45q-1 20 10.5 30.5t26.5 10.5q16 2 28 -8.5
t14 -27.5l5 -65l132 2zM326 560q59 -2 79.5 -32t20.5 -82q0 -14 -0.5 -24t-1.5 -18.5t-3 -17.5t-5 -20q-6 -20 -17 -33t-24.5 -21t-29.5 -12t-32 -6q-25 -3 -48 -4t-54 -3q-18 -2 -27 -7.5t-12 -23.5v-40q0 -23 10 -34t33 -11q35 0 64.5 2.5t60.5 7.5q25 2 33 -8.5t12 -24.5
q3 -14 -3 -28t-27 -17q-26 -6 -70.5 -10t-98.5 -4q-47 0 -67.5 23t-24.5 53q-3 22 -4.5 45t-0.5 45.5t6 43.5t16 39q9 12 29 19.5t49 8.5q37 1 56 1.5t39 2.5q19 2 31.5 6t18.5 18q5 17 5.5 28.5t-1.5 25.5q-2 13 -9 21.5t-22 8.5q-22 0 -36.5 -0.5t-25.5 -1.5t-22 -1.5
t-25 -0.5q-26 -2 -38 9.5t-12 27.5q0 14 9 27.5t29 15.5q32 3 64 5t76 1zM580 342q0 -55 35 -60q13 -2 26.5 -1.5t18.5 1.5q29 5 38.5 14.5t12.5 32.5q1 13 1.5 26.5t0.5 29.5q-24 -1 -61.5 -1t-72.5 -1q0 -10 0.5 -20t0.5 -21z" />
    <glyph glyph-name="uni313D" unicode="&#x313d;" horiz-adv-x="879" 
d="M364 560q59 -2 79.5 -32t20.5 -82q0 -14 -0.5 -24t-1.5 -18.5t-3 -17.5t-5 -20q-6 -20 -16.5 -33t-24 -21t-29.5 -12t-32 -6q-26 -3 -49 -4t-54 -3q-17 -2 -26.5 -7.5t-12.5 -23.5v-40q0 -23 10 -34t33 -11q35 0 64.5 2.5t60.5 7.5q25 2 33 -8.5t12 -24.5q3 -14 -3 -28
t-26 -17q-27 -6 -71.5 -10t-98.5 -4q-47 0 -67.5 23t-24.5 53q-3 22 -4.5 45t-0.5 45.5t6 43.5t16 39q9 12 29 19.5t50 8.5q18 0 31.5 0.5t24 1t19.5 1t19 1.5q19 2 31.5 6t18.5 18q5 17 5.5 28.5t-1.5 25.5q-2 13 -9 21.5t-22 8.5q-22 0 -36.5 -0.5t-25.5 -1.5t-22 -1.5
t-25 -0.5q-26 -2 -37.5 9.5t-11.5 27.5q0 14 8.5 27.5t28.5 15.5q32 3 64 5t76 1zM717 355q17 -2 23.5 -13.5t4.5 -25.5q-3 -16 -13.5 -25t-24.5 -7q-67 7 -102 38q-9 -14 -28.5 -35t-54.5 -36q-23 -9 -39.5 -3t-22.5 17q-6 13 -1.5 28t21.5 25q24 12 39.5 30.5t25 41.5
t14 48.5t5.5 51.5q0 18 13 26.5t28 8.5q14 -2 27 -11t14 -26q2 -22 -3 -44.5t-10 -45.5q8 -17 32 -28t52 -15z" />
    <glyph glyph-name="uni313E" unicode="&#x313e;" horiz-adv-x="879" 
d="M752 232q-42 -15 -75.5 -21.5t-69.5 -4.5q-42 3 -70 26.5t-37 62.5q-3 13 -6.5 34t-4.5 48t1.5 60t11.5 71q10 44 37.5 58.5t71.5 15.5q32 1 55.5 0.5t40.5 -2.5q20 -2 29 -13.5t8 -26.5q-2 -14 -8.5 -25t-26.5 -9q-23 1 -49.5 1.5t-46.5 -2.5q-10 -2 -16 -3t-9.5 -4
t-6 -9t-5.5 -17q-3 -15 -3.5 -22t-0.5 -22q38 -5 70 -3.5t65 5.5q15 1 24 -9t11 -24q2 -12 -5 -24t-24 -14q-42 -6 -76 -7.5t-69 3.5q0 -17 0.5 -25.5t3.5 -17.5q4 -14 12.5 -23t34.5 -10q19 -2 46 3t67 19q18 6 30.5 -1t17.5 -19q4 -12 -2 -26.5t-26 -22.5zM335 557
q46 -2 67.5 -20.5t28.5 -51.5q5 -29 2 -59.5t-8 -47.5q-6 -21 -17 -34t-24.5 -21t-29.5 -11.5t-32 -5.5q-25 -3 -48 -4t-54 -3q-18 -2 -27 -7.5t-12 -23.5v-16q0 -23 9.5 -34t33.5 -11q35 0 64.5 2.5t60.5 7.5q25 2 33 -8t12 -24q2 -15 -3.5 -28.5t-26.5 -17.5
q-26 -6 -71 -10t-99 -4q-46 0 -67 23t-24 53q-3 22 -4.5 41.5t-0.5 37.5t6 35t16 35q9 12 29 19.5t49 8.5q37 1 56 1.5t39 2.5q18 2 31 4t18 16q3 11 3.5 31.5t-1.5 28.5q-4 13 -26 13q-21 0 -36 -0.5t-27 -1.5t-23 -1.5t-25 -0.5q-26 -2 -38 9.5t-12 27.5q0 14 8.5 27.5
t28.5 15.5q32 3 64 5t77 1z" />
    <glyph glyph-name="uni313F" unicode="&#x313f;" horiz-adv-x="879" 
d="M310 585q59 -2 79 -31.5t20 -81.5q0 -28 -1.5 -48t-8.5 -42q-6 -21 -16.5 -34t-24 -21t-29.5 -12t-32 -5q-25 -3 -48.5 -4t-54.5 -3q-17 -2 -26.5 -7.5t-12.5 -24.5v-40q0 -23 10 -33.5t33 -10.5q35 0 64.5 2t60.5 7q25 2 33 -8t12 -24q3 -14 -3 -28t-26 -18
q-26 -6 -71 -10t-99 -4q-47 0 -67.5 23.5t-24.5 53.5q-3 22 -4.5 45t-0.5 45.5t6 43.5t17 39q18 26 78 28q19 0 32 0.5t23.5 1t19.5 1t20 1.5q18 2 31 5.5t18 17.5q9 34 4 65q-2 12 -8.5 20.5t-22.5 8.5q-22 0 -36 -0.5t-25.5 -1.5t-22 -1.5t-24.5 -0.5q-27 -2 -38.5 10
t-11.5 27t8.5 28t28.5 15q32 3 64 5t77 1zM729 604q20 2 31 -6t13 -21q2 -14 -6 -27t-28 -18l-15 -4q3 -15 5.5 -36.5t4 -44.5t2 -44.5t-1.5 -36.5q18 3 24 5t13 4q13 4 23 -4.5t12 -21.5q2 -14 -5 -26.5t-26 -16.5q-69 -19 -141.5 -26t-139.5 -3q-26 2 -37.5 15.5
t-9.5 28.5q2 14 13 24t31 7l26 -1q-5 33 -9 75t-2 83q-5 0 -10.5 0.5t-10.5 1.5q-20 2 -29 15t-7 27t11 22.5t29 8.5q39 -3 68 -3.5t55.5 2t53.5 7.5t63 14zM655 355q1 16 1.5 37t0 43.5t-2.5 43t-6 35.5q-33 -5 -67 -6q0 -17 0.5 -38t2 -42.5t3 -42t4.5 -36.5q17 -2 33.5 0
t30.5 6z" />
    <glyph glyph-name="uni3140" unicode="&#x3140;" horiz-adv-x="879" 
d="M327 557q59 -2 79.5 -32t20.5 -82q0 -28 -1.5 -47.5t-8.5 -41.5q-6 -21 -17 -34t-24.5 -21t-29.5 -12t-32 -6q-25 -3 -48 -4t-54 -3q-18 -2 -27 -7t-12 -24v-40q0 -23 10 -34t33 -11q35 0 64.5 2.5t60.5 7.5q25 2 33 -8t12 -24q3 -15 -3 -28.5t-27 -17.5
q-26 -6 -70.5 -10t-98.5 -4q-47 0 -67.5 23t-24.5 53q-3 22 -4.5 45t-0.5 45.5t6 43.5t16 39q19 27 78 29q37 0 56 0.5t39 2.5q19 2 31.5 6t18.5 18q5 17 5.5 33.5t-1.5 30.5q-2 13 -9 21.5t-22 8.5q-22 0 -36.5 -0.5t-25.5 -1.5t-22 -1.5t-25 -0.5q-26 -2 -38 9.5t-12 27.5
q0 14 9 27.5t29 15.5q32 3 64 5t76 1zM599 322q32 -1 59 -10.5t45.5 -26t29 -38.5t9.5 -48q-2 -67 -39.5 -101t-90.5 -36q-29 -1 -54 8t-44.5 26.5t-31.5 41t-13 51.5q-2 28 8.5 52t29 41.5t42.5 27.5t50 12zM608 244q-25 0 -40.5 -15t-13.5 -37q2 -25 18 -37t39 -10
q15 1 29.5 12.5t13.5 35.5q0 21 -11 36t-35 15zM745 354q-79 -12 -150 -7t-114 18q-21 6 -28 21t-5 29q3 15 16 24.5t34 3.5q40 -11 74 -14.5t63.5 -3.5t56 3t51.5 6q17 0 26.5 -11t11.5 -26q0 -14 -9 -27.5t-27 -15.5zM684 456q-38 7 -80.5 17.5t-80.5 32.5
q-14 10 -17.5 23t2.5 27q6 13 19.5 19t33.5 -1q21 -9 37 -15t31.5 -10.5t31.5 -8.5t37 -8q18 -4 25 -15.5t5 -28.5q-2 -15 -13.5 -26t-30.5 -6z" />
    <glyph glyph-name="uni3141" unicode="&#x3141;" horiz-adv-x="879" 
d="M587 297q-4 -37 -26 -49.5t-58 -15.5q-32 -2 -69 -2.5t-72 2.5q-16 1 -28.5 4.5t-21 12t-13.5 23.5t-7 40q-3 35 -4 65.5t1 59.5q1 19 4 32t9.5 21.5t19 13t32.5 6.5q38 3 76.5 3t86.5 -1q43 -2 56.5 -20t15.5 -58q2 -33 1 -66.5t-3 -70.5zM512 335q2 21 1 39.5t-2 29.5
q-2 22 -6 27.5t-23 7.5q-23 2 -43 1.5t-42 -1.5q-20 -2 -24.5 -12.5t-4.5 -31.5q0 -20 -0.5 -31.5t1.5 -25.5q2 -20 11 -25t29 -6h61q20 1 30 6t12 22z" />
    <glyph glyph-name="uni3142" unicode="&#x3142;" horiz-adv-x="879" 
d="M534 509q-1 15 7.5 25.5t30.5 11.5q15 1 28 -7.5t16 -22.5q7 -55 6 -119t-3 -118q-3 -56 -30 -83.5t-87 -29.5q-44 -2 -81 -1t-81 9q-23 4 -38 16t-23.5 28t-11.5 35.5t-3 39.5q0 10 -1 34t-2.5 52.5t-2.5 56t-1 44.5q-1 21 11 31t28 10q15 2 28 -8t14 -27
q-1 -11 0.5 -26t3.5 -40l197 3q0 21 -1.5 42.5t-3.5 43.5zM346 299q0 -26 9 -38t26 -16q20 -5 44 -5.5t59 -0.5q29 0 38.5 15.5t12.5 38.5l3 52l-193 -3q1 -10 1 -21v-22z" />
    <glyph glyph-name="uni3143" unicode="&#x3143;" horiz-adv-x="879" 
d="M331 349q-29 2 -54.5 1t-48.5 -7l1 -33q0 -18 3.5 -24t15.5 -10q8 -3 22 -3t30 1q18 2 24.5 9.5t7.5 23.5q1 14 0 24t-1 18zM394 478q9 -50 11 -90.5t1 -87.5q-9 -82 -91 -94q-17 -4 -43.5 -3.5t-49.5 5.5t-36.5 15.5t-19.5 24.5q-9 22 -12.5 50.5t-3.5 59t2 59.5t5 51
q1 17 13 25t26 6q15 -1 25.5 -10t9.5 -26q0 -3 -0.5 -10.5t-1 -15.5t-0.5 -16v-14q26 4 50 5.5t48 -0.5q0 16 -2.5 26t-4.5 24q-2 15 9 24.5t25 12.5q14 2 26 -2.5t14 -18.5zM550 325q0 -17 5 -23.5t16 -9.5q9 -2 20 -2.5t22 -0.5q19 1 29 7.5t10 24.5q1 15 1 24.5v17.5
q-23 2 -48.5 2t-54.5 -4v-36zM723 495q7 -50 6 -92t-1 -90q-2 -27 -12.5 -45t-25.5 -28q-31 -17 -73 -20.5t-77 4.5q-23 5 -36.5 16t-20.5 26q-5 14 -7 29.5t-2 27.5q-2 33 -2 71.5t8 97.5q2 17 14.5 24.5t26.5 5.5q14 -1 25 -10.5t9 -25.5l-3 -56q28 3 52.5 3t46.5 -1
l-3 54q0 15 11 23t24 10q14 2 25.5 -3.5t14.5 -20.5z" />
    <glyph glyph-name="uni3144" unicode="&#x3144;" horiz-adv-x="879" 
d="M345 472q-1 15 7.5 25.5t30.5 11.5q14 1 27.5 -7.5t16.5 -22.5q7 -55 6 -103t-3 -102q-5 -70 -38 -90q-14 -9 -40 -14t-55.5 -6.5t-58.5 0t-49 5.5q-23 4 -37.5 16t-23 28t-12 35.5t-3.5 39.5q0 10 -1 32t-2.5 48t-2.5 52t-1 43q-1 20 10.5 30.5t27.5 10.5q15 2 27.5 -8
t14.5 -27q1 -13 2 -27t2 -39q17 0 38.5 0.5t44 0.5t43 0.5t35.5 0.5q-1 29 -6 67zM728 341q27 3 36 -9.5t9 -26.5q0 -16 -10 -28.5t-30 -14.5q-35 -3 -72.5 7.5t-69.5 37.5q-9 -12 -16 -20.5t-15.5 -16t-19.5 -14t-26 -14.5q-14 -6 -28.5 -2t-22.5 16t-6 30t25 30
q19 10 32 23t22 30.5t14.5 41.5t10.5 56q1 23 12.5 34t27.5 11q14 1 26 -10.5t14 -32.5q0 -29 -6 -52t-10 -29q6 -8 15.5 -17t22.5 -15.5t29.5 -11t35.5 -3.5zM193 297q0 -50 36 -58q10 -2 22 -3t23 -1t19 1t10 1q29 5 36.5 16.5t10.5 34.5q1 10 1.5 19.5t0.5 19.5
q-14 0 -33.5 -0.5t-41 -0.5t-43.5 -0.5t-41 -0.5v-28z" />
    <glyph glyph-name="uni3145" unicode="&#x3145;" horiz-adv-x="879" 
d="M589 353q23 2 33 -7.5t10 -24.5q0 -14 -10.5 -28.5t-30.5 -18.5q-42 -5 -88 12t-78 49q-12 -15 -22.5 -28.5t-24.5 -25.5q-14 -11 -32 -20t-42 -14q-18 -5 -33 3.5t-21 22.5q-7 14 -1 28.5t29 21.5q27 8 48 27t36 43.5t24 50.5t13 49q3 23 16.5 33.5t27.5 8.5
q14 -1 25 -13t10 -33q1 -29 -6 -51.5t-10 -28.5q4 -11 20.5 -21.5t36.5 -19t39.5 -13t30.5 -2.5z" />
    <glyph glyph-name="uni3146" unicode="&#x3146;" horiz-adv-x="879" 
d="M401 322q21 2 30 -10t8 -25q-1 -14 -9 -25t-25 -13q-11 -2 -28.5 -0.5t-36 5t-36 10.5t-28.5 16q-17 -26 -35.5 -41.5t-41.5 -25.5q-26 -11 -41.5 -3.5t-21.5 21.5q-5 13 0 29.5t23 22.5q27 9 42.5 30t23 48.5t8.5 58.5t-3 59q-4 20 7.5 31t27.5 11q15 2 29.5 -7.5
t16.5 -27.5q1 -12 1.5 -31t-0.5 -39t-2.5 -37.5t-4.5 -24.5q3 -6 12.5 -12.5t23 -11.5t29 -7.5t31.5 -0.5zM711 355q17 1 25.5 -9.5t8.5 -24.5q0 -16 -9 -26.5t-23 -11.5q-35 -2 -61 3.5t-46 18.5q-6 -17 -22 -40.5t-48 -43.5q-22 -14 -38.5 -10t-23.5 14q-9 11 -7.5 27
t16.5 28q46 33 52 80q6 25 6.5 50.5t-3.5 53.5q-2 17 9.5 27.5t25.5 13.5q15 1 29 -6t18 -24q5 -22 4.5 -45t-2.5 -46q10 -17 35.5 -23.5t53.5 -5.5z" />
    <glyph glyph-name="uni3147" unicode="&#x3147;" horiz-adv-x="879" 
d="M487 357q2 20 -8.5 34.5t-29.5 15.5q-12 1 -23 -4t-18.5 -13t-11.5 -19t-3 -22q2 -16 11.5 -28t25.5 -12q22 0 38 14t19 34zM314 369q11 53 46.5 83t84.5 30q26 0 48.5 -10.5t38.5 -28t24.5 -40t7.5 -46.5q-2 -28 -14.5 -51.5t-31.5 -40t-42.5 -25.5t-48.5 -7
q-26 2 -48 14.5t-37.5 31.5t-23 42.5t-4.5 47.5z" />
    <glyph glyph-name="uni3148" unicode="&#x3148;" horiz-adv-x="879" 
d="M488 422q-2 -21 -5 -41t-6 -39q13 -8 29.5 -15t34 -11.5t34.5 -7t30 -2.5q16 -1 25.5 -14t7.5 -27q-2 -18 -13.5 -28.5t-31.5 -8.5q-29 0 -64.5 10.5t-66.5 26.5q-8 -33 -16 -62t-16 -55q-6 -17 -21.5 -22.5t-30.5 -0.5q-14 3 -23.5 15t-2.5 29q5 24 12.5 53t14.5 59.5
t12.5 60t5.5 54.5q-1 11 -3.5 20t-18.5 9q-21 0 -54 -2t-60 -5q-36 -9 -42 31q-3 18 4.5 29.5t29.5 16.5q14 3 27 5t29 3t35 2t45 2q31 0 51 -7t31 -18.5t14.5 -27t2.5 -32.5z" />
    <glyph glyph-name="uni3149" unicode="&#x3149;" horiz-adv-x="879" 
d="M415 335q17 -9 20.5 -24t-2.5 -28q-7 -14 -21 -20.5t-28 -0.5q-20 7 -39 16t-38 26q-12 -19 -19.5 -31.5t-12.5 -20.5t-9 -13.5t-8 -10.5q-9 -13 -24 -14.5t-27 5.5t-18 21.5t6 31.5q49 68 76 155q7 23 0.5 30t-19.5 9q-17 3 -30 3.5t-37 2.5q-19 2 -24.5 12t-6.5 26
q0 17 8.5 31t28.5 15q23 0 45.5 -2t43.5 -6q18 -3 34.5 -10t28.5 -18.5t17 -28t1 -38.5q-4 -23 -12.5 -42.5t-12.5 -30.5q12 -12 34 -23.5t45 -21.5zM702 371q19 -9 21.5 -22t-2.5 -26q-5 -15 -18.5 -21t-30.5 1q-10 3 -22.5 7.5t-24.5 10t-22 12t-16 14.5l-31 -62
q-7 -13 -21 -15.5t-25 3.5q-12 5 -18 17t3 27q16 33 26 55.5t16 37t9.5 23.5t5.5 16q8 26 3 36t-15 12q-16 4 -39.5 6t-44.5 2q-17 0 -25 12t-8 26q1 14 11 26.5t30 11.5q26 -1 60 -5t59 -9q37 -8 53.5 -33.5t7.5 -57.5q-3 -12 -6 -20t-6 -14.5t-6 -14t-7 -18.5
q16 -15 40.5 -23.5t42.5 -14.5z" />
    <glyph glyph-name="uni314A" unicode="&#x314a;" horiz-adv-x="879" 
d="M613 267q18 3 28.5 -8t12.5 -26q2 -17 -6 -30t-27 -16q-29 -6 -73 -2.5t-86 23.5q-6 -9 -17.5 -22t-25 -26.5t-26.5 -25.5t-22 -18q-15 -11 -30 -9t-23 12q-8 11 -8.5 26.5t14.5 29.5q48 42 66.5 69.5t25.5 39.5q12 23 10.5 36t-27.5 13q-14 0 -32.5 -0.5t-37 -1.5
t-35.5 -2t-28 -2q-19 -2 -30 8.5t-12 24.5q-2 15 5.5 28.5t28.5 18.5q38 6 78.5 6t75.5 2q53 1 80 -15t24 -49q-2 -21 -5.5 -36t-12.5 -37q35 -14 59 -16.5t56 5.5zM422 491q-36 7 -77 20t-77 35q-15 11 -17 25t4 28q5 13 18.5 19.5t33.5 -1.5q19 -9 34.5 -15.5t30.5 -12
t31 -9.5t36 -8q17 -4 23.5 -16.5t4.5 -29.5q-3 -16 -14.5 -28t-30.5 -7z" />
    <glyph glyph-name="uni314B" unicode="&#x314b;" horiz-adv-x="879" 
d="M600 175q-3 -18 -16.5 -25.5t-27.5 -6.5q-15 2 -26 12.5t-9 31.5q1 12 1 34.5t1 49.5q-19 1 -46.5 0.5t-56.5 -1t-55 -2t-42 -3.5q-24 0 -35.5 11.5t-12.5 26.5q-2 14 7.5 27t29.5 15q15 1 42.5 2.5t59 2t61.5 1t48 -0.5q0 20 -0.5 37t-1.5 28q-1 20 -3.5 29t-22.5 10
q-14 1 -34 1.5t-41 0.5t-40.5 -1t-33.5 -4q-24 -4 -37 7t-16 25q-3 15 5 28.5t28 18.5q16 4 42.5 5.5t55 2.5t55 0.5t42.5 -1.5q27 -1 43 -6.5t25 -16t12 -27t3 -39.5q0 -22 0.5 -59t0.5 -77.5t-1 -78t-4 -58.5z" />
    <glyph glyph-name="uni314C" unicode="&#x314c;" horiz-adv-x="879" 
d="M589 161q-30 -6 -68.5 -10.5t-77.5 -5.5t-74 2t-57 12q-16 6 -26 23t-15 43q-7 27 -10 61.5t-2.5 71t4 71t9.5 60.5q8 34 30 48t60 19q20 3 45 4t49.5 1.5t46.5 -0.5t35 -2q20 -3 28.5 -18t6.5 -28q-3 -14 -14.5 -23.5t-33.5 -7.5q-11 1 -29 1h-38t-38.5 -1t-30.5 -3
q-30 -5 -35 -34q-3 -14 -3.5 -31.5t-0.5 -31.5q44 -5 93 -1.5t91 5.5q15 2 24.5 -8.5t10.5 -24.5q2 -14 -5 -26.5t-24 -13.5q-46 -4 -98.5 -6.5t-95.5 4.5q0 -17 0.5 -34t3.5 -26q1 -8 3.5 -14t7 -9.5t13 -6t22.5 -3.5q13 -1 35 0t47 3t50.5 5t46.5 8q19 5 30 -5t15 -22
q3 -14 -4 -27t-27 -19z" />
    <glyph glyph-name="uni314D" unicode="&#x314d;" horiz-adv-x="879" 
d="M241 470q-17 -2 -27 7t-12 24q-4 15 2 28.5t25 18.5q20 4 50.5 6.5t66.5 3.5t74 1.5t73 0.5t64.5 -1.5t47.5 -2.5q23 -2 33 -16.5t10 -29.5q0 -17 -11 -25t-29 -8q-2 0 -16 1t-36 3v-51.5t-1 -65.5t-1.5 -65.5t-1.5 -52.5q26 2 50 4t44 6q23 5 33.5 -3t14.5 -22t-1 -29
t-23 -19q-16 -4 -51.5 -7t-81 -5.5t-95.5 -4t-93.5 -3t-75.5 -2t-42 -0.5q-24 0 -35 9.5t-13 23.5q-2 15 5.5 28.5t22.5 14.5l83 3q-1 22 -2 54t-1.5 66t-1 65t-0.5 51zM371 241q26 0 51.5 0.5t50.5 1.5q1 23 2.5 55.5t2 67t0.5 66t-1 51.5q-26 0 -54.5 -0.5t-57.5 -1.5
q-1 -20 -0.5 -51.5t1.5 -65.5t2 -66.5t3 -56.5z" />
    <glyph glyph-name="uni314E" unicode="&#x314e;" horiz-adv-x="879" 
d="M439 352q32 -1 59 -10.5t45.5 -26t29 -38.5t9.5 -48q-2 -67 -39.5 -101t-90.5 -36q-29 -1 -54 8t-44.5 26.5t-31.5 41t-13 51.5q-2 28 8.5 52t29 41.5t42.5 27.5t50 12zM448 274q-25 0 -40.5 -15t-13.5 -37q2 -25 18 -37t39 -10q15 1 29.5 12.5t13.5 35.5q0 21 -11 36
t-35 15zM585 394q-79 -12 -150 -7t-114 18q-21 6 -28 21t-5 29q3 15 16 24.5t34 3.5q40 -11 74 -14.5t63.5 -3.5t56 3t51.5 6q17 0 26.5 -11t11.5 -26q0 -14 -9 -27.5t-27 -15.5zM524 506q-38 7 -80.5 17.5t-80.5 32.5q-14 10 -17.5 23t2.5 27q6 13 19.5 19t33.5 -1
q21 -9 37 -15t31.5 -10.5t31.5 -8.5t37 -8q18 -4 25 -15.5t5 -28.5q-2 -15 -13.5 -26t-30.5 -6z" />
    <glyph glyph-name="uni314F" unicode="&#x314f;" horiz-adv-x="879" 
d="M331 512q-7 26 6 38t30 13q39 0 51 -45q6 -26 9.5 -61t4.5 -75q32 0 63 -0.5t64 -2.5q18 -1 27.5 -15t9.5 -29q0 -17 -8.5 -29.5t-24.5 -12.5q-38 0 -69.5 1t-60.5 1q-1 -29 -1.5 -56t-2.5 -50q-2 -21 -13.5 -31.5t-27.5 -9.5q-17 2 -29.5 13t-10.5 30q2 76 0 154.5
t-17 166.5z" />
    <glyph glyph-name="uni3150" unicode="&#x3150;" horiz-adv-x="879" 
d="M520 237q3 29 5 59t2 62q-32 1 -70 -1.5t-71 -7.5q-1 -35 -3 -63t-6 -56q-2 -16 -17.5 -26.5t-30.5 -8.5q-17 2 -28 14.5t-8 34.5q4 33 5.5 65t1.5 66t-2.5 71t-7.5 79q-3 20 8 33t26 16q16 2 31 -7t21 -30q4 -22 6 -47.5t4 -52.5q36 4 73 5.5t66 -0.5q-2 20 -4 41.5
t-4 44.5q-3 20 8 33t26 16q16 2 31 -7t21 -30q6 -33 8.5 -74t2.5 -83.5t-3 -84t-7 -75.5q-2 -16 -17.5 -26.5t-30.5 -8.5q-17 2 -28 14.5t-8 34.5z" />
    <glyph glyph-name="uni3151" unicode="&#x3151;" horiz-adv-x="879" 
d="M318 534q-7 27 5 38t29 13q20 2 35 -11.5t20 -34.5q2 -13 4.5 -25.5t4.5 -26.5q34 2 68.5 1t69.5 -4q20 -5 27 -18.5t3 -29.5q-2 -14 -12 -24.5t-25 -8.5q-27 2 -58 3t-66 -1q1 -26 1 -51t-2 -51q29 2 59.5 2t61.5 -7q17 -6 22.5 -21t3.5 -30q-4 -15 -15.5 -23.5
t-27.5 -4.5q-31 5 -57.5 4.5t-52.5 -2.5l-4 -41q-2 -22 -15.5 -31t-28.5 -7q-16 2 -28 12.5t-10 29.5q7 63 8.5 114t-0.5 93t-7.5 76.5t-12.5 66.5z" />
    <glyph glyph-name="uni3152" unicode="&#x3152;" horiz-adv-x="879" 
d="M517 519q-3 21 8 33.5t27 14.5q14 2 29.5 -6.5t20.5 -28.5q2 -8 5 -41t4.5 -83t0 -112.5t-8.5 -128.5q-4 -15 -18 -22t-30 -6q-15 2 -27.5 12t-8.5 31l6 47q-34 1 -68 -0.5t-69 -4.5q-1 -10 -0.5 -20t-0.5 -21q-1 -22 -14 -31.5t-28 -9.5q-15 1 -28 11t-12 29
q0 42 0.5 84t-1.5 83.5t-8 82t-19 81.5q-11 27 -2 42.5t25 20.5q17 5 34.5 -2.5t25.5 -28.5q4 -15 8 -29.5t7 -29.5q35 5 71 5.5t76 -3.5zM388 309q32 3 66.5 2.5t76.5 -2.5q1 23 1 47t-2 52q-36 3 -72.5 2t-72.5 -7q3 -42 3 -94z" />
    <glyph glyph-name="uni3153" unicode="&#x3153;" horiz-adv-x="879" 
d="M476 503q-8 23 2.5 37.5t28.5 18.5q17 3 33.5 -5.5t22.5 -32.5q8 -32 12.5 -64.5t7 -70t3.5 -82.5t1 -102q0 -21 -13 -32t-28 -12t-28 8t-13 26q-2 37 -2 68.5t-2 59.5q-43 -14 -86 -18t-82 2q-23 3 -33 17t-8 30q1 14 13.5 27t33.5 10q41 -5 81 -2.5t75 19.5
q-6 54 -19 98z" />
    <glyph glyph-name="uni3154" unicode="&#x3154;" horiz-adv-x="879" 
d="M458 494q4 -20 7 -60.5t3 -86.5t-2 -89.5t-7 -70.5q-3 -16 -18 -26.5t-30 -8.5q-17 2 -28 14.5t-8 34.5q6 52 6 104q-27 -4 -54 -4.5t-46 3.5q-24 3 -35 17.5t-10 30.5q0 17 12 27t35 8q19 -2 45 -0.5t50 4.5q-2 21 -3.5 43.5t-4.5 47.5q-3 20 9 33t27 16q16 2 31 -7
t21 -30zM545 198q7 63 6.5 134.5t-9.5 156.5q-3 20 8 33t26 16q16 2 31 -7t21 -30q6 -33 8.5 -74t2.5 -83.5t-3 -84t-7 -75.5q-2 -16 -17.5 -26.5t-30.5 -8.5q-17 2 -28 14.5t-8 34.5z" />
    <glyph glyph-name="uni3155" unicode="&#x3155;" horiz-adv-x="879" 
d="M467 527q-8 24 3 39t28 19q19 4 37.5 -5t24.5 -34q11 -45 16 -87.5t6.5 -84.5t1 -85.5t-0.5 -91.5q0 -22 -12.5 -33.5t-28.5 -12.5q-14 -1 -27.5 8.5t-13.5 26.5q-1 13 -1 26v27q-45 -14 -90.5 -21t-87.5 1q-24 3 -34 16.5t-8 27.5q1 14 13.5 24.5t34.5 9.5q55 -5 97 2.5
t74 19.5q0 26 -1.5 47t-3.5 41q-38 -12 -76 -17.5t-76 1.5q-24 3 -34 17t-9 30q2 14 14 25.5t34 10.5q37 -4 68.5 1t62.5 13z" />
    <glyph glyph-name="uni3156" unicode="&#x3156;" horiz-adv-x="879" 
d="M378 535q-8 23 2.5 37.5t27.5 18.5q18 4 36 -5t24 -33q10 -40 15.5 -87.5t8 -97.5t2 -99.5t-2.5 -93.5q-1 -22 -13 -32.5t-27 -11.5q-14 -1 -28.5 9.5t-14.5 27.5v24t1 22q-23 -8 -51.5 -14t-59.5 -4q-23 2 -33 14.5t-8 26.5q1 15 13 25.5t34 9.5q35 1 60.5 7t45.5 15
q0 29 -2.5 59t-6.5 63q-26 -8 -62.5 -13.5t-84.5 -0.5q-23 3 -31.5 16.5t-7.5 27.5q2 15 11.5 25.5t30.5 9.5q17 -2 54 -1t78 13q-2 11 -5 21.5t-6 20.5zM564 503q-6 23 6 37t29 16q18 2 35 -8t21 -35q13 -82 9 -172t-17 -178q-2 -20 -15.5 -30.5t-27.5 -9.5
q-15 1 -28.5 12.5t-11.5 28.5q4 41 8 85t5.5 87.5t-1.5 85.5t-12 81z" />
    <glyph glyph-name="uni3157" unicode="&#x3157;" horiz-adv-x="879" 
d="M375 462q-6 17 6 30t30 16q18 5 34.5 -2.5t21.5 -27.5q3 -15 6 -34.5t4.5 -41t2.5 -43t1 -39.5q105 8 200 32q20 5 33.5 -4.5t17.5 -24.5q5 -14 -1.5 -29.5t-27.5 -21.5q-56 -14 -124 -23.5t-138 -13t-137 -1t-119 13.5q-26 5 -34.5 21.5t-4.5 32.5q2 14 14.5 25t32.5 7
q95 -20 199 -18q1 30 -2.5 71t-14.5 75z" />
    <glyph glyph-name="uni3158" unicode="&#x3158;" horiz-adv-x="879" 
d="M245 297q-7 17 4 30.5t28 17.5q17 5 33.5 -1.5t22.5 -27.5q8 -32 12.5 -62t6.5 -64q25 5 52.5 12.5t57.5 16.5q20 5 33 -4t17 -23t-3 -29t-28 -20q-88 -30 -181.5 -43t-193.5 5q-24 4 -33.5 19.5t-7.5 30.5q2 16 14.5 26.5t32.5 7.5q40 -8 74.5 -9.5t79.5 -1.5
q1 25 -4 55t-17 64zM554 541q-9 26 0.5 41t26.5 19q16 2 33 -6.5t24 -32.5q7 -26 12 -52t8 -52q20 -1 49 -1t71 -2q18 -1 27 -14t9 -29q0 -15 -8 -28t-24 -13q-32 0 -60.5 0.5t-55.5 0.5q2 -35 0.5 -69t-5.5 -67q-3 -21 -16.5 -30t-29.5 -7q-17 2 -29.5 13.5t-10.5 29.5
q2 32 4.5 69t1.5 76t-7 78.5t-20 75.5z" />
    <glyph glyph-name="uni3159" unicode="&#x3159;" horiz-adv-x="879" 
d="M686 530q-4 21 6.5 33.5t26.5 15.5q14 2 29.5 -5.5t21.5 -27.5q20 -75 21.5 -152.5t-6.5 -152.5q-3 -14 -17 -22t-30 -7q-15 1 -27.5 11t-9.5 30q4 32 5.5 60.5t1.5 57.5q-26 0 -51 -5t-51 -12q2 -26 1.5 -52t-0.5 -53q0 -21 -12.5 -31.5t-28.5 -10.5q-14 0 -27.5 10
t-13.5 28q-1 37 -2.5 72t-5.5 68.5t-11.5 65.5t-21.5 64q-11 26 -2.5 42t24.5 22q17 5 34.5 -2t25.5 -27q10 -29 17 -54.5t12 -51.5q17 5 43 9t62 6q-2 17 -5.5 34t-8.5 37zM250 317q-7 18 4 31t28 17q17 5 33.5 -1.5t22.5 -26.5q8 -35 12.5 -66t5.5 -66q20 3 40 7t40 10
q20 5 32.5 -4.5t17.5 -24.5q4 -14 -3.5 -29t-27.5 -20q-81 -24 -164 -29t-164 11q-24 4 -34 19t-7 31q2 15 14 26t33 8q72 -12 138 -12q0 26 -4.5 56t-16.5 63z" />
    <glyph glyph-name="uni315A" unicode="&#x315a;" horiz-adv-x="879" 
d="M313 297q-6 17 4.5 30.5t28.5 17.5q17 5 33.5 -1.5t21.5 -27.5q8 -33 12.5 -63t6.5 -64q28 5 58 13t62 17q20 5 33 -4t17 -23t-3 -29t-27 -20q-91 -30 -186.5 -42.5t-198.5 4.5q-24 4 -34 19.5t-7 30.5q2 16 14 26.5t33 7.5q39 -8 73.5 -9.5t79.5 -1.5q1 25 -4 55t-17 64
zM632 541q-9 26 0.5 41t26.5 19q16 2 33 -6.5t24 -32.5q21 -79 26.5 -163t-3.5 -163q-3 -21 -16.5 -30t-29.5 -7q-17 2 -29.5 13.5t-10.5 29.5q2 32 4.5 69t1.5 76t-7 78.5t-20 75.5z" />
    <glyph glyph-name="uni315B" unicode="&#x315b;" horiz-adv-x="879" 
d="M243 460q-6 17 6 30t30 16q18 5 34.5 -2.5t21.5 -27.5q3 -15 6 -35t5 -41.5t3 -43t1 -40.5q82 -2 163 6q1 30 -3 69t-14 71q-6 17 6 30t30 16q18 5 34.5 -2.5t21.5 -27.5q6 -27 9.5 -67t4.5 -76q20 4 39.5 8t39.5 9t33.5 -4.5t17.5 -24.5q5 -14 -1.5 -29.5t-27.5 -21.5
q-56 -14 -124 -23.5t-138 -13t-137 -1t-119 13.5q-26 5 -34.5 21.5t-4.5 32.5q2 14 14.5 25t32.5 7q17 -4 33.5 -6.5t33.5 -4.5q0 30 -3.5 67.5t-13.5 69.5z" />
    <glyph glyph-name="uni315C" unicode="&#x315c;" horiz-adv-x="879" 
d="M499 329q4 -41 6.5 -80.5t1.5 -77.5q-1 -18 -14.5 -27t-27.5 -10q-16 -1 -28 6.5t-12 24.5q0 36 -2.5 74.5t-9.5 85.5q-56 1 -115.5 1.5t-106.5 14.5q-23 6 -28.5 19t-3.5 27q2 12 15 21t27 7q54 -7 115.5 -11t124 -2.5t122 9t110.5 22.5q14 3 27 -5.5t17 -22.5
q5 -14 -2 -28.5t-30 -20.5q-23 -5 -64.5 -11t-121.5 -16z" />
    <glyph glyph-name="uni315D" unicode="&#x315d;" horiz-adv-x="879" 
d="M388 231q3 -32 4.5 -71t0.5 -68q-2 -18 -14.5 -26.5t-28.5 -10.5q-15 -1 -28.5 6.5t-11.5 24.5q-2 16 -2.5 34.5t-1.5 37.5t-2.5 36.5t-4.5 31.5q-39 -1 -73 1.5t-67 11.5q-23 6 -30 19.5t-4 27.5q5 14 14 24.5t28 7.5q82 -14 164.5 -10.5t169.5 33.5q15 4 27 -6t17 -25
q5 -14 -1.5 -29t-30.5 -22q-35 -11 -65.5 -18t-59.5 -10zM565 456q-23 3 -33 16t-8 27q1 14 12.5 24t28.5 9q22 -2 48 1t49 10q-3 19 -7 36t-9 31q-8 23 2.5 37.5t27.5 18.5t35 -5t24 -33q10 -38 14.5 -75.5t7.5 -82.5q0 -12 0.5 -26t0.5 -32.5t-0.5 -44t-3.5 -60.5
q-2 -22 -16 -32t-28 -9q-15 1 -27 10t-10 27q2 38 2.5 62.5t0 41t-1.5 27t-1 20.5q0 2 -0.5 4.5t-0.5 5.5q-28 -7 -56 -9.5t-51 1.5z" />
    <glyph glyph-name="uni315E" unicode="&#x315e;" horiz-adv-x="879" 
d="M515 610q-8 23 2.5 37.5t27.5 18.5t35 -5t24 -33q23 -89 27.5 -166t-3.5 -152q-2 -22 -14 -32.5t-26 -11.5q-15 -1 -27.5 7.5t-12.5 26.5q-2 49 -1.5 86.5t-1.5 72.5q-21 -5 -44.5 -9t-46.5 -2t-33 16t-8 29q1 16 13.5 28t33.5 11q23 0 40 2t34 7q-4 16 -8.5 33t-10.5 36
zM350 202q3 -52 0 -101q-2 -17 -14 -26.5t-27 -10.5q-14 -2 -27 6.5t-11 25.5q-1 9 -0.5 16t0.5 17t-1 25.5t-5 41.5q-40 0 -75 2t-69 12q-23 7 -30 20t-4 27q5 12 16.5 21t25.5 7q173 -30 334 21q15 4 27 -5t17 -23t-1.5 -28t-30.5 -21q-35 -11 -65.5 -18t-59.5 -9z
M685 603q-9 26 -1 40.5t24 19.5q16 4 33 -4.5t26 -28.5q25 -86 27.5 -165t-4.5 -161q-5 -23 -18.5 -31.5t-27.5 -5.5q-14 2 -24.5 14t-7.5 32q16 72 7.5 148t-34.5 142z" />
    <glyph glyph-name="uni315F" unicode="&#x315f;" horiz-adv-x="879" 
d="M407 230q1 -16 2.5 -34t2 -36.5t0.5 -36t-1 -32.5q-2 -18 -15 -26.5t-28 -9.5q-16 -1 -28.5 6.5t-10.5 24.5q-3 32 -4.5 72t-5.5 69q-39 -1 -73 1.5t-67 12.5q-23 6 -29.5 20t-3.5 28q5 14 13.5 24t28.5 7q81 -14 165 -13t170 32q14 4 26 -6t17 -25q5 -14 -1.5 -29
t-31.5 -22q-35 -10 -65.5 -17t-60.5 -10zM626 610q-8 23 2.5 37.5t27.5 18.5q18 4 35.5 -5t24.5 -33q19 -75 21 -154.5t-3 -166.5q-2 -22 -15.5 -32t-28.5 -9q-14 1 -26.5 10t-10.5 27q4 76 0.5 154t-27.5 153z" />
    <glyph glyph-name="uni3160" unicode="&#x3160;" horiz-adv-x="879" 
d="M343 374q2 -20 3.5 -43t2.5 -46t1.5 -45.5t0.5 -41.5q-1 -17 -14.5 -26.5t-27.5 -10.5q-16 -1 -28 6.5t-12 24.5q0 45 -1 90t-7 92l-86 12q-23 6 -30.5 21t-3.5 29q4 12 15.5 21t26.5 7q57 -6 121 -9.5t130 -2t132 8.5t128 20q15 3 27 -5t17 -22t-2 -28.5t-30 -20.5
q-15 -5 -44 -9t-64 -9q5 -38 7 -77.5t1 -72.5q-1 -17 -14 -26.5t-28 -10.5t-27.5 6.5t-12.5 24.5q0 34 -2.5 69.5t-7.5 78.5q-56 -5 -100.5 -6t-70.5 1z" />
    <glyph glyph-name="uni3161" unicode="&#x3161;" horiz-adv-x="879" 
d="M697 339q-54 -22 -121.5 -36.5t-137.5 -20t-137.5 -1.5t-122.5 19q-25 7 -32 22.5t-3 30.5q3 14 16 23t28 4q126 -23 249 -10t238 51q20 6 36.5 -1.5t22.5 -22.5q7 -14 0 -30.5t-36 -27.5z" />
    <glyph glyph-name="uni3162" unicode="&#x3162;" horiz-adv-x="879" 
d="M628 588q-5 17 3.5 31t23.5 19t30.5 -1t23.5 -27q26 -73 30 -152.5t-7 -153.5q-3 -21 -17 -28t-28 -5q-14 3 -25 14.5t-8 31.5q8 76 0.5 141.5t-26.5 129.5zM518 179q-84 -28 -167 -41.5t-167 -3.5q-26 2 -36.5 15t-9.5 28q1 14 12 26t32 11q87 -8 162 4t146 35
q20 6 34 -2.5t20 -22.5q5 -14 -0.5 -28.5t-25.5 -20.5z" />
    <glyph glyph-name="uni3163" unicode="&#x3163;" horiz-adv-x="879" 
d="M384 500q-5 17 3.5 31t23.5 19t30.5 -1t23.5 -27q26 -73 30 -152.5t-7 -153.5q-4 -21 -17.5 -28t-27.5 -4q-14 2 -25 13.5t-8 31.5q8 76 0.5 141.5t-26.5 129.5z" />
    <glyph glyph-name="cid409" unicode="&#x3165;" 
 />
    <glyph glyph-name="cid410" unicode="&#x3166;" 
 />
    <glyph glyph-name="cid411" unicode="&#x3167;" 
 />
    <glyph glyph-name="cid412" unicode="&#x3168;" 
 />
    <glyph glyph-name="cid413" unicode="&#x3169;" 
 />
    <glyph glyph-name="cid414" unicode="&#x316a;" 
 />
    <glyph glyph-name="cid415" unicode="&#x316b;" 
 />
    <glyph glyph-name="cid416" unicode="&#x316c;" 
 />
    <glyph glyph-name="cid417" unicode="&#x316d;" 
 />
    <glyph glyph-name="cid418" unicode="&#x316e;" 
 />
    <glyph glyph-name="cid419" unicode="&#x316f;" 
 />
    <glyph glyph-name="cid420" unicode="&#x3170;" 
 />
    <glyph glyph-name="cid421" unicode="&#x3171;" 
 />
    <glyph glyph-name="cid422" unicode="&#x3172;" 
 />
    <glyph glyph-name="cid423" unicode="&#x3173;" 
 />
    <glyph glyph-name="cid424" unicode="&#x3174;" 
 />
    <glyph glyph-name="cid425" unicode="&#x3175;" 
 />
    <glyph glyph-name="cid426" unicode="&#x3176;" 
 />
    <glyph glyph-name="cid427" unicode="&#x3177;" 
 />
    <glyph glyph-name="cid428" unicode="&#x3178;" 
 />
    <glyph glyph-name="cid429" unicode="&#x3179;" 
 />
    <glyph glyph-name="cid430" unicode="&#x317a;" 
 />
    <glyph glyph-name="cid431" unicode="&#x317b;" 
 />
    <glyph glyph-name="cid432" unicode="&#x317c;" 
 />
    <glyph glyph-name="cid433" unicode="&#x317d;" 
 />
    <glyph glyph-name="cid434" unicode="&#x317e;" 
 />
    <glyph glyph-name="cid435" unicode="&#x317f;" 
 />
    <glyph glyph-name="cid436" unicode="&#x3180;" 
 />
    <glyph glyph-name="cid437" unicode="&#x3181;" 
 />
    <glyph glyph-name="cid438" unicode="&#x3182;" 
 />
    <glyph glyph-name="cid439" unicode="&#x3183;" 
 />
    <glyph glyph-name="cid440" unicode="&#x3184;" 
 />
    <glyph glyph-name="cid441" unicode="&#x3185;" 
 />
    <glyph glyph-name="cid442" unicode="&#x3186;" 
 />
    <glyph glyph-name="cid443" unicode="&#x3187;" 
 />
    <glyph glyph-name="cid444" unicode="&#x3188;" 
 />
    <glyph glyph-name="cid445" unicode="&#x3189;" 
 />
    <glyph glyph-name="cid446" unicode="&#x318a;" 
 />
    <glyph glyph-name="cid447" unicode="&#x318b;" 
 />
    <glyph glyph-name="cid448" unicode="&#x318c;" 
 />
    <glyph glyph-name="cid449" unicode="&#x318d;" 
 />
    <glyph glyph-name="cid450" unicode="&#x318e;" 
 />
    <glyph glyph-name="cid773" unicode="&#x3200;" 
 />
    <glyph glyph-name="cid774" unicode="&#x3201;" 
 />
    <glyph glyph-name="cid775" unicode="&#x3202;" 
 />
    <glyph glyph-name="cid776" unicode="&#x3203;" 
 />
    <glyph glyph-name="cid777" unicode="&#x3204;" 
 />
    <glyph glyph-name="cid778" unicode="&#x3205;" 
 />
    <glyph glyph-name="cid779" unicode="&#x3206;" 
 />
    <glyph glyph-name="cid780" unicode="&#x3207;" 
 />
    <glyph glyph-name="cid781" unicode="&#x3208;" 
 />
    <glyph glyph-name="cid782" unicode="&#x3209;" 
 />
    <glyph glyph-name="cid783" unicode="&#x320a;" 
 />
    <glyph glyph-name="cid784" unicode="&#x320b;" 
 />
    <glyph glyph-name="cid785" unicode="&#x320c;" 
 />
    <glyph glyph-name="cid786" unicode="&#x320d;" 
 />
    <glyph glyph-name="cid787" unicode="&#x320e;" 
 />
    <glyph glyph-name="cid788" unicode="&#x320f;" 
 />
    <glyph glyph-name="cid789" unicode="&#x3210;" 
 />
    <glyph glyph-name="cid790" unicode="&#x3211;" 
 />
    <glyph glyph-name="cid791" unicode="&#x3212;" 
 />
    <glyph glyph-name="cid792" unicode="&#x3213;" 
 />
    <glyph glyph-name="cid793" unicode="&#x3214;" 
 />
    <glyph glyph-name="cid794" unicode="&#x3215;" 
 />
    <glyph glyph-name="cid795" unicode="&#x3216;" 
 />
    <glyph glyph-name="cid796" unicode="&#x3217;" 
 />
    <glyph glyph-name="cid797" unicode="&#x3218;" 
 />
    <glyph glyph-name="cid798" unicode="&#x3219;" 
 />
    <glyph glyph-name="cid799" unicode="&#x321a;" 
 />
    <glyph glyph-name="cid800" unicode="&#x321b;" 
 />
    <glyph glyph-name="cid257" unicode="&#x321c;" 
 />
    <glyph glyph-name="cid8788" unicode="&#x3231;" 
 />
    <glyph glyph-name="cid8789" unicode="&#x3239;" 
 />
    <glyph glyph-name="cid8796" unicode="&#x3251;" 
 />
    <glyph glyph-name="cid8797" unicode="&#x3252;" 
 />
    <glyph glyph-name="cid8798" unicode="&#x3253;" 
 />
    <glyph glyph-name="cid8799" unicode="&#x3254;" 
 />
    <glyph glyph-name="cid8800" unicode="&#x3255;" 
 />
    <glyph glyph-name="cid8801" unicode="&#x3256;" 
 />
    <glyph glyph-name="cid8802" unicode="&#x3257;" 
 />
    <glyph glyph-name="cid8803" unicode="&#x3258;" 
 />
    <glyph glyph-name="cid8804" unicode="&#x3259;" 
 />
    <glyph glyph-name="cid8805" unicode="&#x325a;" 
 />
    <glyph glyph-name="cid679" unicode="&#x3260;" 
 />
    <glyph glyph-name="cid680" unicode="&#x3261;" 
 />
    <glyph glyph-name="cid681" unicode="&#x3262;" 
 />
    <glyph glyph-name="cid682" unicode="&#x3263;" 
 />
    <glyph glyph-name="cid683" unicode="&#x3264;" 
 />
    <glyph glyph-name="cid684" unicode="&#x3265;" 
 />
    <glyph glyph-name="cid685" unicode="&#x3266;" 
 />
    <glyph glyph-name="cid686" unicode="&#x3267;" 
 />
    <glyph glyph-name="cid687" unicode="&#x3268;" 
 />
    <glyph glyph-name="cid688" unicode="&#x3269;" 
 />
    <glyph glyph-name="cid689" unicode="&#x326a;" 
 />
    <glyph glyph-name="cid690" unicode="&#x326b;" 
 />
    <glyph glyph-name="cid691" unicode="&#x326c;" 
 />
    <glyph glyph-name="cid692" unicode="&#x326d;" 
 />
    <glyph glyph-name="cid693" unicode="&#x326e;" 
 />
    <glyph glyph-name="cid694" unicode="&#x326f;" 
 />
    <glyph glyph-name="cid695" unicode="&#x3270;" 
 />
    <glyph glyph-name="cid696" unicode="&#x3271;" 
 />
    <glyph glyph-name="cid697" unicode="&#x3272;" 
 />
    <glyph glyph-name="cid698" unicode="&#x3273;" 
 />
    <glyph glyph-name="cid699" unicode="&#x3274;" 
 />
    <glyph glyph-name="cid700" unicode="&#x3275;" 
 />
    <glyph glyph-name="cid701" unicode="&#x3276;" 
 />
    <glyph glyph-name="cid702" unicode="&#x3277;" 
 />
    <glyph glyph-name="cid703" unicode="&#x3278;" 
 />
    <glyph glyph-name="cid704" unicode="&#x3279;" 
 />
    <glyph glyph-name="cid705" unicode="&#x327a;" 
 />
    <glyph glyph-name="cid706" unicode="&#x327b;" 
 />
    <glyph glyph-name="cid256" unicode="&#x327f;" 
 />
    <glyph glyph-name="cid9301" unicode="&#x328a;" 
 />
    <glyph glyph-name="cid9302" unicode="&#x328b;" 
 />
    <glyph glyph-name="cid9303" unicode="&#x328c;" 
 />
    <glyph glyph-name="cid9304" unicode="&#x328d;" 
 />
    <glyph glyph-name="cid9305" unicode="&#x328e;" 
 />
    <glyph glyph-name="cid9306" unicode="&#x328f;" 
 />
    <glyph glyph-name="cid9300" unicode="&#x3290;" 
 />
    <glyph glyph-name="cid9080" unicode="&#x3294;" 
 />
    <glyph glyph-name="cid8761" unicode="&#x329e;" 
 />
    <glyph glyph-name="cid9096" unicode="&#x32a5;" 
 />
    <glyph glyph-name="cid627" unicode="&#x3380;" 
 />
    <glyph glyph-name="cid628" unicode="&#x3381;" 
 />
    <glyph glyph-name="cid629" unicode="&#x3382;" 
 />
    <glyph glyph-name="cid630" unicode="&#x3383;" 
 />
    <glyph glyph-name="cid631" unicode="&#x3384;" 
 />
    <glyph glyph-name="cid612" unicode="&#x3388;" 
 />
    <glyph glyph-name="cid613" unicode="&#x3389;" 
 />
    <glyph glyph-name="cid646" unicode="&#x338a;" 
 />
    <glyph glyph-name="cid647" unicode="&#x338b;" 
 />
    <glyph glyph-name="cid648" unicode="&#x338c;" 
 />
    <glyph glyph-name="cid608" unicode="&#x338d;" 
 />
    <glyph glyph-name="cid609" unicode="&#x338e;" 
 />
    <glyph glyph-name="cid610" unicode="&#x338f;" 
 />
    <glyph glyph-name="cid638" unicode="&#x3390;" 
 />
    <glyph glyph-name="cid639" unicode="&#x3391;" 
 />
    <glyph glyph-name="cid640" unicode="&#x3392;" 
 />
    <glyph glyph-name="cid641" unicode="&#x3393;" 
 />
    <glyph glyph-name="cid642" unicode="&#x3394;" 
 />
    <glyph glyph-name="cid587" unicode="&#x3395;" 
 />
    <glyph glyph-name="cid588" unicode="&#x3396;" 
 />
    <glyph glyph-name="cid589" unicode="&#x3397;" 
 />
    <glyph glyph-name="cid591" unicode="&#x3398;" 
 />
    <glyph glyph-name="cid597" unicode="&#x3399;" 
 />
    <glyph glyph-name="cid598" unicode="&#x339a;" 
 />
    <glyph glyph-name="cid599" unicode="&#x339b;" 
 />
    <glyph glyph-name="cid600" unicode="&#x339c;" 
 />
    <glyph glyph-name="cid601" unicode="&#x339d;" 
 />
    <glyph glyph-name="cid602" unicode="&#x339e;" 
 />
    <glyph glyph-name="cid603" unicode="&#x339f;" 
 />
    <glyph glyph-name="cid604" unicode="&#x33a0;" 
 />
    <glyph glyph-name="cid605" unicode="&#x33a1;" 
 />
    <glyph glyph-name="cid606" unicode="&#x33a2;" 
 />
    <glyph glyph-name="cid593" unicode="&#x33a3;" 
 />
    <glyph glyph-name="cid594" unicode="&#x33a4;" 
 />
    <glyph glyph-name="cid595" unicode="&#x33a5;" 
 />
    <glyph glyph-name="cid596" unicode="&#x33a6;" 
 />
    <glyph glyph-name="cid615" unicode="&#x33a7;" 
 />
    <glyph glyph-name="cid616" unicode="&#x33a8;" 
 />
    <glyph glyph-name="cid655" unicode="&#x33a9;" 
 />
    <glyph glyph-name="cid656" unicode="&#x33aa;" 
 />
    <glyph glyph-name="cid657" unicode="&#x33ab;" 
 />
    <glyph glyph-name="cid658" unicode="&#x33ac;" 
 />
    <glyph glyph-name="cid651" unicode="&#x33ad;" 
 />
    <glyph glyph-name="cid652" unicode="&#x33ae;" 
 />
    <glyph glyph-name="cid653" unicode="&#x33af;" 
 />
    <glyph glyph-name="cid617" unicode="&#x33b0;" 
 />
    <glyph glyph-name="cid618" unicode="&#x33b1;" 
 />
    <glyph glyph-name="cid619" unicode="&#x33b2;" 
 />
    <glyph glyph-name="cid620" unicode="&#x33b3;" 
 />
    <glyph glyph-name="cid621" unicode="&#x33b4;" 
 />
    <glyph glyph-name="cid622" unicode="&#x33b5;" 
 />
    <glyph glyph-name="cid623" unicode="&#x33b6;" 
 />
    <glyph glyph-name="cid624" unicode="&#x33b7;" 
 />
    <glyph glyph-name="cid625" unicode="&#x33b8;" 
 />
    <glyph glyph-name="cid626" unicode="&#x33b9;" 
 />
    <glyph glyph-name="cid632" unicode="&#x33ba;" 
 />
    <glyph glyph-name="cid633" unicode="&#x33bb;" 
 />
    <glyph glyph-name="cid634" unicode="&#x33bc;" 
 />
    <glyph glyph-name="cid635" unicode="&#x33bd;" 
 />
    <glyph glyph-name="cid636" unicode="&#x33be;" 
 />
    <glyph glyph-name="cid637" unicode="&#x33bf;" 
 />
    <glyph glyph-name="cid644" unicode="&#x33c0;" 
 />
    <glyph glyph-name="cid645" unicode="&#x33c1;" 
 />
    <glyph glyph-name="cid261" unicode="&#x33c2;" 
 />
    <glyph glyph-name="cid662" unicode="&#x33c3;" 
 />
    <glyph glyph-name="cid592" unicode="&#x33c4;" 
 />
    <glyph glyph-name="cid650" unicode="&#x33c5;" 
 />
    <glyph glyph-name="cid665" unicode="&#x33c6;" 
 />
    <glyph glyph-name="cid259" unicode="&#x33c7;" 
 />
    <glyph glyph-name="cid614" unicode="&#x33c8;" 
 />
    <glyph glyph-name="cid663" unicode="&#x33c9;" 
 />
    <glyph glyph-name="cid607" unicode="&#x33ca;" 
 />
    <glyph glyph-name="cid8790" unicode="&#x33cb;" 
 />
    <glyph glyph-name="cid611" unicode="&#x33cf;" 
 />
    <glyph glyph-name="cid660" unicode="&#x33d0;" 
 />
    <glyph glyph-name="cid661" unicode="&#x33d3;" 
 />
    <glyph glyph-name="cid649" unicode="&#x33d6;" 
 />
    <glyph glyph-name="cid262" unicode="&#x33d8;" 
 />
    <glyph glyph-name="cid654" unicode="&#x33db;" 
 />
    <glyph glyph-name="cid664" unicode="&#x33dc;" 
 />
    <glyph glyph-name="cid659" unicode="&#x33dd;" 
 />
    <glyph glyph-name="cid6704" unicode="&#x4e01;" 
 />
    <glyph glyph-name="cid7364" unicode="&#x4e03;" 
 />
    <glyph glyph-name="cid4670" unicode="&#x4e07;" 
 />
    <glyph glyph-name="cid6534" unicode="&#x4e08;" 
 />
    <glyph glyph-name="cid5320" unicode="&#x4e09;" 
 />
    <glyph glyph-name="cid5331" unicode="&#x4e0a;" 
 />
    <glyph glyph-name="cid7616" unicode="&#x4e0b;" 
 />
    <glyph glyph-name="cid5109" unicode="&#x4e0d;" 
 />
    <glyph glyph-name="cid5109" unicode="&#xf967;" 
 />
    <glyph glyph-name="cid7288" unicode="&#x4e11;" 
 />
    <glyph glyph-name="cid7041" unicode="&#x4e14;" 
 />
    <glyph glyph-name="cid5181" unicode="&#x4e15;" 
 />
    <glyph glyph-name="cid5492" unicode="&#x4e16;" 
 />
    <glyph glyph-name="cid3893" unicode="&#x4e18;" 
 />
    <glyph glyph-name="cid5041" unicode="&#x4e19;" 
 />
    <glyph glyph-name="cid5682" unicode="&#x4e1e;" 
 />
    <glyph glyph-name="cid6922" unicode="&#x4e2d;" 
 />
    <glyph glyph-name="cid3802" unicode="&#x4e32;" 
 />
    <glyph glyph-name="cid3802" unicode="&#xf905;" 
 />
    <glyph glyph-name="cid7882" unicode="&#x4e38;" 
 />
    <glyph glyph-name="cid4192" unicode="&#x4e39;" 
 />
    <glyph glyph-name="cid4192" unicode="&#xf95e;" 
 />
    <glyph glyph-name="cid6860" unicode="&#x4e3b;" 
 />
    <glyph glyph-name="cid6029" unicode="&#x4e42;" 
 />
    <glyph glyph-name="cid4154" unicode="&#x4e43;" 
 />
    <glyph glyph-name="cid3894" unicode="&#x4e45;" 
 />
    <glyph glyph-name="cid6942" unicode="&#x4e4b;" 
 />
    <glyph glyph-name="cid5241" unicode="&#x4e4d;" 
 />
    <glyph glyph-name="cid7800" unicode="&#x4e4e;" 
 />
    <glyph glyph-name="cid7614" unicode="&#x4e4f;" 
 />
    <glyph glyph-name="cid3855" unicode="&#x4e56;" 
 />
    <glyph glyph-name="cid5683" unicode="&#x4e58;" 
 />
    <glyph glyph-name="cid3895" unicode="&#x4e5d;" 
 />
    <glyph glyph-name="cid3613" unicode="&#x4e5e;" 
 />
    <glyph glyph-name="cid5862" unicode="&#x4e5f;" 
 />
    <glyph glyph-name="cid3500" unicode="&#x4e6b;" 
 />
    <glyph glyph-name="cid4329" unicode="&#x4e6d;" 
 />
    <glyph glyph-name="cid6309" unicode="&#x4e73;" 
 />
    <glyph glyph-name="cid5092" unicode="&#x4e76;" 
 />
    <glyph glyph-name="cid5315" unicode="&#x4e77;" 
 />
    <glyph glyph-name="cid3601" unicode="&#x4e7e;" 
 />
    <glyph glyph-name="cid4389" unicode="&#x4e82;" 
 />
    <glyph glyph-name="cid4389" unicode="&#xf91b;" 
 />
    <glyph glyph-name="cid4551" unicode="&#x4e86;" 
 />
    <glyph glyph-name="cid4551" unicode="&#xf9ba;" 
 />
    <glyph glyph-name="cid5934" unicode="&#x4e88;" 
 />
    <glyph glyph-name="cid5242" unicode="&#x4e8b;" 
 />
    <glyph glyph-name="cid6197" unicode="&#x4e8e;" 
 />
    <glyph glyph-name="cid6252" unicode="&#x4e90;" 
 />
    <glyph glyph-name="cid6238" unicode="&#x4e91;" 
 />
    <glyph glyph-name="cid7801" unicode="&#x4e92;" 
 />
    <glyph glyph-name="cid6049" unicode="&#x4e94;" 
 />
    <glyph glyph-name="cid6705" unicode="&#x4e95;" 
 />
    <glyph glyph-name="cid4058" unicode="&#x4e98;" 
 />
    <glyph glyph-name="cid5243" unicode="&#x4e9b;" 
 />
    <glyph glyph-name="cid5775" unicode="&#x4e9e;" 
 />
    <glyph glyph-name="cid4696" unicode="&#x4ea1;" 
 />
    <glyph glyph-name="cid7670" unicode="&#x4ea2;" 
 />
    <glyph glyph-name="cid3868" unicode="&#x4ea4;" 
 />
    <glyph glyph-name="cid7685" unicode="&#x4ea5;" 
 />
    <glyph glyph-name="cid5947" unicode="&#x4ea6;" 
 />
    <glyph glyph-name="cid7771" unicode="&#x4ea8;" 
 />
    <glyph glyph-name="cid7710" unicode="&#x4eab;" 
 />
    <glyph glyph-name="cid3660" unicode="&#x4eac;" 
 />
    <glyph glyph-name="cid6706" unicode="&#x4ead;" 
 />
    <glyph glyph-name="cid4427" unicode="&#x4eae;" 
 />
    <glyph glyph-name="cid4427" unicode="&#xf977;" 
 />
    <glyph glyph-name="cid4193" unicode="&#x4eb6;" 
 />
    <glyph glyph-name="cid5771" unicode="&#x4ec0;" 
 />
    <glyph glyph-name="cid5771" unicode="&#xf9fd;" 
 />
    <glyph glyph-name="cid6444" unicode="&#x4ec1;" 
 />
    <glyph glyph-name="cid7331" unicode="&#x4ec4;" 
 />
    <glyph glyph-name="cid3896" unicode="&#x4ec7;" 
 />
    <glyph glyph-name="cid4038" unicode="&#x4eca;" 
 />
    <glyph glyph-name="cid3560" unicode="&#x4ecb;" 
 />
    <glyph glyph-name="cid6479" unicode="&#x4ecd;" 
 />
    <glyph glyph-name="cid6483" unicode="&#x4ed4;" 
 />
    <glyph glyph-name="cid5244" unicode="&#x4ed5;" 
 />
    <glyph glyph-name="cid7380" unicode="&#x4ed6;" 
 />
    <glyph glyph-name="cid6535" unicode="&#x4ed7;" 
 />
    <glyph glyph-name="cid5110" unicode="&#x4ed8;" 
 />
    <glyph glyph-name="cid5418" unicode="&#x4ed9;" 
 />
    <glyph glyph-name="cid4331" unicode="&#x4edd;" 
 />
    <glyph glyph-name="cid7148" unicode="&#x4edf;" 
 />
    <glyph glyph-name="cid4250" unicode="&#x4ee3;" 
 />
    <glyph glyph-name="cid4489" unicode="&#x4ee4;" 
 />
    <glyph glyph-name="cid4489" unicode="&#xf9a8;" 
 />
    <glyph glyph-name="cid6414" unicode="&#x4ee5;" 
 />
    <glyph glyph-name="cid5833" unicode="&#x4ef0;" 
 />
    <glyph glyph-name="cid6923" unicode="&#x4ef2;" 
 />
    <glyph glyph-name="cid3602" unicode="&#x4ef6;" 
 />
    <glyph glyph-name="cid3561" unicode="&#x4ef7;" 
 />
    <glyph glyph-name="cid6469" unicode="&#x4efb;" 
 />
    <glyph glyph-name="cid4062" unicode="&#x4f01;" 
 />
    <glyph glyph-name="cid7671" unicode="&#x4f09;" 
 />
    <glyph glyph-name="cid6415" unicode="&#x4f0a;" 
 />
    <glyph glyph-name="cid4051" unicode="&#x4f0b;" 
 />
    <glyph glyph-name="cid6050" unicode="&#x4f0d;" 
 />
    <glyph glyph-name="cid4063" unicode="&#x4f0e;" 
 />
    <glyph glyph-name="cid5074" unicode="&#x4f0f;" 
 />
    <glyph glyph-name="cid5005" unicode="&#x4f10;" 
 />
    <glyph glyph-name="cid8005" unicode="&#x4f11;" 
 />
    <glyph glyph-name="cid4988" unicode="&#x4f2f;" 
 />
    <glyph glyph-name="cid4905" unicode="&#x4f34;" 
 />
    <glyph glyph-name="cid4490" unicode="&#x4f36;" 
 />
    <glyph glyph-name="cid5735" unicode="&#x4f38;" 
 />
    <glyph glyph-name="cid5245" unicode="&#x4f3a;" 
 />
    <glyph glyph-name="cid5246" unicode="&#x4f3c;" 
 />
    <glyph glyph-name="cid3436" unicode="&#x4f3d;" 
 />
    <glyph glyph-name="cid6643" unicode="&#x4f43;" 
 />
    <glyph glyph-name="cid4194" unicode="&#x4f46;" 
 />
    <glyph glyph-name="cid6591" unicode="&#x4f47;" 
 />
    <glyph glyph-name="cid7544" unicode="&#x4f48;" 
 />
    <glyph glyph-name="cid6284" unicode="&#x4f4d;" 
 />
    <glyph glyph-name="cid6592" unicode="&#x4f4e;" 
 />
    <glyph glyph-name="cid6861" unicode="&#x4f4f;" 
 />
    <glyph glyph-name="cid6854" unicode="&#x4f50;" 
 />
    <glyph glyph-name="cid6198" unicode="&#x4f51;" 
 />
    <glyph glyph-name="cid7617" unicode="&#x4f55;" 
 />
    <glyph glyph-name="cid5935" unicode="&#x4f59;" 
 />
    <glyph glyph-name="cid6461" unicode="&#x4f5a;" 
 />
    <glyph glyph-name="cid5171" unicode="&#x4f5b;" 
 />
    <glyph glyph-name="cid6509" unicode="&#x4f5c;" 
 />
    <glyph glyph-name="cid7502" unicode="&#x4f69;" 
 />
    <glyph glyph-name="cid5879" unicode="&#x4f6f;" 
 />
    <glyph glyph-name="cid4989" unicode="&#x4f70;" 
 />
    <glyph glyph-name="cid3437" unicode="&#x4f73;" 
 />
    <glyph glyph-name="cid4127" unicode="&#x4f76;" 
 />
    <glyph glyph-name="cid6644" unicode="&#x4f7a;" 
 />
    <glyph glyph-name="cid6462" unicode="&#x4f7e;" 
 />
    <glyph glyph-name="cid5247" unicode="&#x4f7f;" 
 />
    <glyph glyph-name="cid5736" unicode="&#x4f81;" 
 />
    <glyph glyph-name="cid3476" unicode="&#x4f83;" 
 />
    <glyph glyph-name="cid7015" unicode="&#x4f84;" 
 />
    <glyph glyph-name="cid4420" unicode="&#x4f86;" 
 />
    <glyph glyph-name="cid4420" unicode="&#xf92d;" 
 />
    <glyph glyph-name="cid7336" unicode="&#x4f88;" 
 />
    <glyph glyph-name="cid3839" unicode="&#x4f8a;" 
 />
    <glyph glyph-name="cid4506" unicode="&#x4f8b;" 
 />
    <glyph glyph-name="cid4506" unicode="&#xf9b5;" 
 />
    <glyph glyph-name="cid5692" unicode="&#x4f8d;" 
 />
    <glyph glyph-name="cid6862" unicode="&#x4f8f;" 
 />
    <glyph glyph-name="cid6310" unicode="&#x4f91;" 
 />
    <glyph glyph-name="cid4594" unicode="&#x4f96;" 
 />
    <glyph glyph-name="cid7042" unicode="&#x4f98;" 
 />
    <glyph glyph-name="cid3786" unicode="&#x4f9b;" 
 />
    <glyph glyph-name="cid6394" unicode="&#x4f9d;" 
 />
    <glyph glyph-name="cid4764" unicode="&#x4fae;" 
 />
    <glyph glyph-name="cid7966" unicode="&#x4faf;" 
 />
    <glyph glyph-name="cid7367" unicode="&#x4fb5;" 
 />
    <glyph glyph-name="cid4440" unicode="&#x4fb6;" 
 />
    <glyph glyph-name="cid7518" unicode="&#x4fbf;" 
 />
    <glyph glyph-name="cid7518" unicode="&#xf965;" 
 />
    <glyph glyph-name="cid3705" unicode="&#x4fc2;" 
 />
    <glyph glyph-name="cid7241" unicode="&#x4fc3;" 
 />
    <glyph glyph-name="cid5776" unicode="&#x4fc4;" 
 />
    <glyph glyph-name="cid6051" unicode="&#x4fc9;" 
 />
    <glyph glyph-name="cid6902" unicode="&#x4fca;" 
 />
    <glyph glyph-name="cid6782" unicode="&#x4fce;" 
 />
    <glyph glyph-name="cid6174" unicode="&#x4fd1;" 
 />
    <glyph glyph-name="cid3661" unicode="&#x4fd3;" 
 />
    <glyph glyph-name="cid7734" unicode="&#x4fd4;" 
 />
    <glyph glyph-name="cid5537" unicode="&#x4fd7;" 
 />
    <glyph glyph-name="cid4613" unicode="&#x4fda;" 
 />
    <glyph glyph-name="cid5058" unicode="&#x4fdd;" 
 />
    <glyph glyph-name="cid5248" unicode="&#x4fdf;" 
 />
    <glyph glyph-name="cid7759" unicode="&#x4fe0;" 
 />
    <glyph glyph-name="cid5737" unicode="&#x4fe1;" 
 />
    <glyph glyph-name="cid5567" unicode="&#x4fee;" 
 />
    <glyph glyph-name="cid5111" unicode="&#x4fef;" 
 />
    <glyph glyph-name="cid3897" unicode="&#x4ff1;" 
 />
    <glyph glyph-name="cid4970" unicode="&#x4ff3;" 
 />
    <glyph glyph-name="cid7576" unicode="&#x4ff5;" 
 />
    <glyph glyph-name="cid5093" unicode="&#x4ff8;" 
 />
    <glyph glyph-name="cid5925" unicode="&#x4ffa;" 
 />
    <glyph glyph-name="cid5042" unicode="&#x5002;" 
 />
    <glyph glyph-name="cid4428" unicode="&#x5006;" 
 />
    <glyph glyph-name="cid7092" unicode="&#x5009;" 
 />
    <glyph glyph-name="cid3562" unicode="&#x500b;" 
 />
    <glyph glyph-name="cid4969" unicode="&#x500d;" 
 />
    <glyph glyph-name="cid4836" unicode="&#x5011;" 
 />
    <glyph glyph-name="cid4269" unicode="&#x5012;" 
 />
    <glyph glyph-name="cid7705" unicode="&#x5016;" 
 />
    <glyph glyph-name="cid7967" unicode="&#x5019;" 
 />
    <glyph glyph-name="cid6395" unicode="&#x501a;" 
 />
    <glyph glyph-name="cid7134" unicode="&#x501c;" 
 />
    <glyph glyph-name="cid3662" unicode="&#x501e;" 
 />
    <glyph glyph-name="cid7043" unicode="&#x501f;" 
 />
    <glyph glyph-name="cid7093" unicode="&#x5021;" 
 />
    <glyph glyph-name="cid4941" unicode="&#x5023;" 
 />
    <glyph glyph-name="cid7337" unicode="&#x5024;" 
 />
    <glyph glyph-name="cid3969" unicode="&#x5026;" 
 />
    <glyph glyph-name="cid6837" unicode="&#x5027;" 
 />
    <glyph glyph-name="cid3585" unicode="&#x5028;" 
 />
    <glyph glyph-name="cid6030" unicode="&#x502a;" 
 />
    <glyph glyph-name="cid4595" unicode="&#x502b;" 
 />
    <glyph glyph-name="cid4595" unicode="&#xf9d4;" 
 />
    <glyph glyph-name="cid7394" unicode="&#x502c;" 
 />
    <glyph glyph-name="cid6131" unicode="&#x502d;" 
 />
    <glyph glyph-name="cid5863" unicode="&#x503b;" 
 />
    <glyph glyph-name="cid5917" unicode="&#x5043;" 
 />
    <glyph glyph-name="cid3438" unicode="&#x5047;" 
 />
    <glyph glyph-name="cid3627" unicode="&#x5048;" 
 />
    <glyph glyph-name="cid6285" unicode="&#x5049;" 
 />
    <glyph glyph-name="cid7519" unicode="&#x504f;" 
 />
    <glyph glyph-name="cid7686" unicode="&#x5055;" 
 />
    <glyph glyph-name="cid6863" unicode="&#x505a;" 
 />
    <glyph glyph-name="cid6707" unicode="&#x505c;" 
 />
    <glyph glyph-name="cid3603" unicode="&#x5065;" 
 />
    <glyph glyph-name="cid7330" unicode="&#x5074;" 
 />
    <glyph glyph-name="cid6708" unicode="&#x5075;" 
 />
    <glyph glyph-name="cid6199" unicode="&#x5076;" 
 />
    <glyph glyph-name="cid7465" unicode="&#x5078;" 
 />
    <glyph glyph-name="cid3856" unicode="&#x5080;" 
 />
    <glyph glyph-name="cid5112" unicode="&#x5085;" 
 />
    <glyph glyph-name="cid4942" unicode="&#x508d;" 
 />
    <glyph glyph-name="cid3614" unicode="&#x5091;" 
 />
    <glyph glyph-name="cid5303" unicode="&#x5098;" 
 />
    <glyph glyph-name="cid5182" unicode="&#x5099;" 
 />
    <glyph glyph-name="cid7262" unicode="&#x50ac;" 
 />
    <glyph glyph-name="cid6175" unicode="&#x50ad;" 
 />
    <glyph glyph-name="cid6052" unicode="&#x50b2;" 
 />
    <glyph glyph-name="cid6645" unicode="&#x50b3;" 
 />
    <glyph glyph-name="cid7114" unicode="&#x50b5;" 
 />
    <glyph glyph-name="cid5332" unicode="&#x50b7;" 
 />
    <glyph glyph-name="cid3663" unicode="&#x50be;" 
 />
    <glyph glyph-name="cid4023" unicode="&#x50c5;" 
 />
    <glyph glyph-name="cid7177" unicode="&#x50c9;" 
 />
    <glyph glyph-name="cid5419" unicode="&#x50ca;" 
 />
    <glyph glyph-name="cid5333" unicode="&#x50cf;" 
 />
    <glyph glyph-name="cid3869" unicode="&#x50d1;" 
 />
    <glyph glyph-name="cid5075" unicode="&#x50d5;" 
 />
    <glyph glyph-name="cid8035" unicode="&#x50d6;" 
 />
    <glyph glyph-name="cid4552" unicode="&#x50da;" 
 />
    <glyph glyph-name="cid4552" unicode="&#xf9bb;" 
 />
    <glyph glyph-name="cid6286" unicode="&#x50de;" 
 />
    <glyph glyph-name="cid6140" unicode="&#x50e5;" 
 />
    <glyph glyph-name="cid5684" unicode="&#x50e7;" 
 />
    <glyph glyph-name="cid7082" unicode="&#x50ed;" 
 />
    <glyph glyph-name="cid3439" unicode="&#x50f9;" 
 />
    <glyph glyph-name="cid5020" unicode="&#x50fb;" 
 />
    <glyph glyph-name="cid5249" unicode="&#x50ff;" 
 />
    <glyph glyph-name="cid6396" unicode="&#x5100;" 
 />
    <glyph glyph-name="cid6903" unicode="&#x5101;" 
 />
    <glyph glyph-name="cid5912" unicode="&#x5104;" 
 />
    <glyph glyph-name="cid3664" unicode="&#x5106;" 
 />
    <glyph glyph-name="cid3617" unicode="&#x5109;" 
 />
    <glyph glyph-name="cid6311" unicode="&#x5112;" 
 />
    <glyph glyph-name="cid5334" unicode="&#x511f;" 
 />
    <glyph glyph-name="cid4543" unicode="&#x5121;" 
 />
    <glyph glyph-name="cid6200" unicode="&#x512a;" 
 />
    <glyph glyph-name="cid6593" unicode="&#x5132;" 
 />
    <glyph glyph-name="cid4441" unicode="&#x5137;" 
 />
    <glyph glyph-name="cid4133" unicode="&#x513a;" 
 />
    <glyph glyph-name="cid5926" unicode="&#x513c;" 
 />
    <glyph glyph-name="cid6089" unicode="&#x5140;" 
 />
    <glyph glyph-name="cid6359" unicode="&#x5141;" 
 />
    <glyph glyph-name="cid6255" unicode="&#x5143;" 
 />
    <glyph glyph-name="cid7772" unicode="&#x5144;" 
 />
    <glyph glyph-name="cid7306" unicode="&#x5145;" 
 />
    <glyph glyph-name="cid6783" unicode="&#x5146;" 
 />
    <glyph glyph-name="cid8013" unicode="&#x5147;" 
 />
    <glyph glyph-name="cid5420" unicode="&#x5148;" 
 />
    <glyph glyph-name="cid3840" unicode="&#x5149;" 
 />
    <glyph glyph-name="cid4016" unicode="&#x514b;" 
 />
    <glyph glyph-name="cid7431" unicode="&#x514c;" 
 />
    <glyph glyph-name="cid4735" unicode="&#x514d;" 
 />
    <glyph glyph-name="cid7449" unicode="&#x514e;" 
 />
    <glyph glyph-name="cid5777" unicode="&#x5152;" 
 />
    <glyph glyph-name="cid4348" unicode="&#x515c;" 
 />
    <glyph glyph-name="cid4059" unicode="&#x5162;" 
 />
    <glyph glyph-name="cid4155" unicode="&#x5167;" 
 />
    <glyph glyph-name="cid6646" unicode="&#x5168;" 
 />
    <glyph glyph-name="cid4429" unicode="&#x5169;" 
 />
    <glyph glyph-name="cid4429" unicode="&#xf978;" 
 />
    <glyph glyph-name="cid6312" unicode="&#x516a;" 
 />
    <glyph glyph-name="cid3787" unicode="&#x516c;" 
 />
    <glyph glyph-name="cid4591" unicode="&#x516d;" 
 />
    <glyph glyph-name="cid4591" unicode="&#xf9d1;" 
 />
    <glyph glyph-name="cid7791" unicode="&#x516e;" 
 />
    <glyph glyph-name="cid3788" unicode="&#x5171;" 
 />
    <glyph glyph-name="cid5043" unicode="&#x5175;" 
 />
    <glyph glyph-name="cid4064" unicode="&#x5176;" 
 />
    <glyph glyph-name="cid3898" unicode="&#x5177;" 
 />
    <glyph glyph-name="cid6647" unicode="&#x5178;" 
 />
    <glyph glyph-name="cid3654" unicode="&#x517c;" 
 />
    <glyph glyph-name="cid4065" unicode="&#x5180;" 
 />
    <glyph glyph-name="cid5933" unicode="&#x5186;" 
 />
    <glyph glyph-name="cid7126" unicode="&#x518a;" 
 />
    <glyph glyph-name="cid6570" unicode="&#x518d;" 
 />
    <glyph glyph-name="cid4765" unicode="&#x5192;" 
 />
    <glyph glyph-name="cid4736" unicode="&#x5195;" 
 />
    <glyph glyph-name="cid6176" unicode="&#x5197;" 
 />
    <glyph glyph-name="cid3819" unicode="&#x51a0;" 
 />
    <glyph glyph-name="cid4748" unicode="&#x51a5;" 
 />
    <glyph glyph-name="cid4733" unicode="&#x51aa;" 
 />
    <glyph glyph-name="cid4332" unicode="&#x51ac;" 
 />
    <glyph glyph-name="cid5864" unicode="&#x51b6;" 
 />
    <glyph glyph-name="cid4424" unicode="&#x51b7;" 
 />
    <glyph glyph-name="cid4424" unicode="&#xf92e;" 
 />
    <glyph glyph-name="cid4477" unicode="&#x51bd;" 
 />
    <glyph glyph-name="cid7130" unicode="&#x51c4;" 
 />
    <glyph glyph-name="cid6904" unicode="&#x51c6;" 
 />
    <glyph glyph-name="cid4430" unicode="&#x51c9;" 
 />
    <glyph glyph-name="cid4430" unicode="&#xf979;" 
 />
    <glyph glyph-name="cid6784" unicode="&#x51cb;" 
 />
    <glyph glyph-name="cid4607" unicode="&#x51cc;" 
 />
    <glyph glyph-name="cid4607" unicode="&#xf955;" 
 />
    <glyph glyph-name="cid4333" unicode="&#x51cd;" 
 />
    <glyph glyph-name="cid4606" unicode="&#x51dc;" 
 />
    <glyph glyph-name="cid4606" unicode="&#xf954;" 
 />
    <glyph glyph-name="cid6390" unicode="&#x51dd;" 
 />
    <glyph glyph-name="cid8036" unicode="&#x51de;" 
 />
    <glyph glyph-name="cid5009" unicode="&#x51e1;" 
 />
    <glyph glyph-name="cid7904" unicode="&#x51f0;" 
 />
    <glyph glyph-name="cid3563" unicode="&#x51f1;" 
 />
    <glyph glyph-name="cid8014" unicode="&#x51f6;" 
 />
    <glyph glyph-name="cid7167" unicode="&#x51f8;" 
 />
    <glyph glyph-name="cid6141" unicode="&#x51f9;" 
 />
    <glyph glyph-name="cid7303" unicode="&#x51fa;" 
 />
    <glyph glyph-name="cid7651" unicode="&#x51fd;" 
 />
    <glyph glyph-name="cid6445" unicode="&#x5203;" 
 />
    <glyph glyph-name="cid5152" unicode="&#x5206;" 
 />
    <glyph glyph-name="cid6684" unicode="&#x5207;" 
 />
    <glyph glyph-name="cid6684" unicode="&#xfa00;" 
 />
    <glyph glyph-name="cid6031" unicode="&#x5208;" 
 />
    <glyph glyph-name="cid3477" unicode="&#x520a;" 
 />
    <glyph glyph-name="cid4837" unicode="&#x520e;" 
 />
    <glyph glyph-name="cid7773" unicode="&#x5211;" 
 />
    <glyph glyph-name="cid4478" unicode="&#x5217;" 
 />
    <glyph glyph-name="cid4478" unicode="&#xf99c;" 
 />
    <glyph glyph-name="cid7214" unicode="&#x521d;" 
 />
    <glyph glyph-name="cid7490" unicode="&#x5224;" 
 />
    <glyph glyph-name="cid5037" unicode="&#x5225;" 
 />
    <glyph glyph-name="cid4614" unicode="&#x5229;" 
 />
    <glyph glyph-name="cid4614" unicode="&#xf9dd;" 
 />
    <glyph glyph-name="cid5304" unicode="&#x522a;" 
 />
    <glyph glyph-name="cid3835" unicode="&#x522e;" 
 />
    <glyph glyph-name="cid4271" unicode="&#x5230;" 
 />
    <glyph glyph-name="cid6759" unicode="&#x5236;" 
 />
    <glyph glyph-name="cid5561" unicode="&#x5237;" 
 />
    <glyph glyph-name="cid3970" unicode="&#x5238;" 
 />
    <glyph glyph-name="cid7077" unicode="&#x5239;" 
 />
    <glyph glyph-name="cid6484" unicode="&#x523a;" 
 />
    <glyph glyph-name="cid6484" unicode="&#xf9ff;" 
 />
    <glyph glyph-name="cid3465" unicode="&#x523b;" 
 />
    <glyph glyph-name="cid7205" unicode="&#x5243;" 
 />
    <glyph glyph-name="cid7360" unicode="&#x5247;" 
 />
    <glyph glyph-name="cid5301" unicode="&#x524a;" 
 />
    <glyph glyph-name="cid4017" unicode="&#x524b;" 
 />
    <glyph glyph-name="cid4397" unicode="&#x524c;" 
 />
    <glyph glyph-name="cid6648" unicode="&#x524d;" 
 />
    <glyph glyph-name="cid7135" unicode="&#x5254;" 
 />
    <glyph glyph-name="cid5113" unicode="&#x5256;" 
 />
    <glyph glyph-name="cid3536" unicode="&#x525b;" 
 />
    <glyph glyph-name="cid4886" unicode="&#x525d;" 
 />
    <glyph glyph-name="cid5463" unicode="&#x5261;" 
 />
    <glyph glyph-name="cid6480" unicode="&#x5269;" 
 />
    <glyph glyph-name="cid6649" unicode="&#x526a;" 
 />
    <glyph glyph-name="cid5114" unicode="&#x526f;" 
 />
    <glyph glyph-name="cid7649" unicode="&#x5272;" 
 />
    <glyph glyph-name="cid7094" unicode="&#x5275;" 
 />
    <glyph glyph-name="cid7577" unicode="&#x527d;" 
 />
    <glyph glyph-name="cid7215" unicode="&#x527f;" 
 />
    <glyph glyph-name="cid7948" unicode="&#x5283;" 
 />
    <glyph glyph-name="cid4018" unicode="&#x5287;" 
 />
    <glyph glyph-name="cid5021" unicode="&#x5288;" 
 />
    <glyph glyph-name="cid4577" unicode="&#x5289;" 
 />
    <glyph glyph-name="cid4577" unicode="&#xf9c7;" 
 />
    <glyph glyph-name="cid3618" unicode="&#x528d;" 
 />
    <glyph glyph-name="cid6760" unicode="&#x5291;" 
 />
    <glyph glyph-name="cid3619" unicode="&#x5292;" 
 />
    <glyph glyph-name="cid3789" unicode="&#x529f;" 
 />
    <glyph glyph-name="cid3440" unicode="&#x52a0;" 
 />
    <glyph glyph-name="cid4479" unicode="&#x52a3;" 
 />
    <glyph glyph-name="cid4479" unicode="&#xf99d;" 
 />
    <glyph glyph-name="cid4024" unicode="&#x52a4;" 
 />
    <glyph glyph-name="cid6785" unicode="&#x52a9;" 
 />
    <glyph glyph-name="cid4169" unicode="&#x52aa;" 
 />
    <glyph glyph-name="cid3624" unicode="&#x52ab;" 
 />
    <glyph glyph-name="cid7703" unicode="&#x52be;" 
 />
    <glyph glyph-name="cid3665" unicode="&#x52c1;" 
 />
    <glyph glyph-name="cid4930" unicode="&#x52c3;" 
 />
    <glyph glyph-name="cid7361" unicode="&#x52c5;" 
 />
    <glyph glyph-name="cid6177" unicode="&#x52c7;" 
 />
    <glyph glyph-name="cid4737" unicode="&#x52c9;" 
 />
    <glyph glyph-name="cid3666" unicode="&#x52cd;" 
 />
    <glyph glyph-name="cid4604" unicode="&#x52d2;" 
 />
    <glyph glyph-name="cid4604" unicode="&#xf952;" 
 />
    <glyph glyph-name="cid4334" unicode="&#x52d5;" 
 />
    <glyph glyph-name="cid6229" unicode="&#x52d6;" 
 />
    <glyph glyph-name="cid3510" unicode="&#x52d8;" 
 />
    <glyph glyph-name="cid4812" unicode="&#x52d9;" 
 />
    <glyph glyph-name="cid7979" unicode="&#x52db;" 
 />
    <glyph glyph-name="cid5685" unicode="&#x52dd;" 
 />
    <glyph glyph-name="cid4511" unicode="&#x52de;" 
 />
    <glyph glyph-name="cid4511" unicode="&#xf92f;" 
 />
    <glyph glyph-name="cid4766" unicode="&#x52df;" 
 />
    <glyph glyph-name="cid5493" unicode="&#x52e2;" 
 />
    <glyph glyph-name="cid6619" unicode="&#x52e3;" 
 />
    <glyph glyph-name="cid4025" unicode="&#x52e4;" 
 />
    <glyph glyph-name="cid7980" unicode="&#x52f3;" 
 />
    <glyph glyph-name="cid4442" unicode="&#x52f5;" 
 />
    <glyph glyph-name="cid4442" unicode="&#xf97f;" 
 />
    <glyph glyph-name="cid3971" unicode="&#x52f8;" 
 />
    <glyph glyph-name="cid6510" unicode="&#x52fa;" 
 />
    <glyph glyph-name="cid4009" unicode="&#x52fb;" 
 />
    <glyph glyph-name="cid3899" unicode="&#x52fe;" 
 />
    <glyph glyph-name="cid4848" unicode="&#x52ff;" 
 />
    <glyph glyph-name="cid7545" unicode="&#x5305;" 
 />
    <glyph glyph-name="cid8015" unicode="&#x5308;" 
 />
    <glyph glyph-name="cid7546" unicode="&#x530d;" 
 />
    <glyph glyph-name="cid7547" unicode="&#x530f;" 
 />
    <glyph glyph-name="cid5076" unicode="&#x5310;" 
 />
    <glyph glyph-name="cid7863" unicode="&#x5316;" 
 />
    <glyph glyph-name="cid5151" unicode="&#x5317;" 
 />
    <glyph glyph-name="cid5151" unicode="&#xf963;" 
 />
    <glyph glyph-name="cid5693" unicode="&#x5319;" 
 />
    <glyph glyph-name="cid6536" unicode="&#x5320;" 
 />
    <glyph glyph-name="cid3841" unicode="&#x5321;" 
 />
    <glyph glyph-name="cid3530" unicode="&#x5323;" 
 />
    <glyph glyph-name="cid5184" unicode="&#x532a;" 
 />
    <glyph glyph-name="cid7928" unicode="&#x532f;" 
 />
    <glyph glyph-name="cid7604" unicode="&#x5339;" 
 />
    <glyph glyph-name="cid4188" unicode="&#x533f;" 
 />
    <glyph glyph-name="cid4188" unicode="&#xf9eb;" 
 />
    <glyph glyph-name="cid3900" unicode="&#x5340;" 
 />
    <glyph glyph-name="cid7149" unicode="&#x5343;" 
 />
    <glyph glyph-name="cid6478" unicode="&#x5344;" 
 />
    <glyph glyph-name="cid5686" unicode="&#x5347;" 
 />
    <glyph glyph-name="cid6053" unicode="&#x5348;" 
 />
    <glyph glyph-name="cid7994" unicode="&#x5349;" 
 />
    <glyph glyph-name="cid4906" unicode="&#x534a;" 
 />
    <glyph glyph-name="cid4671" unicode="&#x534d;" 
 />
    <glyph glyph-name="cid5185" unicode="&#x5351;" 
 />
    <glyph glyph-name="cid6834" unicode="&#x5352;" 
 />
    <glyph glyph-name="cid7395" unicode="&#x5353;" 
 />
    <glyph glyph-name="cid7760" unicode="&#x5354;" 
 />
    <glyph glyph-name="cid4145" unicode="&#x5357;" 
 />
    <glyph glyph-name="cid4887" unicode="&#x535a;" 
 />
    <glyph glyph-name="cid5031" unicode="&#x535e;" 
 />
    <glyph glyph-name="cid6692" unicode="&#x5360;" 
 />
    <glyph glyph-name="cid3852" unicode="&#x5366;" 
 />
    <glyph glyph-name="cid5450" unicode="&#x5368;" 
 />
    <glyph glyph-name="cid4800" unicode="&#x536f;" 
 />
    <glyph glyph-name="cid6446" unicode="&#x5370;" 
 />
    <glyph glyph-name="cid6287" unicode="&#x5371;" 
 />
    <glyph glyph-name="cid3466" unicode="&#x5374;" 
 />
    <glyph glyph-name="cid4390" unicode="&#x5375;" 
 />
    <glyph glyph-name="cid4390" unicode="&#xf91c;" 
 />
    <glyph glyph-name="cid3972" unicode="&#x5377;" 
 />
    <glyph glyph-name="cid6926" unicode="&#x537d;" 
 />
    <glyph glyph-name="cid3667" unicode="&#x537f;" 
 />
    <glyph glyph-name="cid5851" unicode="&#x5384;" 
 />
    <glyph glyph-name="cid5840" unicode="&#x5393;" 
 />
    <glyph glyph-name="cid4615" unicode="&#x5398;" 
 />
    <glyph glyph-name="cid7968" unicode="&#x539a;" 
 />
    <glyph glyph-name="cid6256" unicode="&#x539f;" 
 />
    <glyph glyph-name="cid7332" unicode="&#x53a0;" 
 />
    <glyph glyph-name="cid3979" unicode="&#x53a5;" 
 />
    <glyph glyph-name="cid7618" unicode="&#x53a6;" 
 />
    <glyph glyph-name="cid5989" unicode="&#x53ad;" 
 />
    <glyph glyph-name="cid3586" unicode="&#x53bb;" 
 />
    <glyph glyph-name="cid7083" unicode="&#x53c3;" 
 />
    <glyph glyph-name="cid7083" unicode="&#xf96b;" 
 />
    <glyph glyph-name="cid7044" unicode="&#x53c9;" 
 />
    <glyph glyph-name="cid4052" unicode="&#x53ca;" 
 />
    <glyph glyph-name="cid6202" unicode="&#x53cb;" 
 />
    <glyph glyph-name="cid4907" unicode="&#x53cd;" 
 />
    <glyph glyph-name="cid5628" unicode="&#x53d4;" 
 />
    <glyph glyph-name="cid7316" unicode="&#x53d6;" 
 />
    <glyph glyph-name="cid5568" unicode="&#x53d7;" 
 />
    <glyph glyph-name="cid4908" unicode="&#x53db;" 
 />
    <glyph glyph-name="cid6032" unicode="&#x53e1;" 
 />
    <glyph glyph-name="cid7251" unicode="&#x53e2;" 
 />
    <glyph glyph-name="cid3729" unicode="&#x53e4;" 
 />
    <glyph glyph-name="cid3902" unicode="&#x53e5;" 
 />
    <glyph glyph-name="cid3902" unicode="&#xf906;" 
 />
    <glyph glyph-name="cid3730" unicode="&#x53e9;" 
 />
    <glyph glyph-name="cid6943" unicode="&#x53ea;" 
 />
    <glyph glyph-name="cid3994" unicode="&#x53eb;" 
 />
    <glyph glyph-name="cid5500" unicode="&#x53ec;" 
 />
    <glyph glyph-name="cid7500" unicode="&#x53ed;" 
 />
    <glyph glyph-name="cid3441" unicode="&#x53ef;" 
 />
    <glyph glyph-name="cid7432" unicode="&#x53f0;" 
 />
    <glyph glyph-name="cid7016" unicode="&#x53f1;" 
 />
    <glyph glyph-name="cid5250" unicode="&#x53f2;" 
 />
    <glyph glyph-name="cid6203" unicode="&#x53f3;" 
 />
    <glyph glyph-name="cid5251" unicode="&#x53f8;" 
 />
    <glyph glyph-name="cid8023" unicode="&#x5403;" 
 />
    <glyph glyph-name="cid3467" unicode="&#x5404;" 
 />
    <glyph glyph-name="cid7663" unicode="&#x5408;" 
 />
    <glyph glyph-name="cid4128" unicode="&#x5409;" 
 />
    <glyph glyph-name="cid6620" unicode="&#x540a;" 
 />
    <glyph glyph-name="cid4335" unicode="&#x540c;" 
 />
    <glyph glyph-name="cid4749" unicode="&#x540d;" 
 />
    <glyph glyph-name="cid7969" unicode="&#x540e;" 
 />
    <glyph glyph-name="cid4616" unicode="&#x540f;" 
 />
    <glyph glyph-name="cid4616" unicode="&#xf9de;" 
 />
    <glyph glyph-name="cid7450" unicode="&#x5410;" 
 />
    <glyph glyph-name="cid7711" unicode="&#x5411;" 
 />
    <glyph glyph-name="cid3953" unicode="&#x541b;" 
 />
    <glyph glyph-name="cid4638" unicode="&#x541d;" 
 />
    <glyph glyph-name="cid4638" unicode="&#xf9ed;" 
 />
    <glyph glyph-name="cid6381" unicode="&#x541f;" 
 />
    <glyph glyph-name="cid7534" unicode="&#x5420;" 
 />
    <glyph glyph-name="cid5115" unicode="&#x5426;" 
 />
    <glyph glyph-name="cid5153" unicode="&#x5429;" 
 />
    <glyph glyph-name="cid7652" unicode="&#x542b;" 
 />
    <glyph glyph-name="cid6055" unicode="&#x5433;" 
 />
    <glyph glyph-name="cid8030" unicode="&#x5438;" 
 />
    <glyph glyph-name="cid7317" unicode="&#x5439;" 
 />
    <glyph glyph-name="cid4838" unicode="&#x543b;" 
 />
    <glyph glyph-name="cid7970" unicode="&#x543c;" 
 />
    <glyph glyph-name="cid6054" unicode="&#x543e;" 
 />
    <glyph glyph-name="cid4443" unicode="&#x5442;" 
 />
    <glyph glyph-name="cid4443" unicode="&#xf980;" 
 />
    <glyph glyph-name="cid6709" unicode="&#x5448;" 
 />
    <glyph glyph-name="cid3731" unicode="&#x544a;" 
 />
    <glyph glyph-name="cid7408" unicode="&#x5451;" 
 />
    <glyph glyph-name="cid6867" unicode="&#x5468;" 
 />
    <glyph glyph-name="cid6866" unicode="&#x546a;" 
 />
    <glyph glyph-name="cid3732" unicode="&#x5471;" 
 />
    <glyph glyph-name="cid4851" unicode="&#x5473;" 
 />
    <glyph glyph-name="cid3442" unicode="&#x5475;" 
 />
    <glyph glyph-name="cid5738" unicode="&#x547b;" 
 />
    <glyph glyph-name="cid7802" unicode="&#x547c;" 
 />
    <glyph glyph-name="cid4750" unicode="&#x547d;" 
 />
    <glyph glyph-name="cid6594" unicode="&#x5480;" 
 />
    <glyph glyph-name="cid7548" unicode="&#x5486;" 
 />
    <glyph glyph-name="cid7864" unicode="&#x548c;" 
 />
    <glyph glyph-name="cid3903" unicode="&#x548e;" 
 />
    <glyph glyph-name="cid5116" unicode="&#x5490;" 
 />
    <glyph glyph-name="cid7381" unicode="&#x54a4;" 
 />
    <glyph glyph-name="cid6485" unicode="&#x54a8;" 
 />
    <glyph glyph-name="cid6944" unicode="&#x54ab;" 
 />
    <glyph glyph-name="cid3870" unicode="&#x54ac;" 
 />
    <glyph glyph-name="cid7687" unicode="&#x54b3;" 
 />
    <glyph glyph-name="cid7653" unicode="&#x54b8;" 
 />
    <glyph glyph-name="cid6447" unicode="&#x54bd;" 
 />
    <glyph glyph-name="cid6447" unicode="&#xf99e;" 
 />
    <glyph glyph-name="cid5841" unicode="&#x54c0;" 
 />
    <glyph glyph-name="cid7590" unicode="&#x54c1;" 
 />
    <glyph glyph-name="cid7853" unicode="&#x54c4;" 
 />
    <glyph glyph-name="cid7664" unicode="&#x54c8;" 
 />
    <glyph glyph-name="cid6571" unicode="&#x54c9;" 
 />
    <glyph glyph-name="cid6257" unicode="&#x54e1;" 
 />
    <glyph glyph-name="cid3443" unicode="&#x54e5;" 
 />
    <glyph glyph-name="cid7216" unicode="&#x54e8;" 
 />
    <glyph glyph-name="cid3767" unicode="&#x54ed;" 
 />
    <glyph glyph-name="cid7953" unicode="&#x54ee;" 
 />
    <glyph glyph-name="cid7168" unicode="&#x54f2;" 
 />
    <glyph glyph-name="cid7549" unicode="&#x54fa;" 
 />
    <glyph glyph-name="cid7503" unicode="&#x5504;" 
 />
    <glyph glyph-name="cid5252" unicode="&#x5506;" 
 />
    <glyph glyph-name="cid6980" unicode="&#x5507;" 
 />
    <glyph glyph-name="cid4617" unicode="&#x550e;" 
 />
    <glyph glyph-name="cid4239" unicode="&#x5510;" 
 />
    <glyph glyph-name="cid4689" unicode="&#x551c;" 
 />
    <glyph glyph-name="cid6313" unicode="&#x552f;" 
 />
    <glyph glyph-name="cid7095" unicode="&#x5531;" 
 />
    <glyph glyph-name="cid5821" unicode="&#x5535;" 
 />
    <glyph glyph-name="cid7382" unicode="&#x553e;" 
 />
    <glyph glyph-name="cid7396" unicode="&#x5544;" 
 />
    <glyph glyph-name="cid5335" unicode="&#x5546;" 
 />
    <glyph glyph-name="cid4839" unicode="&#x554f;" 
 />
    <glyph glyph-name="cid3706" unicode="&#x5553;" 
 />
    <glyph glyph-name="cid4217" unicode="&#x5556;" 
 />
    <glyph glyph-name="cid5778" unicode="&#x555e;" 
 />
    <glyph glyph-name="cid7654" unicode="&#x5563;" 
 />
    <glyph glyph-name="cid6761" unicode="&#x557c;" 
 />
    <glyph glyph-name="cid3579" unicode="&#x5580;" 
 />
    <glyph glyph-name="cid5421" unicode="&#x5584;" 
 />
    <glyph glyph-name="cid7169" unicode="&#x5586;" 
 />
    <glyph glyph-name="cid4374" unicode="&#x5587;" 
 />
    <glyph glyph-name="cid4374" unicode="&#xf90b;" 
 />
    <glyph glyph-name="cid7971" unicode="&#x5589;" 
 />
    <glyph glyph-name="cid7655" unicode="&#x558a;" 
 />
    <glyph glyph-name="cid7150" unicode="&#x5598;" 
 />
    <glyph glyph-name="cid7995" unicode="&#x5599;" 
 />
    <glyph glyph-name="cid7883" unicode="&#x559a;" 
 />
    <glyph glyph-name="cid8037" unicode="&#x559c;" 
 />
    <glyph glyph-name="cid3501" unicode="&#x559d;" 
 />
    <glyph glyph-name="cid7990" unicode="&#x55a7;" 
 />
    <glyph glyph-name="cid6314" unicode="&#x55a9;" 
 />
    <glyph glyph-name="cid5336" unicode="&#x55aa;" 
 />
    <glyph glyph-name="cid4132" unicode="&#x55ab;" 
 />
    <glyph glyph-name="cid3871" unicode="&#x55ac;" 
 />
    <glyph glyph-name="cid4195" unicode="&#x55ae;" 
 />
    <glyph glyph-name="cid7972" unicode="&#x55c5;" 
 />
    <glyph glyph-name="cid5365" unicode="&#x55c7;" 
 />
    <glyph glyph-name="cid6981" unicode="&#x55d4;" 
 />
    <glyph glyph-name="cid6056" unicode="&#x55da;" 
 />
    <glyph glyph-name="cid4066" unicode="&#x55dc;" 
 />
    <glyph glyph-name="cid7045" unicode="&#x55df;" 
 />
    <glyph glyph-name="cid5253" unicode="&#x55e3;" 
 />
    <glyph glyph-name="cid7338" unicode="&#x55e4;" 
 />
    <glyph glyph-name="cid5569" unicode="&#x55fd;" 
 />
    <glyph glyph-name="cid6868" unicode="&#x55fe;" 
 />
    <glyph glyph-name="cid7409" unicode="&#x5606;" 
 />
    <glyph glyph-name="cid3444" unicode="&#x5609;" 
 />
    <glyph glyph-name="cid3904" unicode="&#x5614;" 
 />
    <glyph glyph-name="cid5337" unicode="&#x5617;" 
 />
    <glyph glyph-name="cid5501" unicode="&#x562f;" 
 />
    <glyph glyph-name="cid6786" unicode="&#x5632;" 
 />
    <glyph glyph-name="cid7318" unicode="&#x5634;" 
 />
    <glyph glyph-name="cid5694" unicode="&#x5636;" 
 />
    <glyph glyph-name="cid7719" unicode="&#x5653;" 
 />
    <glyph glyph-name="cid4067" unicode="&#x5668;" 
 />
    <glyph glyph-name="cid8038" unicode="&#x566b;" 
 />
    <glyph glyph-name="cid5154" unicode="&#x5674;" 
 />
    <glyph glyph-name="cid7954" unicode="&#x5686;" 
 />
    <glyph glyph-name="cid5956" unicode="&#x56a5;" 
 />
    <glyph glyph-name="cid5223" unicode="&#x56ac;" 
 />
    <glyph glyph-name="cid7712" unicode="&#x56ae;" 
 />
    <glyph glyph-name="cid5927" unicode="&#x56b4;" 
 />
    <glyph glyph-name="cid6511" unicode="&#x56bc;" 
 />
    <glyph glyph-name="cid4152" unicode="&#x56ca;" 
 />
    <glyph glyph-name="cid8039" unicode="&#x56cd;" 
 />
    <glyph glyph-name="cid7242" unicode="&#x56d1;" 
 />
    <glyph glyph-name="cid5570" unicode="&#x56da;" 
 />
    <glyph glyph-name="cid5254" unicode="&#x56db;" 
 />
    <glyph glyph-name="cid7929" unicode="&#x56de;" 
 />
    <glyph glyph-name="cid6448" unicode="&#x56e0;" 
 />
    <glyph glyph-name="cid3774" unicode="&#x56f0;" 
 />
    <glyph glyph-name="cid4491" unicode="&#x56f9;" 
 />
    <glyph glyph-name="cid4491" unicode="&#xf9a9;" 
 />
    <glyph glyph-name="cid3733" unicode="&#x56fa;" 
 />
    <glyph glyph-name="cid7550" unicode="&#x5703;" 
 />
    <glyph glyph-name="cid5902" unicode="&#x5704;" 
 />
    <glyph glyph-name="cid3973" unicode="&#x5708;" 
 />
    <glyph glyph-name="cid3947" unicode="&#x570b;" 
 />
    <glyph glyph-name="cid6288" unicode="&#x570d;" 
 />
    <glyph glyph-name="cid6259" unicode="&#x5712;" 
 />
    <glyph glyph-name="cid6258" unicode="&#x5713;" 
 />
    <glyph glyph-name="cid4272" unicode="&#x5716;" 
 />
    <glyph glyph-name="cid4196" unicode="&#x5718;" 
 />
    <glyph glyph-name="cid6572" unicode="&#x5728;" 
 />
    <glyph glyph-name="cid3995" unicode="&#x572d;" 
 />
    <glyph glyph-name="cid6945" unicode="&#x5730;" 
 />
    <glyph glyph-name="cid4068" unicode="&#x573b;" 
 />
    <glyph glyph-name="cid6946" unicode="&#x5740;" 
 />
    <glyph glyph-name="cid7491" unicode="&#x5742;" 
 />
    <glyph glyph-name="cid4010" unicode="&#x5747;" 
 />
    <glyph glyph-name="cid4943" unicode="&#x574a;" 
 />
    <glyph glyph-name="cid4218" unicode="&#x574d;" 
 />
    <glyph glyph-name="cid3511" unicode="&#x574e;" 
 />
    <glyph glyph-name="cid6855" unicode="&#x5750;" 
 />
    <glyph glyph-name="cid3581" unicode="&#x5751;" 
 />
    <glyph glyph-name="cid7474" unicode="&#x5761;" 
 />
    <glyph glyph-name="cid3775" unicode="&#x5764;" 
 />
    <glyph glyph-name="cid7410" unicode="&#x5766;" 
 />
    <glyph glyph-name="cid7529" unicode="&#x576a;" 
 />
    <glyph glyph-name="cid4252" unicode="&#x576e;" 
 />
    <glyph glyph-name="cid3668" unicode="&#x5770;" 
 />
    <glyph glyph-name="cid3905" unicode="&#x5775;" 
 />
    <glyph glyph-name="cid7397" unicode="&#x577c;" 
 />
    <glyph glyph-name="cid5571" unicode="&#x5782;" 
 />
    <glyph glyph-name="cid4251" unicode="&#x5788;" 
 />
    <glyph glyph-name="cid7774" unicode="&#x578b;" 
 />
    <glyph glyph-name="cid7688" unicode="&#x5793;" 
 />
    <glyph glyph-name="cid6373" unicode="&#x57a0;" 
 />
    <glyph glyph-name="cid3906" unicode="&#x57a2;" 
 />
    <glyph glyph-name="cid6260" unicode="&#x57a3;" 
 />
    <glyph glyph-name="cid5842" unicode="&#x57c3;" 
 />
    <glyph glyph-name="cid6178" unicode="&#x57c7;" 
 />
    <glyph glyph-name="cid6905" unicode="&#x57c8;" 
 />
    </font>
</defs>
</svg>
